<?xml version="1.0" encoding="UTF-8" standalone="no"?>
<!-- Created with Inkscape (http://www.inkscape.org/) -->

<svg
   xmlns:dc="http://purl.org/dc/elements/1.1/"
   xmlns:cc="http://creativecommons.org/ns#"
   xmlns:rdf="http://www.w3.org/1999/02/22-rdf-syntax-ns#"
   xmlns:svg="http://www.w3.org/2000/svg"
   xmlns="http://www.w3.org/2000/svg"
   xmlns:sodipodi="http://sodipodi.sourceforge.net/DTD/sodipodi-0.dtd"
   xmlns:inkscape="http://www.inkscape.org/namespaces/inkscape"
   width="210mm"
   height="297mm"
   viewBox="0 0 210 297"
   version="1.1"
   id="svg8"
   inkscape:version="0.92.3 (2405546, 2018-03-11)"
   sodipodi:docname="Tech4-swirl.svg">
  <defs
     id="defs2" />
  <sodipodi:namedview
     id="base"
     pagecolor="#ffffff"
     bordercolor="#666666"
     borderopacity="1.0"
     inkscape:pageopacity="0.0"
     inkscape:pageshadow="2"
     inkscape:zoom="4.4155324"
     inkscape:cx="93.40034"
     inkscape:cy="75.323153"
     inkscape:document-units="mm"
     inkscape:current-layer="layer1"
     showgrid="false"
     inkscape:window-width="1600"
     inkscape:window-height="837"
     inkscape:window-x="-8"
     inkscape:window-y="32"
     inkscape:window-maximized="1" />
  <metadata
     id="metadata5">
    <rdf:RDF>
      <cc:Work
         rdf:about="">
        <dc:format>image/svg+xml</dc:format>
        <dc:type
           rdf:resource="http://purl.org/dc/dcmitype/StillImage" />
        <dc:title />
      </cc:Work>
    </rdf:RDF>
  </metadata>
  <g
     inkscape:label="Layer 1"
     inkscape:groupmode="layer"
     id="layer1">
    <path
       style="fill:#000000;stroke-width:0.33866668"
       d="m 12.344806,296.80172 -1.62397,-0.1261 -1.5426379,-0.16858 -1.2870429,-0.18902 -0.8571861,-0.18745 -1.24285,-0.59068 -1.2312682,-0.98677 -1.1771418,-1.34172 -1.080471,-1.65554 -0.5482048,-1.0673 -0.2854747,-1.13405 -0.2696659,-1.18931 -0.21236481,-1.7718 -0.15362371,-1.27825 -0.15099862,-1.43983 0.14100149,-2.227 0.21278785,-1.14439 0.4130321,-1.66494 0.5619711,-1.39179 0.2815627,-0.55887 0.2694484,-0.45766 0.2267765,-0.30924 0.1535464,-0.11357 0.1004774,-0.0417 0.082282,-0.11344 0.3729525,-0.62071 0.6135816,-0.35295 0.4503997,-0.48184 0.7901677,-0.46784 1.1632782,-0.46984 1.5697314,-0.48784 0.5146425,-0.14486 0.5146425,-0.14486 0.5146425,-0.14486 0.5146425,-0.14486 0.05585,-0.62755 0.05585,-0.62756 0.05585,-0.62755 0.05585,-0.62756 0.100596,-1.0682 0.108747,-1.05283 0.103809,-0.9162 0.08578,-0.65831 0.372953,-1.33156 0.652269,-1.5642 0.698231,-1.30165 0.51085,-0.54393 0.137245,-0.047 0.140793,-0.12798 0.127801,-0.18941 0.09827,-0.2313 0.12377,-0.25778 0.197239,-0.26152 0.24356,-0.2347 0.262731,-0.17733 0.333158,-0.17873 0.435309,-0.23852 0.48103,-0.26717 0.470316,-0.26468 2.597439,-0.91894 3.627915,-0.59265 4.018271,-0.2 3.768506,0.259 2.15106,0.47318 1.763057,0.72548 1.390727,0.98627 1.034061,1.25557 0.712984,1.49683 0.526048,1.77425 0.282127,1.79967 -0.01877,1.57311 -0.05416,0.39592 -0.05416,0.39592 -0.05416,0.39592 -0.05416,0.39591 0.409252,0.0532 0.409253,0.0532 0.409252,0.0532 0.409253,0.0532 1.637914,0.24039 1.125622,0.29631 1.030988,0.50801 1.354012,0.87547 1.586751,1.23771 1.084822,1.35751 0.74679,1.75589 0.572651,2.43285 0.251702,2.08232 -0.01534,2.14166 -0.280832,2.17854 -0.544788,2.19295 -0.763425,1.3486 -1.358908,1.38476 -1.729731,1.23068 -1.875893,0.88635 -2.426097,0.28933 -4.004047,0.10081 -3.978273,-0.0899 -2.348777,-0.28283 -0.836291,-0.18606 -0.803649,0.0287 -0.604376,0.21471 -0.23849,0.37189 -0.05726,0.27151 -0.155911,0.44755 -0.230746,0.56144 -0.281773,0.6132 -0.400636,0.71665 -0.439637,0.55631 -0.506336,0.4247 -0.600724,0.32181 -1.510293,0.43572 -2.267751,0.4685 -2.250473,0.35933 -1.458458,0.10822 -0.50456,-0.0346 -0.998273,-0.0637 -1.347526,-0.0839 -1.552308,-0.095 v 10e-6 1e-5 l 0,0 z m 7.112,-0.87758 1.741189,-0.24501 1.401488,-0.41231 1.169319,-0.62291 1.044677,-0.87682 0.547879,-0.92572 0.211696,-0.96666 -0.08561,-1.03805 -0.426909,-1.05701 -0.518641,-1.58824 -0.199218,-1.27112 -0.05838,-1.25047 0.19395,-1.36051 0.274332,-1.1822 0.296335,-1.00847 0.248117,-0.81051 0.336872,-0.83693 0.295584,-0.56368 0.481604,-0.63274 0.548418,-0.34964 0.620336,-0.33597 0.979045,-0.4365 1.016593,-0.29819 1.075105,-0.20724 1.403206,-0.12218 1.399176,0.12154 0.803482,0.21722 0.912793,0.3817 0.856777,0.61571 0.767538,0.89817 0.502876,0.83436 0.274855,0.83127 0.08347,0.9303 -0.01118,0.65535 -0.03043,0.57045 -0.169352,0.25944 -0.179303,0.0953 -0.100675,0.0175 -0.169413,0.0478 -0.214507,0.0707 -0.235959,0.0862 -0.29584,0.0699 -0.152098,-0.11927 -0.03133,-0.36975 0.06648,-0.68147 -0.436686,-2.24878 -1.662677,-1.44256 -2.444013,-0.43325 -2.780693,0.77917 -0.365116,0.23504 -0.355083,0.19998 -0.633344,0.66653 -0.445158,0.59875 -0.577239,0.90458 -0.443418,1.72811 -0.05897,2.94831 0.555379,1.99603 1.103545,0.78475 1.898971,0.53475 2.824578,0.30797 3.880366,0.10443 2.252418,-0.0194 1.769188,-0.0666 1.193485,-0.10818 0.525308,-0.1442 0.18594,-0.13626 0.246852,-0.11159 0.275586,-0.0754 0.27215,-0.0277 0.227941,-0.0267 0.155221,-0.0728 0.06871,-0.10769 -0.03159,-0.13149 -0.04487,-0.13149 0.03254,-0.1077 0.101671,-0.0728 0.162503,-0.0267 0.819789,-0.44147 1.123816,-1.04432 1.029525,-1.22702 0.536923,-0.98957 0.101207,-0.41232 0.13672,-0.4798 0.154309,-0.4877 0.153976,-0.43601 0.194323,-1.34272 -0.06075,-1.98727 -0.281474,-2.21054 -0.467852,-2.01251 -0.562773,-1.38954 -0.799523,-1.21577 -1.100521,-1.121 -1.465773,-1.10525 -1.330659,-0.71443 -1.448631,-0.47659 -1.41209,-0.20209 -1.221042,0.10909 -0.350717,0.15958 -0.373875,0.28474 -0.352309,0.36959 -0.286029,0.41416 -0.26533,0.39817 -0.295967,0.32607 -0.290482,0.22031 -0.248887,0.0809 -0.203363,0.0213 -0.166537,0.0582 -0.112525,0.0861 -0.04133,0.10506 -0.403167,0.40425 -1.071786,0.34654 -1.533833,0.24215 -1.789307,0.0911 -1.467794,-0.0244 -0.908224,-0.14383 -0.676533,-0.36966 -0.772652,-0.70185 -0.519631,-0.56394 -0.471183,-0.61898 -0.370875,-0.59902 -0.218716,-0.50406 -0.15319,-1.13108 0.06651,-1.28968 0.247093,-1.14463 0.388556,-0.69592 0.583566,-0.163 0.408221,0.32736 0.01338,0.76961 -0.228003,0.99803 -0.192274,0.92431 0.148434,0.8925 0.350439,0.75625 0.662419,0.63991 0.612744,0.46151 0.779683,0.32566 1.004685,0.17873 1.53638,0.10363 1.272463,-0.0716 0.641068,-0.15469 0.879447,-0.21122 0.785911,-0.40697 0.448131,-0.41665 0.448481,-0.51786 0.319696,-0.53616 0.305901,-0.74694 0.532952,-1.34412 0.366548,-1.88438 -0.05419,-1.84338 -0.277981,-0.79211 -0.131497,-0.0473 -0.107686,-0.12895 -0.07276,-0.19084 -0.02673,-0.23303 -0.324253,-0.89684 -0.842983,-1.07168 -1.167048,-1.04184 -1.296446,-0.80729 -1.029839,-0.42312 -1.191793,-0.22887 -1.872748,-0.0883 -3.072701,-0.002 -2.340035,0.0394 -1.818195,0.0827 -1.216514,0.12055 -0.534989,0.15313 -0.18755,0.14026 -0.243631,0.11488 -0.268174,0.0776 -0.261199,0.0285 -0.802374,0.20643 -1.078914,0.52382 -1.100028,0.69797 -0.865713,0.72891 -1.234975,1.47669 -0.80287,1.49534 -0.482346,1.8001 -0.273408,2.39096 -0.0267,1.26705 0.01642,1.05306 0.147987,0.65248 0.600679,0.71365 -0.126219,-9.8e-4 0.126219,9.8e-4 0.596464,0.15137 0.709145,0.12474 1.517657,0.35681 1.199355,0.64841 1.13886,0.93678 1.04611,1.38766 0.528043,2.19935 -0.01486,2.65054 -0.517813,2.54505 -0.980817,1.8829 -0.87772,0.65364 -1.432789,0.53408 -1.673488,0.15099 -1.475506,-0.12269 -0.698346,-0.27645 -0.514144,-0.38128 -0.480782,-0.41801 -0.473947,-0.6767 -0.4291279,-1.12202 -0.1702613,-0.90225 0.064506,-0.82924 0.3166117,-0.73724 0.5583605,-0.39226 0.396015,0.0688 0.142327,0.48456 0.04592,1.0206 0.122464,1.42441 0.438999,0.85068 0.898214,0.41163 1.500116,0.10728 1.13006,-0.029 0.729146,-0.13308 0.52592,-0.30645 0.520362,-0.54908 0.685238,-1.1519 0.382608,-1.4379 0.07217,-1.67053 -0.246081,-1.84982 -0.479738,-1.4919 -0.771446,-1.11832 -1.14865,-0.83157 -1.611358,-0.63165 -1.491513,-0.19494 -1.870554,0.13804 -2.0574154,0.44257 -2.0521025,0.7187 -1.051401,0.51691 -0.7550654,0.59012 -0.6154309,0.82516 -0.6324947,1.222 -0.5330606,1.26747 -0.355417,1.2455 -0.2306318,1.46832 -0.1587076,1.93592 -0.037773,1.69807 0.1602788,1.50345 0.4140639,1.61106 0.723582,2.02089 1.1931395,2.12553 1.6930319,1.69882 2.0163214,1.13707 2.1630081,0.44033 0.674858,0.036 0.679845,0.0732 0.60566,0.0997 0.452314,0.11554 0.656346,0.14814 1.056816,0.0218 1.893567,-0.11901 3.166604,-0.27417 h 0 -1e-6 l -2.2e-5,-3e-5 z m -11.6620659,-3.48612 -0.033679,-0.13272 0.046813,-0.13722 0.1172065,-0.12556 0.1774934,-0.0977 0.3709444,-0.0458 0.273037,0.12428 0.1062031,0.22999 -0.1296021,0.27131 -0.2433548,0.16558 -0.2533409,0.0391 -0.2370964,-0.0849 -0.1946239,-0.20643 v 0 0 l -2e-7,10e-6 z m 6.7514009,-4.77682 0.0066,-0.1196 0.0066,-0.11959 0.162762,-0.0498 0.162761,-0.0497 0.162762,0.0497 0.162761,0.0498 0.0066,0.11959 0.0066,0.1196 0.0829,0.3247 0.0829,0.3247 v 0 0 l -0.548411,-0.0586 -0.548411,-0.0586 0.126848,-0.26609 0.126848,-0.2661 h 4e-6 z m -10.7102462,-2.04839 0.079207,-0.29628 0.079207,-0.29629 0.197536,-0.0316 0.197536,-0.0316 0.2092858,0.0479 0.2092858,0.0479 0.087048,0.11883 0.087048,0.11883 -0.049496,0.15489 -0.049496,0.15489 -0.2598696,0.25533 -0.2598695,0.25532 -0.2637113,-0.24906 z m 10.2022462,-3.70895 0.02672,-0.13148 0.07276,-0.1077 0.107686,-0.0728 0.131497,-0.0267 0.131497,0.0267 0.107687,0.0728 0.07276,0.10769 0.02672,0.13149 -0.02672,0.13149 -0.07276,0.1077 -0.107686,0.0728 -0.131498,0.0267 -0.131496,-0.0267 -0.107687,-0.0728 -0.07276,-0.10769 z m 17.120715,-0.88722 v 0 0 l 0.266098,-0.15231 0.266098,-0.1523 0.119591,0.1816 0.119592,0.18161 0.04974,0.11959 0.04974,0.1196 -0.04974,0.1196 -0.04974,0.11959 -0.119591,0.21091 -0.119592,0.21091 -0.354001,-0.10835 -0.354001,-0.10836 0.0879,-0.37104 z m 11.66595,-2.51943 0.04974,-0.0959 0.04974,-0.0959 0.163543,-0.1399 0.163543,-0.13991 0.207496,0.21306 0.207495,0.21305 v 0 0 l 0.0879,0.26807 0.0879,0.26806 -0.266097,0.13916 -0.266098,0.13915 -0.242584,-0.38443 -0.242585,-0.38444 v 0 0 -2e-5 z m -27.995597,-0.51078 -0.0432,-0.52532 0.218627,-0.40006 0.367725,-0.16597 0.404085,0.17697 0.200086,0.40869 -0.02362,0.47646 -0.207762,0.39517 -0.352341,0.16485 -0.155823,-0.0419 -0.158203,-0.11403 -0.142089,-0.16877 -0.107483,-0.20609 v -10e-6 z m 7.910583,-1.71781 -0.129592,-0.27128 0.106192,-0.23001 0.273038,-0.12431 0.370943,0.0458 0.177495,0.0977 0.117205,0.12554 0.04681,0.13723 -0.03368,0.13271 -0.194624,0.20643 -0.237097,0.0849 -0.253341,-0.0391 -0.243354,-0.16558 v 1e-5 0 l 3e-6,-1e-5 z m 8.406335,-5.87082 -0.132938,-0.38759 0.0943,-0.28461 0.416483,-0.0855 0.482009,0.0925 0.1579,0.28664 0.02003,0.26159 -0.09143,0.10518 -0.235096,0.11047 -0.218714,0.0546 -0.207006,-4.3e-4 -0.171959,-0.0522 -0.113575,-0.10078 -3e-6,5e-5 z m -16.204875,-0.91172 -0.19467,-0.28787 -0.0087,-0.25337 0.0903,-0.42937 0.248754,-0.31773 0.373054,-0.0185 0.337335,0.0505 0.197046,0.45455 0.127986,0.49024 -0.25913,0.33666 -0.370764,0.1782 -0.253377,-0.008 -0.287866,-0.19486 0,2e-5 z m 16.589245,-6.70604 -0.0381,-0.38754 0.162215,-0.28538 0.295372,-0.12325 0.361367,0.0988 0.160043,0.28035 -0.02983,0.40019 -0.175902,0.35853 -0.278193,0.1554 -0.118415,-0.0392 -0.125628,-0.10682 -0.117845,-0.15808 z m -13.583227,-0.15678 -0.140756,-0.40987 0.09143,-0.34505 0.428079,-0.12882 0.458977,0.0632 0.172637,0.37712 -0.02484,0.4253 -0.184852,0.23501 -0.307137,0.0988 -0.131351,-0.0249 -0.136836,-0.0677 -0.126126,-0.10023 -0.09922,-0.12243 10e-7,-2.4e-4 z m 9.722203,0.072 -0.315634,-0.207 -0.09364,-0.39557 -0.02268,-0.43441 0.19025,-0.3306 0.410724,-0.0706 0.389972,0.0321 0.196383,0.24071 0.234484,0.38641 -0.08499,0.46902 -0.243694,0.29272 -0.253563,0.0993 -0.407598,-0.0821 h -2e-6 -10e-7 l -3e-6,10e-6 z m -4.148666,-2.46608 0.02672,-0.13148 0.07276,-0.1077 0.107686,-0.0728 0.131497,-0.0267 0.131497,0.0267 0.107687,0.0728 0.07276,0.10769 0.02672,0.13149 -0.02672,0.13149 -0.07276,0.1077 -0.107685,0.0728 -0.131499,0.0267 -0.131497,-0.0267 -0.107686,-0.0728 -0.07276,-0.10769 z"
       id="path3724"
       inkscape:connector-curvature="0"
       sodipodi:nodetypes="ccccccccccccccccccccccccccccccccccccccccccccccccccccccccccccccccccccccccccccccccccccccccccccccccccccccccccccccccccccccccccccccccccccccccccccccccccccccccccccccccccccccccccccccccccccccccccccccccccccccccccccccccccccccccccccccccccccccccccccccccccccccccccccccccccccccccccccccccccccccccccccccccccccccccccccccccccccccccccccccccccccccccccccccccccccccccccccccccccccccccccccccccccccccccccccccccccccccccccccccccccccccccccccccccscccccccccccccscccccccccccccccccccccccccccccccccccccccccccccccccccccccccccccccccccccccccccccccccccccccccccccccccccccccccccccccccccccccccccccccccccccccccccccccccccccccccccccsccccccccccccccccccc" />
  </g>
</svg>
