<?xml version="1.0" encoding="UTF-8" standalone="no"?>
<!-- Created with Inkscape (http://www.inkscape.org/) -->

<svg
   xmlns:dc="http://purl.org/dc/elements/1.1/"
   xmlns:cc="http://creativecommons.org/ns#"
   xmlns:rdf="http://www.w3.org/1999/02/22-rdf-syntax-ns#"
   xmlns:svg="http://www.w3.org/2000/svg"
   xmlns="http://www.w3.org/2000/svg"
   xmlns:sodipodi="http://sodipodi.sourceforge.net/DTD/sodipodi-0.dtd"
   xmlns:inkscape="http://www.inkscape.org/namespaces/inkscape"
   width="210mm"
   height="297mm"
   viewBox="0 0 210 297"
   version="1.1"
   id="svg8"
   inkscape:version="0.92.3 (2405546, 2018-03-11)"
   sodipodi:docname="tech1-flower.svg">
  <defs
     id="defs2" />
  <sodipodi:namedview
     id="base"
     pagecolor="#ffffff"
     bordercolor="#666666"
     borderopacity="1.0"
     inkscape:pageopacity="0.0"
     inkscape:pageshadow="2"
     inkscape:zoom="8.0831778"
     inkscape:cx="36.869762"
     inkscape:cy="128.07551"
     inkscape:document-units="mm"
     inkscape:current-layer="layer1"
     showgrid="false"
     inkscape:window-width="1459"
     inkscape:window-height="746"
     inkscape:window-x="40"
     inkscape:window-y="97"
     inkscape:window-maximized="0" />
  <metadata
     id="metadata5">
    <rdf:RDF>
      <cc:Work
         rdf:about="">
        <dc:format>image/svg+xml</dc:format>
        <dc:type
           rdf:resource="http://purl.org/dc/dcmitype/StillImage" />
        <dc:title />
      </cc:Work>
    </rdf:RDF>
  </metadata>
  <g
     inkscape:label="Layer 1"
     inkscape:groupmode="layer"
     id="layer1">
    <path
       style="fill:#000000;stroke-width:0.33866668"
       d="m 7.279458,262.09353 3.904946,-1.45846 6.471816,-1.49262 3.116675,-0.28312 4.432414,-0.0541 3.924582,0.24486 1.593178,0.0469 0.453912,0.0112 1.257187,0.0757 3.010035,0.49078 1.938051,0.65248 0.720655,0.38664 0.814663,0.34404 2.632427,1.84915 2.382302,4.61196 0.960659,6.26452 -0.286276,6.70885 -0.346807,1.61986 -0.344679,1.66277 -1.49428,5.25131 -2.766407,3.51728 -2.222351,1.91469 -2.161096,0.98615 -1.506716,0.58315 -0.880447,0.29774 -0.794679,0.1847 -0.670223,0.31138 -4.532586,0.80474 -3.950492,-0.004 -0.708705,-2e-5 -0.708705,-3.4e-4 -1.056859,-0.16769 -1.650584,-0.0619 -0.826673,-0.0164 -1.223092,-0.0253 -2.858825,-0.81511 -1.337408,-0.17079 -0.808578,-0.34888 -0.646818,-0.32051 L 7.8878246,294.20028 4.383508,291.9525 2.7156517,289.90758 1.810514,288.03138 1.659068,287.32802 1.507622,286.62465 0.93429012,277.60769 1.978592,268.49365 m 0.7171421,-0.26343 -0.7188629,3.81013 -0.5795381,4.81428 0.1798017,5.35049 0.3364321,3.62799 0.5996992,2.20775 0.3830825,0.92646 0.9555392,1.71318 2.4326368,2.13931 2.3849996,1.22685 1.5677858,0.7789 c 0.514367,0.71807 2.128233,0.81068 2.899709,1.18247 l 2.292147,0.48851 4.333203,0.60247 7.753312,-0.0175 3.142874,-0.51333 2.250091,-0.91856 1.547709,-0.37997 1.460852,-0.72458 1.660315,-0.97323 2.882638,-2.59498 1.876701,-2.61994 0.48177,-1.83689 0.600522,-2.1119 0.928628,-6.69014 -0.139861,-5.95947 -1.364354,-5.52031 -2.301744,-3.39925 -2.224446,-1.50072 -2.345863,-0.95844 -1.988137,-0.34626 -0.97528,-0.26844 -5.234144,-0.44042 -7.863267,0.008 -4.786843,0.77032 -4.915125,1.1865 -2.0446244,0.83626 -1.7964423,1.40699 -2.1305561,2.41075 z m 38.2858619,11.48013 0.286221,-1.29911 -0.08611,-2.76908 0.04795,-3.17113 -0.15056,-1.04868 -0.361985,-1.15265 -0.606192,-0.99644 -0.917808,-0.23025 -0.71434,0.0995 -0.297115,0.23919 -0.193095,0.23918 -0.46425,0.0995 -0.525735,0.0995 -0.34092,0.23919 -0.354241,0.18058 -0.512413,0.15809 -0.328672,0.15756 -0.328673,0.15755 -0.282443,0.21743 -0.479557,0.2059 -0.605362,0.30258 -0.0506,0.99098 0.185233,5.02176 -0.262463,3.85665 -0.176643,0.86233 -0.176644,0.86232 1.173942,1.07457 1.173943,1.07457 1.794263,1.51782 1.016832,0.63131 0.922106,-0.47304 0.508724,-0.85743 0.005,-0.30352 0.14469,-0.15383 0.14469,-0.18157 0.005,-0.50288 0.07177,-0.0298 0.384487,-1.25989 -0.01444,-0.93428 0.04302,-1.42323 m 0.854939,1.28089 -0.556035,2.90974 -1.175348,2.40286 -2.03832,0.30011 -3.379574,-2.94825 -1.137096,-1.03061 -0.705413,0.0176 -0.668606,0.74743 0.318248,0.79171 1.858876,2.78364 1.102802,2.62852 -1.189133,1.72629 -4.500203,1.27182 -4.198945,0.29484 -5.013052,-0.32524 -2e-6,4e-5 -2.7e-5,-1e-5 -7.262041,-1.4002 -2.220625,-1.70651 0.562726,-1.20853 1.352939,-1.96346 1.563118,-2.25323 -0.09635,-1.08661 -0.921741,-0.79834 -1.284674,0.42659 -3.6268264,2.12212 -2.7296796,1.1362 -1.234199,-1.07369 -0.717533,-3.91353 0.070095,-7.89145 1.6650544,-6.12702 0.5710451,-0.49065 1.1126039,-0.14633 0.9483179,0.0827 0.3944331,0.19877 0.2735791,0.33805 0.6577539,0.41754 1.0659336,0.66007 1.254946,0.92116 1.070605,0.77856 0.622729,0.31725 1.177625,-0.74634 0.396161,-0.84373 -0.298974,-0.24663 -0.124359,-0.38452 -0.29845,-0.75291 -0.71755,-1.13235 -0.789812,-1.41242 -0.226188,-1.43705 0.180826,-1.29484 1.054729,-0.55985 7.231254,-1.12856 8.29719,0.26383 5.191399,0.85304 0.727736,0.99803 -0.199845,0.87932 -0.469957,0.86025 -0.469941,0.66805 -0.19986,0.41722 -0.229157,0.41227 -0.540375,0.65615 -1.539594,1.97821 0.615085,1.12361 0.966378,0.35017 2.504955,-1.11619 2.925395,-1.25146 1.995729,-0.22752 1.16807,0.9889 0.454415,2.01134 0.122487,1.30427 -0.02785,1.27922 -0.0032,0.85541 -0.02213,1.11369 -0.234917,2.66211 -0.234917,2.66211 v 0 0 m -10.146169,11.5019 0.443855,-0.20916 0.615346,-0.087 1.393857,-1.37774 -1.642009,-3.34917 -1.265085,-1.34063 -1.014107,-0.36713 -0.748561,0.0992 -0.50858,0.23849 -4.073776,0.54453 -5.376006,-0.19287 -3.89529,-0.50855 -1.98242,2.07403 -1.431589,2.09233 0.375847,0.7957 1.055724,0.51487 1.570307,0.43627 1.616541,0.34688 1.16688,0.29996 1.343247,0.21108 2.040574,0.13316 1.836094,0.0991 0.85163,0.12917 3.786606,-0.0767 3.840915,-0.50581 z m -2.523066,-7.51382 3.413832,-3.00281 0.988834,-5.48514 -0.183748,-1.39027 -0.183748,-1.39028 -0.593944,-0.89839 -0.593944,-0.89839 -1.212157,-1.26523 -0.921443,-0.46473 -0.528881,-0.12052 -0.459602,-0.28975 -1.51647,-0.31436 -3.885263,-0.10897 -4.399031,0.10397 -1.660715,0.64496 -0.84613,0.53816 -0.534168,0.22384 -1.121101,0.90832 -1.162118,1.97035 -0.421318,1.73829 -0.123357,2.54288 0.167215,2.65884 0.740519,1.62553 1.920365,1.7968 3.125707,1.28249 5.241018,0.49029 z m -8.297333,-2.82505 -0.682117,-0.14389 -0.688834,-0.14478 -1.500153,-1.59814 -0.684896,-2.95509 0.871463,-2.93564 4.012932,-1.0955 3.56925,0.0125 2.296651,0.94599 0.867676,2.02552 0.0539,2.60389 -0.899196,2.58046 -1.484941,0.2897 0.798828,0.1514 -1.406172,0.31094 -2.478283,0.23964 -2.646111,-0.28694 v 0 z m 6.519333,-1.69073 0.609369,-1.06579 0.152631,-1.7577 -0.982087,-2.94873 -3.696627,-0.78002 -4.368745,0.91042 -1.030316,2.96937 1.213945,2.5204 3.073844,1.08234 3.209882,0.005 1.818104,-0.93525 z m -17.855906,3.74269 2.85402,-2.02612 -0.01342,-1.4345 -0.467658,-3.19053 0.291952,-2.81594 0.280162,-0.54166 0.24811,-0.85052 -0.05632,-1.07448 -1.347331,-1.09299 -1.3639141,-0.96643 -0.9917529,-0.78302 -0.7904045,-0.44927 -0.9021965,-0.0926 -0.939816,0.46614 -0.838711,1.84576 -0.6767959,2.64493 -0.1706031,4.29773 0.3500031,5.8514 1.2868859,1.7686 1.2496169,-0.45722 1.9981761,-1.09929 z m 8.50634,-15.5712 1.720571,-0.3962 3.935276,0.0432 3.652287,0.15624 2.286277,0.12281 1.118929,-0.0618 0.574404,-0.51175 0.497563,-0.68322 0.662895,-0.69824 1.189296,-1.52899 0.570068,-1.45427 -1.553219,-0.90755 -6.913448,-0.15291 -8.724222,0.28596 -3.151523,0.75875 -0.01151,1.55743 1.302858,2.59333 1.234468,1.31564 1.609035,-0.43845 z m -15.931492,-0.35533 0.7523878,-1.44489 1.4158032,-2.00021 0.6675904,-0.73082 0.6468946,-0.6875 0.981626,-0.85072 0.836564,-0.68597"
       id="path3724"
       inkscape:connector-curvature="0"
       sodipodi:nodetypes="cccccccccccccccccccccccccccccccccccccccccccccccccccccccccccccccccccccccccccccccccccccccccccccccccccccccccccccccccccccccccccccccccccccccccccccccccccccccccccccccccccccccccccccccccccccccccccccccccccccccccccccccccccccccccccccccccccccccccscsccccccccccccccccccccccccccccccccccccccccccccccccccccccccccccccccccccccccccccccccccccccccccccccccccccc" />
  </g>
</svg>
