<?xml version="1.0" encoding="UTF-8" standalone="no"?>
<!-- Created with Inkscape (http://www.inkscape.org/) -->

<svg
   xmlns:dc="http://purl.org/dc/elements/1.1/"
   xmlns:cc="http://creativecommons.org/ns#"
   xmlns:rdf="http://www.w3.org/1999/02/22-rdf-syntax-ns#"
   xmlns:svg="http://www.w3.org/2000/svg"
   xmlns="http://www.w3.org/2000/svg"
   xmlns:sodipodi="http://sodipodi.sourceforge.net/DTD/sodipodi-0.dtd"
   xmlns:inkscape="http://www.inkscape.org/namespaces/inkscape"
   width="210mm"
   height="297mm"
   viewBox="0 0 210 297"
   version="1.1"
   id="svg8"
   inkscape:version="0.92.3 (2405546, 2018-03-11)"
   sodipodi:docname="Tech2-Pyramid.svg">
  <defs
     id="defs2" />
  <sodipodi:namedview
     id="base"
     pagecolor="#ffffff"
     bordercolor="#666666"
     borderopacity="1.0"
     inkscape:pageopacity="0.0"
     inkscape:pageshadow="2"
     inkscape:zoom="3.4436852"
     inkscape:cx="109.31947"
     inkscape:cy="88.897663"
     inkscape:document-units="mm"
     inkscape:current-layer="layer1"
     showgrid="false"
     inkscape:window-width="1471"
     inkscape:window-height="780"
     inkscape:window-x="78"
     inkscape:window-y="50"
     inkscape:window-maximized="0" />
  <metadata
     id="metadata5">
    <rdf:RDF>
      <cc:Work
         rdf:about="">
        <dc:format>image/svg+xml</dc:format>
        <dc:type
           rdf:resource="http://purl.org/dc/dcmitype/StillImage" />
        <dc:title />
      </cc:Work>
    </rdf:RDF>
  </metadata>
  <g
     inkscape:label="Layer 1"
     inkscape:groupmode="layer"
     id="layer1">
    <path
       id="path3724"
       style="fill:#000000;stroke-width:0.33866668"
       d="m 1.5985501,297.49245 -0.8562728,-0.30101 -0.42256823,-1.01835 -0.0852392,-2.3808 0.15571422,-4.38837 0.0759889,-3.13027 -0.007962,-2.97054 -0.0436715,-2.41905 -0.0311408,-1.4758 5.3723e-4,-0.9737 0.008364,-1.11664 0.0806701,-1.28152 0.21745489,-1.46829 0.0681644,-0.41588 0.0875197,-0.63165 0.0955974,-0.76162 0.0923975,-0.80577 0.3113706,-1.71106 0.811787,-0.92981 1.8447675,-0.41895 3.4103119,-0.17849 1.2285766,-0.0417 1.2285766,-0.0417 1.2285759,-0.0417 1.228577,-0.0417 0.01212,-1.57582 0.01212,-1.57583 0.01212,-1.57582 0.01212,-1.57583 0.06161,-6.82272 0.07873,-3.68753 0.138188,-1.58066 0.239991,-0.5021 0.956535,-0.21387 3.172587,-0.0454 6.723612,0.13509 11.609608,0.32772 2.363457,0.0959 2.304322,0.13912 1.981265,0.16368 1.394286,0.16962 0.613835,0.10084 0.613835,0.10083 0.613835,0.10084 0.613835,0.10083 0.0067,0.30065 0.0067,0.30065 0.0067,0.30065 0.0067,0.30065 0.01967,0.5872 0.03379,0.70981 0.04318,0.74296 0.04784,0.68663 0.04888,1.09194 0.046,1.84653 0.03795,2.34309 0.02473,2.58165 0.04074,2.74215 0.08223,2.02922 0.121763,1.28464 0.159346,0.50838 0.492352,0.0935 1.071213,0.088 1.492211,0.0727 1.755344,0.0475 1.796361,0.0581 1.603886,0.10168 1.23649,0.13094 0.694175,0.14586 0.221035,0.09 0.221035,0.09 0.221035,0.09 0.221035,0.09 -0.0094,3.34669 -0.0094,3.3467 -0.0094,3.34669 -0.0094,3.34669 -0.03865,5.68205 -0.07799,4.25946 -0.113704,2.70519 -0.145792,1.01928 -0.465536,0.091 -1.017192,0.0413 -1.418828,-0.0103 -1.670446,-0.0638 -2.63247,-0.0713 -4.038203,-0.0307 -4.893866,0.0112 -5.199461,0.0542 -11.338669,0.13302 -10.846612,0.0724 -8.320321,0.004 -3.7598001,-0.073 -8.1e-6,-10e-6 -8.1e-6,-1e-5 -8.2e-6,-2e-5 z m 54.3490039,-1.01847 0.262957,-0.59826 0.114567,-1.78506 0.04212,-3.79799 0.04562,-6.637 0.02665,-4.90333 -0.0086,-4.04587 -0.117701,-2.38457 -0.07005,-1.07193 -0.771438,-0.24716 -1.91888,-0.18968 -3.317034,-0.14838 -4.9659,-0.12329 -4.973382,-0.13332 -2.735739,-0.13434 -1.243325,-0.11302 -0.49614,-0.0693 -0.0016,-0.47352 0.138827,0.50302 0.789844,0.55213 0.680268,0.49666 0.764871,0.62295 0.755824,0.66964 0.653127,0.63672 0.805555,0.79078 0.641958,0.4319 0.101986,0.33404 1.029599,0.0363 2.475244,0.12367 2.653255,0.31024 2.211841,0.40566 1.458326,0.71727 0.255744,0.50235 0.155029,1.1356 0.07664,2.07862 0.02058,3.33143 -0.01917,3.48211 -0.0805,2.07174 -0.17631,1.08538 -0.306598,0.52305 -0.307326,0.69148 -0.794521,0.20211 -1.290728,0.13761 -1.948987,0.0995 -0.978005,0.0374 -0.978005,0.0374 -0.978005,0.0374 -0.876846,-0.14841 -0.315682,0.37028 -0.315683,0.37028 -0.315682,0.37027 -0.315683,0.37028 -0.517017,0.57582 -0.474269,0.47297 -0.378977,0.3212 -0.231137,0.12053 -0.236471,0.083 -0.3935,0.21926 -0.495764,0.32212 -0.543265,0.39161 -0.332582,0.25165 -0.332583,0.25164 -0.332582,0.25165 -0.332583,0.25164 0.879561,-0.12882 1.517915,0.007 1.517915,0.007 1.517915,0.007 2.489925,0.0266 2.292394,0.0374 1.842484,0.0211 1.140197,-0.0223 0.919087,-0.0626 0.353616,-7.3e-4 0.548144,0.0137 1.502671,-0.0194 0.63401,0.01 0.634011,0.01 0.63401,0.01 z m -35.774889,-0.10017 -0.230493,-0.31507 -0.401067,-0.463 -0.532749,-0.56297 -0.591327,-0.62131 -0.56056,-0.62186 -0.466541,-0.55023 -0.30927,-0.40641 -0.389019,-0.22805 -0.58645,-0.0966 -1.381993,-0.0398 -2.666988,-0.14196 -2.6170879,-0.14022 -1.5071381,-0.15732 -1.1312201,-0.23534 -0.3368621,-0.91213 -0.1502813,-0.75044 -0.085471,-1.5676 -0.020618,-2.38317 0.044277,-3.19713 0.1446934,-5.23186 0.1251911,-2.98493 2.0813822,-0.78682 3.4778288,-0.0205 1.124397,0.01 1.124397,0.01 1.124397,0.01 1.201229,0.16366 0.461893,-0.4731 0.461893,-0.4731 0.461893,-0.4731 0.461893,-0.4731 0.755634,-0.73478 0.691635,-0.60173 0.551106,-0.40657 0.334042,-0.14932 0.235457,-0.0522 0.28268,-0.142 0.294368,-0.21017 v 0 l -0.839221,-0.061 -3.45846,0.0686 -6.319543,0.18724 -4.6017245,0.22893 -2.8153966,0.26606 -0.9605616,0.29861 -0.628877,0.94902 -0.2385743,1.77578 -0.2321446,1.83765 -0.1111006,1.61317 0.00742,1.08504 0.029537,0.98029 0.032326,0.89834 0.015786,0.83918 0.1069157,1.07701 0.00171,1.65363 -0.080587,2.21537 -0.1399802,2.76222 -0.111012,2.4423 -0.060193,2.1224 -0.00534,1.57483 0.053549,0.79957 0.1927104,0.46432 0.5201933,0.25701 1.2087493,0.13068 2.258378,0.0853 3.3038721,0.0425 4.5125046,-0.006 4.366134,-0.0463 2.063425,-0.0243 z m 13.12724,-0.347 2.872004,-1.20126 2.500535,-1.62108 2.019416,-1.95418 1.428645,-2.20053 0.468986,-1.58706 0.216282,-2.03626 -0.05162,-2.10335 -0.334725,-1.78831 -1.138795,-3.14023 -1.198247,-2.28358 -1.451992,-1.72047 -1.900026,-1.4509 -2.280808,-1.39692 -1.798233,-0.81033 -1.898015,-0.41716 -2.580154,-0.21736 -1.513341,-0.0562 -1.093688,0.10888 -1.089007,0.36373 -1.499298,0.70842 -1.563058,0.84216 -1.101496,0.73751 -0.814968,0.69556 -0.703472,0.71634 -0.158813,0.20624 -0.234481,0.37291 -0.303067,0.54768 -0.364574,0.73055 -0.619464,1.03776 -0.539813,1.15677 -0.427551,1.16527 -0.282679,1.06328 -0.178902,1.67257 -0.0551,2.25439 0.06709,2.23352 0.282749,1.1346 0.246848,0.90008 0.150909,0.59749 0.256585,0.53328 0.06135,0.31354 0.203575,0.34939 0.200078,0.38561 0.177915,0.33658 0.204512,0.31949 0.08157,0.12525 0.0996,0.0766 0.191546,0.16126 0.331908,0.35561 0.425621,0.49742 0.472681,0.58671 1.453363,1.48978 1.743352,0.93516 2.34408,0.48878 3.255545,0.15066 1.729816,-0.0228 1.59825,-0.0766 1.288885,-0.11831 0.801719,-0.14804 h -5e-6 -5e-6 -5e-6 z m -9.341543,-4.80084 -1.545508,-1.25606 -1.394596,-1.66475 -1.105673,-2.15407 -0.475012,-2.65603 0.0054,-1.45352 0.154256,-1.04487 0.137296,-0.82507 0.253265,-0.64473 0.300749,-0.66293 0.32316,-0.59132 0.395193,-0.47773 0.523156,-0.61798 0.883262,-0.82772 1.388002,-0.79188 1.480513,-0.53763 1.513928,-0.43168 1.447506,-0.25672 1.430645,0.0688 1.205288,0.20516 2.352115,0.66233 1.900029,1.46507 1.516313,1.34654 1.028098,1.82419 0.336191,1.69022 0.06782,1.74132 -0.02061,1.56559 -0.140398,1.02862 -0.273599,0.42114 -0.06761,0.18733 -0.07771,0.17849 -0.111829,0.24092 -0.339847,1.07229 -0.968371,1.29759 -1.3368,1.09906 -1.105582,0.66685 -0.48405,0.24945 -0.487198,0.20889 -0.380885,0.13127 -0.803467,0.27469 -1.554422,0.24717 -1.927416,-0.004 -1.924734,-0.19993 z m 6.914853,-0.19305 0.308506,-0.15132 0.405269,-0.19088 0.449399,-0.20597 0.440896,-0.19665 2.035582,-1.20533 1.424824,-1.5802 0.645542,-2.01145 0.235558,-1.78842 0.06176,-1.74094 -0.230545,-0.90933 -0.474297,-0.85539 -0.746335,-1.07978 -1.459507,-1.37783 -1.449699,-1.15181 -1.919405,-0.62711 -2.177145,-0.20711 -0.963992,0.0353 -0.819809,0.14605 -0.723111,0.22471 -0.673898,0.27126 -0.972131,0.6496 -1.139341,1.04642 -1.026678,1.25684 -0.634141,1.28085 -0.240138,1.59896 0.06705,1.77273 0.347793,1.72359 0.602082,1.45151 0.778921,1.11662 0.930942,1.00245 0.940172,0.75422 0.806617,0.37193 0.369886,0.0777 0.506411,0.1129 0.576264,0.13303 0.579439,0.13802 1.166627,0.25506 0.830204,0.10118 0.616104,-0.0482 z m -2.29059,-3.00872 -1.453722,-0.60754 -1.306281,-1.17081 -0.941964,-1.47851 -0.360773,-1.53064 0.05261,-0.4269 0.142335,-0.51237 0.210334,-0.53341 0.256609,-0.49007 1.480655,-1.44432 2.372895,-0.47685 2.477256,0.21192 2.065374,1.31464 0.541971,0.97536 0.230771,1.30716 -0.09353,1.44417 -0.43094,1.31846 -0.852677,1.04646 -1.245045,0.73356 -1.507084,0.36848 z m 3.410578,-1.65323 0.656988,-0.71839 0.447668,-1.0096 0.193658,-1.1474 -0.240862,-1.11825 -0.628686,-0.84142 -0.833935,-0.60261 -1.161967,-0.43931 -1.205322,-0.069 -1.087194,0.20733 -1.041053,0.59277 -0.717755,0.78064 -0.324892,0.72791 -0.08769,0.71879 -0.0083,0.41943 0.06636,0.36888 0.149792,0.29553 0.245342,0.43297 0.3325,0.4187 0.363969,0.41896 0.23109,0.27079 0.367521,0.31358 0.522785,0.30823 0.582189,0.25721 0.695133,0.14692 0.63095,0.005 0.594283,-0.14536 0.612521,-0.27491 z m -16.880896,3.94868 0.0773,-0.28568 -0.101803,-0.44977 -0.175664,-0.71725 -0.250958,-0.81687 -0.544703,-2.55026 -0.02719,-2.75376 0.477867,-2.80375 0.970479,-2.70025 0.195551,-0.44653 0.143072,-0.38182 0.461197,-0.3534 -0.386757,-0.0539 -0.602405,-0.10737 -0.975153,-0.15693 -1.815842,-0.0413 -1.972001,0.009 -1.2530107,0.0449 -0.7006498,0.12089 -0.3414256,0.26921 -0.1753378,0.48981 -0.2382558,2.12594 -0.1625245,3.48217 -0.051304,3.65402 0.095405,2.64145 0.054909,0.52917 0.054909,0.52916 0.054909,0.52917 0.054909,0.52917 h 0.9195977 0.9195977 0.9195978 0.919598 l 1.443928,-0.0254 1.212302,-0.0691 0.541074,-0.0751 z m 34.380498,-0.41045 0.198599,-0.4883 0.130782,-1.15964 0.07125,-1.95882 0.02,-2.88584 -0.02171,-2.41338 -0.0551,-2.03277 -0.0802,-1.4384 -0.097,-0.63027 -0.384686,-0.16434 -0.872619,-0.15559 -1.265117,-0.13392 -1.562178,-0.0993 -1.938215,-0.0694 -1.199092,0.02 -0.242753,0.0751 -0.144836,0.19203 0.0339,0.19221 0.137727,0.20982 0.08148,0.22753 0.134093,0.18772 0.142719,0.21803 0.120642,0.29584 0.11204,0.31099 0.116913,0.26348 0.178372,0.29894 0.0905,0.1453 0.09988,0.21483 0.20651,0.50753 0.137884,0.35665 0.166413,0.5175 0.224999,0.84873 0.31364,1.35035 0.108608,1.11246 0.04805,0.93764 -0.01245,1.03111 -0.0729,1.39287 -0.180214,1.02626 -0.12417,0.86383 -0.05697,0.6106 0.02139,0.26657 0.338582,0.3046 1.987551,-0.003 2.005066,-0.1263 1.082608,-0.2193 h 3e-6 3e-6 3e-6 z m -27.911248,-23.78625 0.928161,-0.87782 0.79878,-0.75554 0.584228,-0.55269 0.570351,-0.56387 v 0 l 0.587872,-0.62158 0.804169,-0.8575 0.934742,-1.00232 0.588758,-0.63295 0.588757,-0.63295 0.588758,-0.63296 0.588757,-0.63295 1.388317,0.30498 0.235845,0.30498 0.235845,0.30497 0.235845,0.30498 0.526865,0.65735 0.737169,0.88803 0.849741,1.00229 0.864585,1.00014 0.870084,1.01688 0.864704,1.04788 0.759309,0.9555 0.553903,0.73975 0.253253,0.35803 0.253252,0.35802 0.253253,0.35803 0.253252,0.35802 0.229676,0.30933 0.613832,0.002 0.613833,0.002 0.613832,0.002 0.854449,-4e-5 0.385043,-0.005 0.188935,-0.006 0.266127,-0.003 0.268939,0.005 0.379761,0.002 0.386193,-0.021 0.235259,-0.1024 0.0456,-0.1836 -0.183736,-0.54497 -0.420778,-0.76939 -0.462173,-0.73618 -0.307923,-0.44529 -0.920355,-1.01859 -1.969416,-2.17707 -2.233356,-2.53738 -1.712173,-2.09957 -1.408962,-1.68551 -1.826526,-1.93114 -1.675742,-1.60322 -0.495621,-0.62491 -0.296926,0.11089 0.0025,0.12278 -0.55747,0.54062 -0.593892,0.67292 -1.228522,1.36404 -1.132574,1.08002 -0.884541,0.76045 -0.484422,0.40534 -0.3209,0.32357 -0.437453,0.47205 -0.444224,0.49912 -0.341209,0.40481 -0.688407,0.85368 -1.274048,1.56231 -1.815063,2.10042 -2.311453,2.46803 -0.821862,0.8646 -0.673034,0.75853 -0.454753,0.5706 -0.167018,0.30083 -0.250571,0.0582 0.586244,0.10638 0.894559,0.0697 1.135362,0.025 h 0.706647 0.706646 0.706647 l -0.06167,-0.30733 0.58452,-0.55279 0.58452,-0.55279 0.58452,-0.55279 z m 14.790398,2.24871 -0.494358,-0.85486 -1.321315,-1.67361 -1.905636,-2.20102 -2.247321,-2.43709 -0.19787,-0.20809 -0.19787,-0.20809 -0.19787,-0.20809 -0.19787,-0.20809 -0.932988,0.94589 -0.932987,0.94589 -0.932988,0.9459 -0.932987,0.94589 -1.449041,1.49677 -1.18664,1.27842 -0.801785,0.92442 -0.294474,0.43475 0.453204,0.15218 1.348006,0.10977 2.225401,0.0665 3.085389,0.0223 2.761456,-0.0213 2.261394,-0.058 1.527969,-0.0858 z m -20.017194,-3.93158 0.432299,-0.50001 0.432299,-0.50001 0.04814,-0.5 0.432299,-0.50001 v -0.64532 -0.64532 -0.64532 -0.64532 l 0.10538,-1.97234 0.283846,-1.71758 1.06694,-0.66379 1.071695,-0.19394 1.530729,-0.009 0.552882,0.0255 0.260451,0.002 0.653439,-0.0786 0.756193,-0.13589 0.761469,0.1061 0.802063,-0.70914 1.108469,-1.19866 0.777227,-0.90228 0.610544,-0.76482 0.536359,-0.23927 0.09368,-0.24762 -2.150683,-0.20955 -4.536242,-0.17623 -4.663824,-0.08 -2.533428,0.0791 -0.214958,0.0539 -0.214957,0.054 -0.214958,0.054 0.1692,0.054 -0.195413,1.66245 -0.04175,1.96978 -0.04175,1.96978 -0.04175,1.96978 -0.05165,3.09479 -0.01718,2.6019 0.01729,1.83574 0.05175,0.79628 0.142627,0.26401 -0.06311,-0.1558 0.776225,-0.82231 1.50816,-1.73552 v 2e-5 1e-5 10e-6 z m 26.741358,-12.17161 -0.209569,-0.26081 -1.912934,-0.22749 -3.672783,-0.25786 -3.885671,-0.1221 -0.454237,-0.004 -0.454238,-0.004 -0.454237,-0.004 -0.454238,-0.004 0.151708,0.23153 0.151707,0.23153 0.151707,0.23154 0.151708,0.23153 -0.0581,-0.23413 0.439194,0.56062 0.494811,0.59286 0.49291,0.55407 0.47719,0.52497 0.452011,0.51365 1.597411,0.38574 v 0 l 0.836042,0.16464 1.125917,0.12496 0.61259,0.0514 0.61259,0.0514 0.61259,0.0514 1.227242,0.12824 -0.06933,1.10803 0.0075,0.26288 0.0075,0.26289 0.0075,0.26289 0.0077,0.52945 -0.0015,0.66422 -0.0099,0.71413 -0.01754,0.67914 0.129577,1.2052 -0.08396,1.11092 1.018309,1.30976 0.900937,1.72492 0.323032,0.29598 0.323033,0.29598 0.323032,0.29598 0.323033,0.29598 0.0229,-1.79874 0.0229,-1.79874 0.0229,-1.79873 0.0229,-1.79874 0.02544,-3.60698 -0.04556,-2.27313 0.01742,-1.10181 v 0 0 z m -21.900288,6.47534 0.729994,-0.9509 0.172033,-0.59632 -0.40344,-0.31033 -0.996423,-0.093 -0.612169,0.0566 -0.370381,0.27481 -0.222246,0.63697 -0.167763,1.14309 -0.01204,0.93544 0.285496,0.2869 0.616366,-0.36451 z m 18.224124,-0.26237 v -0.33867 -0.33867 -0.33866 -0.33867 H 39.07629 38.732625 38.38896 38.045295 l -0.830825,0.0304 -0.297319,0.19878 0.218743,0.52871 0.717361,1.02014 0.605072,0.70513 0.399654,0.12444 0.288966,-0.39618 z"
       inkscape:connector-curvature="0"
       sodipodi:nodetypes="ccccccccccccccccccccccccccccccccccccccccccccccccccccccccccccccccccccccccccccccccccccccccccccccccccccccccccccccccccccccccccccccccccccccccccccccccccccccccccccccccccccccccccccccccccccccccccccccccccccccccccccccccccccccccccccccccccccccccccccccccccccccccccccccccccccccccccccccccccccccccccccccccccccccccccccccccccccccccccccccccccccccccccccccccccccccccccccccccccccccccccccccccccccccccccccccccccccccccccccccccccccccccccccccccccccccccccccccccccccccccccccccccccccccccccccccccccccccccccccccccccccccccccccccccccccccccccccccccccccccccccccccccccccccccccccccccccccccccccccccccccccccccccccccccccccccccccccccccccccccccccccccccccccccccccccccccccccccccccccccccccccccccccccccccccccccccccccccccccccccccccccccccccccccccccccccccccccccccccccccccccccccccccccccccccccccccccccccccccccccccccccccccccccccc" />
  </g>
</svg>
