  0
SECTION
  2
HEADER
  9
$ACADVER
  1
AC1014
  9
$HANDSEED
  5
FFFF
  9
$MEASUREMENT
 70
     1
  0
ENDSEC
  0
SECTION
  2
TABLES
  0
TABLE
  2
VPORT
  5
8
330
0
100
AcDbSymbolTable
 70
     4
  0
VPORT
  5
2E
330
8
100
AcDbSymbolTableRecord
100
AcDbViewportTableRecord
  2
*ACTIVE
 70
     0
 10
0.0
 20
0.0
 11
1.0
 21
1.0
 12
210.0
 22
148.5
 13
0.0
 23
0.0
 14
10.0
 24
10.0
 15
10.0
 25
10.0
 16
0.0
 26
0.0
 36
1.0
 17
0.0
 27
0.0
 37
0.0
 40
341.0
 41
1.24
 42
50.0
 43
0.0
 44
0.0
 50
0.0
 51
0.0
 71
     0
 72
   100
 73
     1
 74
     3
 75
     0
 76
     0
 77
     0
 78
     0
  0
ENDTAB
  0
TABLE
  2
LTYPE
  5
5
330
0
100
AcDbSymbolTable
 70
     1
  0
LTYPE
  5
14
330
5
100
AcDbSymbolTableRecord
100
AcDbLinetypeTableRecord
  2
BYBLOCK
 70
     0
  3

 72
    65
 73
     0
 40
0.0
  0
LTYPE
  5
15
330
5
100
AcDbSymbolTableRecord
100
AcDbLinetypeTableRecord
  2
BYLAYER
 70
     0
  3

 72
    65
 73
     0
 40
0.0
  0
LTYPE
  5
16
330
5
100
AcDbSymbolTableRecord
100
AcDbLinetypeTableRecord
  2
CONTINUOUS
 70
     0
  3
Solid line
 72
    65
 73
     0
 40
0.0
  0
ENDTAB
  0
TABLE
  2
LAYER
  5
2
100
AcDbSymbolTable
 70
2
  0
LAYER
  5
50
100
AcDbSymbolTableRecord
100
AcDbLayerTableRecord
  2
0
 70
0
  6
CONTINUOUS
  0
LAYER
  5
51
100
AcDbSymbolTableRecord
100
AcDbLayerTableRecord
  2
Layer_1
 70
0
  6
CONTINUOUS
  0
ENDTAB
  0
TABLE
  2
STYLE
  5
3
330
0
100
AcDbSymbolTable
 70
     1
  0
STYLE
  5
11
330
3
100
AcDbSymbolTableRecord
100
AcDbTextStyleTableRecord
  2
STANDARD
 70
     0
 40
0.0
 41
1.0
 50
0.0
 71
     0
 42
2.5
  3
txt
  4

  0
ENDTAB
  0
TABLE
  2
VIEW
  5
6
330
0
100
AcDbSymbolTable
 70
     0
  0
ENDTAB
  0
TABLE
  2
UCS
  5
7
330
0
100
AcDbSymbolTable
 70
     0
  0
ENDTAB
  0
TABLE
  2
APPID
  5
9
330
0
100
AcDbSymbolTable
 70
     2
  0
APPID
  5
12
330
9
100
AcDbSymbolTableRecord
100
AcDbRegAppTableRecord
  2
ACAD
 70
     0
  0
ENDTAB
  0
TABLE
  2
DIMSTYLE
  5
A
330
0
100
AcDbSymbolTable
 70
     1
  0
DIMSTYLE
105
27
330
A
100
AcDbSymbolTableRecord
100
AcDbDimStyleTableRecord
  2
ISO-25
 70
     0
  3

  4

  5

  6

  7

 40
1.0
 41
2.5
 42
0.625
 43
3.75
 44
1.25
 45
0.0
 46
0.0
 47
0.0
 48
0.0
140
2.5
141
2.5
142
0.0
143
0.03937007874016
144
1.0
145
0.0
146
1.0
147
0.625
 71
     0
 72
     0
 73
     0
 74
     0
 75
     0
 76
     0
 77
     1
 78
     8
170
     0
171
     3
172
     1
173
     0
174
     0
175
     0
176
     0
177
     0
178
     0
270
     2
271
     2
272
     2
273
     2
274
     3
340
11
275
     0
280
     0
281
     0
282
     0
283
     0
284
     8
285
     0
286
     0
287
     3
288
     0
  0
ENDTAB
  0
TABLE
  2
BLOCK_RECORD
  5
1
330
0
100
AcDbSymbolTable
 70
     1
  0
BLOCK_RECORD
  5
1F
330
1
100
AcDbSymbolTableRecord
100
AcDbBlockTableRecord
  2
*MODEL_SPACE
  0
BLOCK_RECORD
  5
1B
330
1
100
AcDbSymbolTableRecord
100
AcDbBlockTableRecord
  2
*PAPER_SPACE
  0
ENDTAB
  0
ENDSEC
  0
SECTION
  2
BLOCKS
  0
BLOCK
  5
20
330
1F
100
AcDbEntity
  8
0
100
AcDbBlockBegin
  2
*MODEL_SPACE
 70
     0
 10
0.0
 20
0.0
 30
0.0
  3
*MODEL_SPACE
  1

  0
ENDBLK
  5
21
330
1F
100
AcDbEntity
  8
0
100
AcDbBlockEnd
  0
BLOCK
  5
1C
330
1B
100
AcDbEntity
 67
     1
  8
0
100
AcDbBlockBegin
  2
*PAPER_SPACE
  1

  0
ENDBLK
  5
1D
330
1B
100
AcDbEntity
 67
     1
  8
0
100
AcDbBlockEnd
  0
ENDSEC
  0
SECTION
  2
ENTITIES
  0
LWPOLYLINE
  5
100
100
AcDbEntity
  8
Layer_1
 62
7
100
AcDbPolyline
 90
96
 70
1
 10
4.531323
 20
-1.395921
 30
0.0
 10
2.104093
 20
-0.542665
 30
0.0
 10
0.906262
 20
2.343997
 30
0.0
 10
0.664639
 20
9.092721
 30
0.0
 10
1.106034
 20
21.532195
 30
0.0
 10
1.321435
 20
30.405402
 30
0.0
 10
1.298866
 20
38.825830
 30
0.0
 10
1.175073
 20
45.682980
 30
0.0
 10
1.086799
 20
49.866350
 30
0.0
 10
1.088322
 20
52.626444
 30
0.0
 10
1.112031
 20
55.791723
 30
0.0
 10
1.340702
 20
59.424378
 30
0.0
 10
1.957110
 20
63.586460
 30
0.0
 10
2.150332
 20
64.765332
 30
0.0
 10
2.398419
 20
66.555836
 30
0.0
 10
2.669404
 20
68.714759
 30
0.0
 10
2.931318
 20
70.998831
 30
0.0
 10
3.813943
 20
75.849080
 30
0.0
 10
6.115072
 20
78.484762
 30
0.0
 10
11.344334
 20
79.672337
 30
0.0
 10
21.011360
 20
80.178293
 30
0.0
 10
24.493939
 20
80.296498
 30
0.0
 10
27.976519
 20
80.414702
 30
0.0
 10
31.459096
 20
80.532907
 30
0.0
 10
34.941677
 20
80.651112
 30
0.0
 10
34.976032
 20
85.118003
 30
0.0
 10
35.010388
 20
89.584923
 30
0.0
 10
35.044744
 20
94.051814
 30
0.0
 10
35.079100
 20
98.518734
 30
0.0
 10
35.253743
 20
117.858728
 30
0.0
 10
35.476914
 20
128.311569
 30
0.0
 10
35.868628
 20
132.792180
 30
0.0
 10
36.548918
 20
134.215455
 30
0.0
 10
39.260356
 20
134.821701
 30
0.0
 10
48.253516
 20
134.950394
 30
0.0
 10
67.312573
 20
134.567461
 30
0.0
 10
100.221698
 20
133.638491
 30
0.0
 10
106.921261
 20
133.366649
 30
0.0
 10
113.453198
 20
132.972293
 30
0.0
 10
119.069382
 20
132.508318
 30
0.0
 10
123.021689
 20
132.027506
 30
0.0
 10
124.761694
 20
131.741660
 30
0.0
 10
126.501698
 20
131.455843
 30
0.0
 10
128.241703
 20
131.169997
 30
0.0
 10
129.981708
 20
130.884180
 30
0.0
 10
130.000700
 20
130.031943
 30
0.0
 10
130.019692
 20
129.179707
 30
0.0
 10
130.038684
 20
128.327471
 30
0.0
 10
130.057676
 20
127.475235
 30
0.0
 10
130.113434
 20
125.810731
 30
0.0
 10
130.209216
 20
123.798671
 30
0.0
 10
130.331616
 20
121.692643
 30
0.0
 10
130.467226
 20
119.746290
 30
0.0
 10
130.605783
 20
116.651027
 30
0.0
 10
130.736177
 20
111.416769
 30
0.0
 10
130.843752
 20
104.774939
 30
0.0
 10
130.913853
 20
97.456876
 30
0.0
 10
131.029336
 20
89.683852
 30
0.0
 10
131.262429
 20
83.931732
 30
0.0
 10
131.607584
 20
80.290233
 30
0.0
 10
132.059273
 20
78.849156
 30
0.0
 10
133.454917
 20
78.584117
 30
0.0
 10
136.491426
 20
78.334668
 30
0.0
 10
140.721316
 20
78.128589
 30
0.0
 10
145.697094
 20
77.993943
 30
0.0
 10
150.789141
 20
77.829250
 30
0.0
 10
155.335589
 20
77.541024
 30
0.0
 10
158.840600
 20
77.169855
 30
0.0
 10
160.808341
 20
76.756394
 30
0.0
 10
161.434896
 20
76.501276
 30
0.0
 10
162.061452
 20
76.246157
 30
0.0
 10
162.688008
 20
75.991039
 30
0.0
 10
163.314564
 20
75.735921
 30
0.0
 10
163.287918
 20
66.249241
 30
0.0
 10
163.261273
 20
56.762532
 30
0.0
 10
163.234627
 20
47.275852
 30
0.0
 10
163.207981
 20
37.789172
 30
0.0
 10
163.098422
 20
21.682573
 30
0.0
 10
162.877348
 20
9.608513
 30
0.0
 10
162.555038
 20
1.940258
 30
0.0
 10
162.141769
 20
-0.949039
 30
0.0
 10
160.822140
 20
-1.206992
 30
0.0
 10
157.938761
 20
-1.324063
 30
0.0
 10
153.916886
 20
-1.294866
 30
0.0
 10
149.181763
 20
-1.114016
 30
0.0
 10
141.719644
 20
-0.911906
 30
0.0
 10
130.272769
 20
-0.824882
 30
0.0
 10
116.400393
 20
-0.856630
 30
0.0
 10
101.661763
 20
-1.010268
 30
0.0
 10
69.520655
 20
-1.387332
 30
0.0
 10
38.774353
 20
-1.592561
 30
0.0
 10
15.189191
 20
-1.603899
 30
0.0
 10
4.531490
 20
-1.396970
 30
0.0
 10
4.531467
 20
-1.396942
 30
0.0
 10
4.531444
 20
-1.396913
 30
0.0
 10
4.531421
 20
-1.396857
 30
0.0
  0
LWPOLYLINE
  5
101
100
AcDbEntity
  8
Layer_1
 62
7
100
AcDbPolyline
 90
79
 70
1
 10
158.591492
 20
1.491080
 30
0.0
 10
159.336882
 20
3.186935
 30
0.0
 10
159.661638
 20
8.246948
 30
0.0
 10
159.781034
 20
19.012904
 30
0.0
 10
159.910350
 20
37.826447
 30
0.0
 10
159.985894
 20
51.725650
 30
0.0
 10
159.961516
 20
63.194258
 30
0.0
 10
159.627875
 20
69.953669
 30
0.0
 10
159.429308
 20
72.992211
 30
0.0
 10
157.242555
 20
73.692822
 30
0.0
 10
151.803210
 20
74.230498
 30
0.0
 10
142.400594
 20
74.651102
 30
0.0
 10
128.324027
 20
75.000586
 30
0.0
 10
114.226251
 20
75.378501
 30
0.0
 10
106.471400
 20
75.759307
 30
0.0
 10
102.947014
 20
76.079679
 30
0.0
 10
101.540633
 20
76.276120
 30
0.0
 10
101.536098
 20
77.618381
 30
0.0
 10
101.929623
 20
76.192498
 30
0.0
 10
104.168551
 20
74.627405
 30
0.0
 10
106.096870
 20
73.219550
 30
0.0
 10
108.265008
 20
71.453707
 30
0.0
 10
110.407501
 20
69.555515
 30
0.0
 10
112.258885
 20
67.750639
 30
0.0
 10
114.542348
 20
65.509058
 30
0.0
 10
116.362071
 20
64.284775
 30
0.0
 10
116.651166
 20
63.337890
 30
0.0
 10
119.569714
 20
63.234992
 30
0.0
 10
126.586154
 20
62.884431
 30
0.0
 10
134.107191
 20
62.005011
 30
0.0
 10
140.376977
 20
60.855109
 30
0.0
 10
144.510814
 20
58.821902
 30
0.0
 10
145.235758
 20
57.397918
 30
0.0
 10
145.675210
 20
54.178894
 30
0.0
 10
145.892458
 20
48.286743
 30
0.0
 10
145.950795
 20
38.843320
 30
0.0
 10
145.896454
 20
28.972772
 30
0.0
 10
145.668266
 20
23.100123
 30
0.0
 10
145.168489
 20
20.023455
 30
0.0
 10
144.299392
 20
18.540794
 30
0.0
 10
143.428232
 20
16.580693
 30
0.0
 10
141.176047
 20
16.007783
 30
0.0
 10
137.517290
 20
15.617707
 30
0.0
 10
131.992603
 20
15.335660
 30
0.0
 10
129.220305
 20
15.229644
 30
0.0
 10
126.448007
 20
15.123628
 30
0.0
 10
123.675710
 20
15.017613
 30
0.0
 10
121.190162
 20
15.438302
 30
0.0
 10
120.295315
 20
14.388690
 30
0.0
 10
119.400466
 20
13.339077
 30
0.0
 10
118.505619
 20
12.289493
 30
0.0
 10
117.610770
 20
11.239880
 30
0.0
 10
116.145210
 20
9.607635
 30
0.0
 10
114.800825
 20
8.266932
 30
0.0
 10
113.726560
 20
7.356444
 30
0.0
 10
113.071368
 20
7.014784
 30
0.0
 10
112.401057
 20
6.779509
 30
0.0
 10
111.285624
 20
6.157984
 30
0.0
 10
109.880308
 20
5.244888
 30
0.0
 10
108.340345
 20
4.134813
 30
0.0
 10
107.397592
 20
3.421474
 30
0.0
 10
106.454837
 20
2.708164
 30
0.0
 10
105.512085
 20
1.994825
 30
0.0
 10
104.569330
 20
1.281515
 30
0.0
 10
107.062574
 20
1.646674
 30
0.0
 10
111.365325
 20
1.626831
 30
0.0
 10
115.668077
 20
1.606989
 30
0.0
 10
119.970828
 20
1.587146
 30
0.0
 10
127.028883
 20
1.511745
 30
0.0
 10
133.527008
 20
1.405729
 30
0.0
 10
138.749797
 20
1.345918
 30
0.0
 10
141.981851
 20
1.409131
 30
0.0
 10
144.587137
 20
1.586580
 30
0.0
 10
145.589513
 20
1.588649
 30
0.0
 10
147.143307
 20
1.549814
 30
0.0
 10
151.402847
 20
1.604806
 30
0.0
 10
153.200041
 20
1.576460
 30
0.0
 10
154.997237
 20
1.548113
 30
0.0
 10
156.794431
 20
1.519767
 30
0.0
  0
LWPOLYLINE
  5
102
100
AcDbEntity
  8
Layer_1
 62
7
100
AcDbPolyline
 90
70
 70
1
 10
57.182357
 20
1.775027
 30
0.0
 10
56.528991
 20
2.668139
 30
0.0
 10
55.392109
 20
3.980580
 30
0.0
 10
53.881954
 20
5.576400
 30
0.0
 10
52.205751
 20
7.337594
 30
0.0
 10
50.616763
 20
9.100346
 30
0.0
 10
49.294284
 20
10.660054
 30
0.0
 10
48.417613
 20
11.812082
 30
0.0
 10
47.314882
 20
12.458523
 30
0.0
 10
45.652504
 20
12.732350
 30
0.0
 10
41.735044
 20
12.845169
 30
0.0
 10
34.175078
 20
13.247575
 30
0.0
 10
26.756561
 20
13.645049
 30
0.0
 10
22.484358
 20
14.090995
 30
0.0
 10
19.277750
 20
14.758101
 30
0.0
 10
18.322866
 20
17.343666
 30
0.0
 10
17.896871
 20
19.470898
 30
0.0
 10
17.654591
 20
23.914488
 30
0.0
 10
17.596147
 20
30.669931
 30
0.0
 10
17.721656
 20
39.732661
 30
0.0
 10
18.131811
 20
54.563131
 30
0.0
 10
18.486683
 20
63.024350
 30
0.0
 10
24.386664
 20
65.254706
 30
0.0
 10
34.245077
 20
65.312816
 30
0.0
 10
37.432344
 20
65.284469
 30
0.0
 10
40.619611
 20
65.256123
 30
0.0
 10
43.806878
 20
65.227776
 30
0.0
 10
47.211936
 20
64.763858
 30
0.0
 10
48.521239
 20
66.104929
 30
0.0
 10
49.830542
 20
67.446000
 30
0.0
 10
51.139845
 20
68.787071
 30
0.0
 10
52.449148
 20
70.128142
 30
0.0
 10
54.591103
 20
72.210983
 30
0.0
 10
56.551643
 20
73.916674
 30
0.0
 10
58.113833
 20
75.069156
 30
0.0
 10
59.060724
 20
75.492425
 30
0.0
 10
59.728161
 20
75.640394
 30
0.0
 10
60.529459
 20
76.042913
 30
0.0
 10
61.363888
 20
76.638671
 30
0.0
 10
61.363888
 20
76.638671
 30
0.0
 10
58.984994
 20
76.811584
 30
0.0
 10
49.181485
 20
76.617128
 30
0.0
 10
31.267820
 20
76.086369
 30
0.0
 10
18.223561
 20
75.437433
 30
0.0
 10
10.242910
 20
74.683247
 30
0.0
 10
7.520058
 20
73.836794
 30
0.0
 10
5.737414
 20
71.146658
 30
0.0
 10
5.061141
 20
66.112951
 30
0.0
 10
4.403093
 20
60.903865
 30
0.0
 10
4.088162
 20
56.331099
 30
0.0
 10
4.109195
 20
53.255395
 30
0.0
 10
4.192922
 20
50.476620
 30
0.0
 10
4.284555
 20
47.930145
 30
0.0
 10
4.329303
 20
45.551367
 30
0.0
 10
4.632371
 20
42.498425
 30
0.0
 10
4.637218
 20
37.810970
 30
0.0
 10
4.408783
 20
31.531181
 30
0.0
 10
4.011988
 20
23.701266
 30
0.0
 10
3.697309
 20
16.778211
 30
0.0
 10
3.526683
 20
10.761959
 30
0.0
 10
3.511546
 20
6.297874
 30
0.0
 10
3.663338
 20
4.031376
 30
0.0
 10
4.209604
 20
2.715194
 30
0.0
 10
5.684168
 20
1.986661
 30
0.0
 10
9.110544
 20
1.616230
 30
0.0
 10
15.512245
 20
1.374435
 30
0.0
 10
24.877552
 20
1.253962
 30
0.0
 10
37.668903
 20
1.270970
 30
0.0
 10
50.045346
 20
1.402214
 30
0.0
 10
55.894425
 20
1.471096
 30
0.0
  0
LWPOLYLINE
  5
103
100
AcDbEntity
  8
Layer_1
 62
7
100
AcDbPolyline
 90
62
 70
1
 10
94.393431
 20
2.758649
 30
0.0
 10
102.534545
 20
6.163795
 30
0.0
 10
109.622676
 20
10.758983
 30
0.0
 10
115.347005
 20
16.298391
 30
0.0
 10
119.396707
 20
22.536113
 30
0.0
 10
120.726116
 20
27.034866
 30
0.0
 10
121.339199
 20
32.806942
 30
0.0
 10
121.192875
 20
38.769194
 30
0.0
 10
120.244048
 20
43.838419
 30
0.0
 10
117.015968
 20
52.739858
 30
0.0
 10
113.619362
 20
59.212998
 30
0.0
 10
109.503479
 20
64.089921
 30
0.0
 10
104.117579
 20
68.202709
 30
0.0
 10
97.652296
 20
72.162482
 30
0.0
 10
92.554943
 20
74.459480
 30
0.0
 10
87.174743
 20
75.641981
 30
0.0
 10
79.860920
 20
76.258120
 30
0.0
 10
75.571135
 20
76.417427
 30
0.0
 10
72.470917
 20
76.108791
 30
0.0
 10
69.383968
 20
75.077745
 30
0.0
 10
65.133989
 20
73.069625
 30
0.0
 10
60.703274
 20
70.682400
 30
0.0
 10
57.580923
 20
68.591820
 30
0.0
 10
55.270777
 20
66.620154
 30
0.0
 10
53.276683
 20
64.589584
 30
0.0
 10
52.826505
 20
64.004967
 30
0.0
 10
52.161834
 20
62.947899
 30
0.0
 10
51.302747
 20
61.395420
 30
0.0
 10
50.269309
 20
59.324570
 30
0.0
 10
48.513348
 20
56.382888
 30
0.0
 10
46.983169
 20
53.103855
 30
0.0
 10
45.771214
 20
49.800728
 30
0.0
 10
44.969919
 20
46.786706
 30
0.0
 10
44.462795
 20
42.045562
 30
0.0
 10
44.306606
 20
35.655165
 30
0.0
 10
44.496782
 20
29.323928
 30
0.0
 10
45.298276
 20
26.107739
 30
0.0
 10
45.998002
 20
23.556331
 30
0.0
 10
46.425776
 20
21.862658
 30
0.0
 10
47.153103
 20
20.350998
 30
0.0
 10
47.327009
 20
19.462224
 30
0.0
 10
47.904072
 20
18.471827
 30
0.0
 10
48.471222
 20
17.378759
 30
0.0
 10
48.975548
 20
16.424674
 30
0.0
 10
49.555267
 20
15.519033
 30
0.0
 10
49.786489
 20
15.163994
 30
0.0
 10
50.068820
 20
14.946860
 30
0.0
 10
50.611785
 20
14.489745
 30
0.0
 10
51.552626
 20
13.481717
 30
0.0
 10
52.759111
 20
12.071707
 30
0.0
 10
54.098994
 20
10.408592
 30
0.0
 10
58.218763
 20
6.185594
 30
0.0
 10
63.160549
 20
3.534746
 30
0.0
 10
69.805185
 20
2.149228
 30
0.0
 10
79.033501
 20
1.722161
 30
0.0
 10
83.936917
 20
1.786791
 30
0.0
 10
88.467389
 20
2.003924
 30
0.0
 10
92.120922
 20
2.339291
 30
0.0
 10
94.393511
 20
2.758932
 30
0.0
 10
94.393497
 20
2.758932
 30
0.0
 10
94.393483
 20
2.758932
 30
0.0
 10
94.393468
 20
2.758932
 30
0.0
  0
LWPOLYLINE
  5
104
100
AcDbEntity
  8
Layer_1
 62
7
100
AcDbPolyline
 90
43
 70
1
 10
67.913467
 20
16.367329
 30
0.0
 10
63.532500
 20
19.927814
 30
0.0
 10
59.579314
 20
24.646791
 30
0.0
 10
56.445123
 20
30.752816
 30
0.0
 10
55.098632
 20
38.281720
 30
0.0
 10
55.113939
 20
42.401934
 30
0.0
 10
55.551200
 20
45.363770
 30
0.0
 10
55.940386
 20
47.702551
 30
0.0
 10
56.658302
 20
49.530132
 30
0.0
 10
57.510819
 20
51.409304
 30
0.0
 10
58.426863
 20
53.085487
 30
0.0
 10
59.547095
 20
54.439682
 30
0.0
 10
61.030057
 20
56.191436
 30
0.0
 10
63.533792
 20
58.537729
 30
0.0
 10
67.468286
 20
60.782428
 30
0.0
 10
71.665016
 20
62.306419
 30
0.0
 10
75.956465
 20
63.530079
 30
0.0
 10
80.059632
 20
64.257789
 30
0.0
 10
84.115003
 20
64.062765
 30
0.0
 10
87.531568
 20
63.481209
 30
0.0
 10
94.198980
 20
61.603739
 30
0.0
 10
99.584889
 20
57.450784
 30
0.0
 10
103.883100
 20
53.633820
 30
0.0
 10
106.797393
 20
48.462888
 30
0.0
 10
107.750375
 20
43.671713
 30
0.0
 10
107.942621
 20
38.735688
 30
0.0
 10
107.884199
 20
34.297795
 30
0.0
 10
107.486220
 20
31.382022
 30
0.0
 10
106.710664
 20
30.188239
 30
0.0
 10
106.519014
 20
29.657225
 30
0.0
 10
106.298734
 20
29.151269
 30
0.0
 10
105.981738
 20
28.468346
 30
0.0
 10
105.018392
 20
25.428784
 30
0.0
 10
102.273403
 20
21.750576
 30
0.0
 10
98.484049
 20
18.635131
 30
0.0
 10
95.350116
 20
16.744847
 30
0.0
 10
93.978006
 20
16.037745
 30
0.0
 10
92.596972
 20
15.445616
 30
0.0
 10
91.517298
 20
15.073512
 30
0.0
 10
89.239754
 20
14.294863
 30
0.0
 10
84.833518
 20
13.594224
 30
0.0
 10
79.369977
 20
13.605562
 30
0.0
 10
73.914038
 20
14.172293
 30
0.0
  0
LWPOLYLINE
  5
105
100
AcDbEntity
  8
Layer_1
 62
7
100
AcDbPolyline
 90
40
 70
1
 10
87.514625
 20
16.914557
 30
0.0
 10
88.389130
 20
17.343496
 30
0.0
 10
89.537924
 20
17.884573
 30
0.0
 10
90.811811
 20
18.468425
 30
0.0
 10
92.061595
 20
19.025858
 30
0.0
 10
97.831749
 20
22.442542
 30
0.0
 10
101.870620
 20
26.921849
 30
0.0
 10
103.700503
 20
32.623597
 30
0.0
 10
104.368226
 20
37.693134
 30
0.0
 10
104.543294
 20
42.628082
 30
0.0
 10
103.889781
 20
45.205710
 30
0.0
 10
102.545317
 20
47.630438
 30
0.0
 10
100.429722
 20
50.691231
 30
0.0
 10
96.292536
 20
54.596891
 30
0.0
 10
92.183153
 20
57.861865
 30
0.0
 10
86.742320
 20
59.639499
 30
0.0
 10
80.570886
 20
60.226583
 30
0.0
 10
77.838310
 20
60.126520
 30
0.0
 10
75.514442
 20
59.712520
 30
0.0
 10
73.464678
 20
59.075546
 30
0.0
 10
71.554416
 20
58.306620
 30
0.0
 10
68.798769
 20
56.465235
 30
0.0
 10
65.569141
 20
53.499005
 30
0.0
 10
62.658873
 20
49.936309
 30
0.0
 10
60.861308
 20
46.305553
 30
0.0
 10
60.180602
 20
41.773068
 30
0.0
 10
60.370665
 20
36.748006
 30
0.0
 10
61.356535
 20
31.862239
 30
0.0
 10
63.063224
 20
27.747723
 30
0.0
 10
65.271189
 20
24.582501
 30
0.0
 10
67.910080
 20
21.740910
 30
0.0
 10
70.575134
 20
19.602964
 30
0.0
 10
72.861608
 20
18.548674
 30
0.0
 10
73.910103
 20
18.328422
 30
0.0
 10
75.345599
 20
18.008391
 30
0.0
 10
76.979103
 20
17.631298
 30
0.0
 10
78.621608
 20
17.240060
 30
0.0
 10
81.928582
 20
16.517055
 30
0.0
 10
84.281916
 20
16.230246
 30
0.0
 10
86.028352
 20
16.366876
 30
0.0
  0
LWPOLYLINE
  5
106
100
AcDbEntity
  8
Layer_1
 62
7
100
AcDbPolyline
 90
20
 70
1
 10
81.021614
 20
25.443213
 30
0.0
 10
76.900827
 20
27.165373
 30
0.0
 10
73.197984
 20
30.484205
 30
0.0
 10
70.527849
 20
34.675257
 30
0.0
 10
69.505186
 20
39.014079
 30
0.0
 10
69.654317
 20
40.224189
 30
0.0
 10
70.057786
 20
41.676576
 30
0.0
 10
70.654008
 20
43.188605
 30
0.0
 10
71.381404
 20
44.577780
 30
0.0
 10
75.578536
 20
48.671915
 30
0.0
 10
82.304853
 20
50.023616
 30
0.0
 10
89.326996
 20
49.422898
 30
0.0
 10
95.181599
 20
45.696359
 30
0.0
 10
96.717895
 20
42.931559
 30
0.0
 10
97.372049
 20
39.226224
 30
0.0
 10
97.106924
 20
35.132513
 30
0.0
 10
95.885362
 20
31.395146
 30
0.0
 10
93.468325
 20
28.428803
 30
0.0
 10
89.939064
 20
26.349420
 30
0.0
 10
85.667014
 20
25.304910
 30
0.0
  0
LWPOLYLINE
  5
107
100
AcDbEntity
  8
Layer_1
 62
7
100
AcDbPolyline
 90
28
 70
1
 10
90.689394
 20
30.129534
 30
0.0
 10
92.551723
 20
32.165915
 30
0.0
 10
93.820703
 20
35.027773
 30
0.0
 10
94.369654
 20
38.280246
 30
0.0
 10
93.686896
 20
41.450088
 30
0.0
 10
91.904794
 20
43.835216
 30
0.0
 10
89.540884
 20
45.543402
 30
0.0
 10
86.247119
 20
46.788690
 30
0.0
 10
82.830458
 20
46.984280
 30
0.0
 10
79.748649
 20
46.396573
 30
0.0
 10
76.797632
 20
44.716280
 30
0.0
 10
74.763051
 20
42.503443
 30
0.0
 10
73.842097
 20
40.440076
 30
0.0
 10
73.593527
 20
38.402561
 30
0.0
 10
73.570000
 20
37.213625
 30
0.0
 10
73.758107
 20
36.167981
 30
0.0
 10
74.182714
 20
35.330258
 30
0.0
 10
74.878172
 20
34.102942
 30
0.0
 10
75.820691
 20
32.916076
 30
0.0
 10
76.852414
 20
31.728472
 30
0.0
 10
77.507473
 20
30.960879
 30
0.0
 10
78.549265
 20
30.071991
 30
0.0
 10
80.031175
 20
29.198268
 30
0.0
 10
81.681474
 20
28.469169
 30
0.0
 10
83.651930
 20
28.052702
 30
0.0
 10
85.440450
 20
28.038529
 30
0.0
 10
87.125031
 20
28.450573
 30
0.0
 10
88.861311
 20
29.229846
 30
0.0
  0
LWPOLYLINE
  5
108
100
AcDbEntity
  8
Layer_1
 62
7
100
AcDbPolyline
 90
36
 70
1
 10
42.838036
 20
18.936425
 30
0.0
 10
43.057154
 20
19.746227
 30
0.0
 10
42.768578
 20
21.021165
 30
0.0
 10
42.270633
 20
23.054315
 30
0.0
 10
41.559256
 20
25.369852
 30
0.0
 10
40.015216
 20
32.598935
 30
0.0
 10
39.938142
 20
40.404869
 30
0.0
 10
41.292726
 20
48.352507
 30
0.0
 10
44.043690
 20
56.006759
 30
0.0
 10
44.598008
 20
57.272513
 30
0.0
 10
45.003566
 20
58.354838
 30
0.0
 10
46.310896
 20
59.356602
 30
0.0
 10
45.214577
 20
59.509389
 30
0.0
 10
43.506972
 20
59.813745
 30
0.0
 10
40.742759
 20
60.258586
 30
0.0
 10
35.595490
 20
60.375657
 30
0.0
 10
30.005566
 20
60.350145
 30
0.0
 10
26.453725
 20
60.222869
 30
0.0
 10
24.467631
 20
59.880189
 30
0.0
 10
23.499810
 20
59.117074
 30
0.0
 10
23.002790
 20
57.728636
 30
0.0
 10
22.327419
 20
51.702350
 30
0.0
 10
21.866720
 20
41.831631
 30
0.0
 10
21.721291
 20
31.473780
 30
0.0
 10
21.991730
 20
23.986205
 30
0.0
 10
22.147378
 20
22.486195
 30
0.0
 10
22.303026
 20
20.986214
 30
0.0
 10
22.458673
 20
19.486205
 30
0.0
 10
22.614321
 20
17.986195
 30
0.0
 10
25.221054
 20
17.986195
 30
0.0
 10
27.827788
 20
17.986195
 30
0.0
 10
30.434522
 20
17.986195
 30
0.0
 10
33.041256
 20
17.986195
 30
0.0
 10
37.134281
 20
18.058195
 30
0.0
 10
40.570727
 20
18.254069
 30
0.0
 10
42.104480
 20
18.466951
 30
0.0
  0
LWPOLYLINE
  5
109
100
AcDbEntity
  8
Layer_1
 62
7
100
AcDbPolyline
 90
48
 70
1
 10
140.294565
 20
20.099906
 30
0.0
 10
140.857523
 20
21.484063
 30
0.0
 10
141.228244
 20
24.771231
 30
0.0
 10
141.430212
 20
30.323792
 30
0.0
 10
141.486905
 20
38.504126
 30
0.0
 10
141.425365
 20
45.345203
 30
0.0
 10
141.269176
 20
51.107386
 30
0.0
 10
141.041837
 20
55.184740
 30
0.0
 10
140.766877
 20
56.971332
 30
0.0
 10
139.676428
 20
57.437178
 30
0.0
 10
137.202863
 20
57.878220
 30
0.0
 10
133.616704
 20
58.257836
 30
0.0
 10
129.188483
 20
58.539317
 30
0.0
 10
123.694330
 20
58.736041
 30
0.0
 10
120.295329
 20
58.679348
 30
0.0
 10
119.607211
 20
58.466466
 30
0.0
 10
119.196652
 20
57.922129
 30
0.0
 10
119.292746
 20
57.377282
 30
0.0
 10
119.683154
 20
56.782517
 30
0.0
 10
119.914121
 20
56.137550
 30
0.0
 10
120.294227
 20
55.605430
 30
0.0
 10
120.698785
 20
54.987392
 30
0.0
 10
121.040762
 20
54.148791
 30
0.0
 10
121.358356
 20
53.267244
 30
0.0
 10
121.689763
 20
52.520372
 30
0.0
 10
122.195384
 20
51.672983
 30
0.0
 10
122.451919
 20
51.261109
 30
0.0
 10
122.735044
 20
50.652142
 30
0.0
 10
123.320426
 20
49.213474
 30
0.0
 10
123.711279
 20
48.202498
 30
0.0
 10
124.183001
 20
46.735569
 30
0.0
 10
124.820793
 20
44.329720
 30
0.0
 10
125.709851
 20
40.501956
 30
0.0
 10
126.017717
 20
37.348526
 30
0.0
 10
126.153921
 20
34.690649
 30
0.0
 10
126.118630
 20
31.767817
 30
0.0
 10
125.911984
 20
27.819524
 30
0.0
 10
125.401141
 20
24.910441
 30
0.0
 10
125.049163
 20
22.461789
 30
0.0
 10
124.887674
 20
20.730954
 30
0.0
 10
124.948307
 20
19.975323
 30
0.0
 10
125.908067
 20
19.111890
 30
0.0
 10
131.542070
 20
19.120394
 30
0.0
 10
137.225721
 20
19.478409
 30
0.0
 10
140.294531
 20
20.100047
 30
0.0
 10
140.294540
 20
20.100047
 30
0.0
 10
140.294548
 20
20.100047
 30
0.0
 10
140.294557
 20
20.100047
 30
0.0
  0
LWPOLYLINE
  5
10a
100
AcDbEntity
  8
Layer_1
 62
7
100
AcDbPolyline
 90
85
 70
1
 10
61.176067
 20
87.525496
 30
0.0
 10
63.807075
 20
90.013805
 30
0.0
 10
66.071333
 20
92.155493
 30
0.0
 10
67.727412
 20
93.722173
 30
0.0
 10
69.344155
 20
95.320545
 30
0.0
 10
69.344155
 20
95.320545
 30
0.0
 10
71.010564
 20
97.082504
 30
0.0
 10
73.290098
 20
99.513213
 30
0.0
 10
75.939761
 20
102.354435
 30
0.0
 10
77.608681
 20
104.148624
 30
0.0
 10
79.277598
 20
105.942813
 30
0.0
 10
80.946519
 20
107.737030
 30
0.0
 10
82.615436
 20
109.531219
 30
0.0
 10
86.550823
 20
108.666709
 30
0.0
 10
87.219360
 20
107.802198
 30
0.0
 10
87.887897
 20
106.937717
 30
0.0
 10
88.556434
 20
106.073206
 30
0.0
 10
90.049910
 20
104.209852
 30
0.0
 10
92.139523
 20
101.692602
 30
0.0
 10
94.548237
 20
98.851465
 30
0.0
 10
96.999029
 20
96.016422
 30
0.0
 10
99.465409
 20
93.133928
 30
0.0
 10
101.916539
 20
90.163559
 30
0.0
 10
104.068911
 20
87.455055
 30
0.0
 10
105.639029
 20
85.358126
 30
0.0
 10
106.356912
 20
84.343238
 30
0.0
 10
107.074791
 20
83.328378
 30
0.0
 10
107.792674
 20
82.313490
 30
0.0
 10
108.510554
 20
81.298630
 30
0.0
 10
109.161604
 20
80.421789
 30
0.0
 10
110.901600
 20
80.416120
 30
0.0
 10
112.641599
 20
80.410450
 30
0.0
 10
114.381595
 20
80.404781
 30
0.0
 10
116.803655
 20
80.404894
 30
0.0
 10
117.895116
 20
80.419068
 30
0.0
 10
118.430680
 20
80.436076
 30
0.0
 10
119.185055
 20
80.444580
 30
0.0
 10
119.947402
 20
80.430406
 30
0.0
 10
121.023890
 20
80.424737
 30
0.0
 10
122.118610
 20
80.484265
 30
0.0
 10
122.785486
 20
80.774532
 30
0.0
 10
122.914746
 20
81.294973
 30
0.0
 10
122.393920
 20
82.839770
 30
0.0
 10
121.201163
 20
85.020718
 30
0.0
 10
119.891066
 20
87.107528
 30
0.0
 10
119.018214
 20
88.369767
 30
0.0
 10
116.409334
 20
91.257109
 30
0.0
 10
110.826737
 20
97.428331
 30
0.0
 10
104.495964
 20
104.620904
 30
0.0
 10
99.642560
 20
110.572441
 30
0.0
 10
95.648652
 20
115.350265
 30
0.0
 10
90.471098
 20
120.824362
 30
0.0
 10
85.720963
 20
125.368923
 30
0.0
 10
84.316054
 20
127.140321
 30
0.0
 10
83.474374
 20
126.825987
 30
0.0
 10
83.481460
 20
126.477950
 30
0.0
 10
81.901230
 20
124.945483
 30
0.0
 10
80.217757
 20
123.037994
 30
0.0
 10
76.735332
 20
119.171424
 30
0.0
 10
73.524886
 20
116.109950
 30
0.0
 10
71.017526
 20
113.954343
 30
0.0
 10
69.644361
 20
112.805348
 30
0.0
 10
68.734723
 20
111.888142
 30
0.0
 10
67.494699
 20
110.550047
 30
0.0
 10
66.235482
 20
109.135219
 30
0.0
 10
65.268275
 20
107.987726
 30
0.0
 10
63.316885
 20
105.567846
 30
0.0
 10
59.705410
 20
101.139250
 30
0.0
 10
54.560350
 20
95.185304
 30
0.0
 10
48.008200
 20
88.189313
 30
0.0
 10
45.678512
 20
85.738479
 30
0.0
 10
43.770699
 20
83.588315
 30
0.0
 10
42.481636
 20
81.970866
 30
0.0
 10
42.008199
 20
81.118120
 30
0.0
 10
41.297919
 20
80.953143
 30
0.0
 10
42.959713
 20
80.651594
 30
0.0
 10
45.495471
 20
80.454019
 30
0.0
 10
48.713820
 20
80.383153
 30
0.0
 10
50.716913
 20
80.383153
 30
0.0
 10
52.720004
 20
80.383153
 30
0.0
 10
54.723098
 20
80.383153
 30
0.0
 10
54.548286
 20
81.254324
 30
0.0
 10
56.205193
 20
82.821288
 30
0.0
 10
57.862100
 20
84.388252
 30
0.0
 10
59.519007
 20
85.955216
 30
0.0
  0
LWPOLYLINE
  5
10b
100
AcDbEntity
  8
Layer_1
 62
7
100
AcDbPolyline
 90
24
 70
1
 10
103.101605
 20
81.151200
 30
0.0
 10
101.700275
 20
83.574425
 30
0.0
 10
97.954815
 20
88.318517
 30
0.0
 10
92.553012
 20
94.557628
 30
0.0
 10
86.182654
 20
101.465915
 30
0.0
 10
85.621762
 20
102.055776
 30
0.0
 10
85.060871
 20
102.645638
 30
0.0
 10
84.499980
 20
103.235499
 30
0.0
 10
83.939088
 20
103.825361
 30
0.0
 10
81.294398
 20
101.144098
 30
0.0
 10
78.649710
 20
98.462835
 30
0.0
 10
76.005020
 20
95.781543
 30
0.0
 10
73.360332
 20
93.100280
 30
0.0
 10
69.252814
 20
88.857468
 30
0.0
 10
65.889111
 20
85.233600
 30
0.0
 10
63.616334
 20
82.613197
 30
0.0
 10
62.781605
 20
81.380835
 30
0.0
 10
64.066277
 20
80.949458
 30
0.0
 10
67.887397
 20
80.638299
 30
0.0
 10
74.195620
 20
80.449795
 30
0.0
 10
82.941605
 20
80.386583
 30
0.0
 10
90.769354
 20
80.446961
 30
0.0
 10
97.179605
 20
80.611370
 30
0.0
 10
101.510855
 20
80.854583
 30
0.0
  0
LWPOLYLINE
  5
10c
100
AcDbEntity
  8
Layer_1
 62
7
100
AcDbPolyline
 90
48
 70
1
 10
46.359952
 20
92.295836
 30
0.0
 10
47.585367
 20
93.713187
 30
0.0
 10
48.810781
 20
95.130539
 30
0.0
 10
48.947241
 20
96.547861
 30
0.0
 10
50.172656
 20
97.965213
 30
0.0
 10
50.172656
 20
99.794466
 30
0.0
 10
50.172656
 20
101.623720
 30
0.0
 10
50.172656
 20
103.452973
 30
0.0
 10
50.172656
 20
105.282227
 30
0.0
 10
50.471371
 20
110.873112
 30
0.0
 10
51.275974
 20
115.741843
 30
0.0
 10
54.300370
 20
117.623452
 30
0.0
 10
57.338246
 20
118.173203
 30
0.0
 10
61.677320
 20
118.198715
 30
0.0
 10
63.244545
 20
118.126431
 30
0.0
 10
63.982831
 20
118.120762
 30
0.0
 10
65.835099
 20
118.343565
 30
0.0
 10
67.978638
 20
118.728765
 30
0.0
 10
70.137133
 20
118.428009
 30
0.0
 10
72.410698
 20
120.438170
 30
0.0
 10
75.552814
 20
123.835946
 30
0.0
 10
77.755978
 20
126.393591
 30
0.0
 10
79.486654
 20
128.561584
 30
0.0
 10
81.007041
 20
129.239830
 30
0.0
 10
81.272591
 20
129.941745
 30
0.0
 10
75.176167
 20
130.535745
 30
0.0
 10
62.317528
 20
131.035294
 30
0.0
 10
49.097239
 20
131.262066
 30
0.0
 10
41.915869
 20
131.037846
 30
0.0
 10
41.306539
 20
130.885058
 30
0.0
 10
40.697212
 20
130.731987
 30
0.0
 10
40.087882
 20
130.578917
 30
0.0
 10
40.567504
 20
130.425846
 30
0.0
 10
40.013578
 20
125.713389
 30
0.0
 10
39.895231
 20
120.129761
 30
0.0
 10
39.776885
 20
114.546132
 30
0.0
 10
39.658538
 20
108.962504
 30
0.0
 10
39.512129
 20
100.189871
 30
0.0
 10
39.463430
 20
92.814406
 30
0.0
 10
39.512441
 20
87.610734
 30
0.0
 10
39.659134
 20
85.353562
 30
0.0
 10
40.063431
 20
84.605187
 30
0.0
 10
39.884536
 20
85.046825
 30
0.0
 10
42.084859
 20
87.377783
 30
0.0
 10
46.359958
 20
92.297367
 30
0.0
 10
46.359958
 20
92.297310
 30
0.0
 10
46.359958
 20
92.297282
 30
0.0
 10
46.359958
 20
92.297254
 30
0.0
  0
LWPOLYLINE
  5
10d
100
AcDbEntity
  8
Layer_1
 62
7
100
AcDbPolyline
 90
52
 70
1
 10
122.162227
 20
126.798038
 30
0.0
 10
121.568173
 20
127.537342
 30
0.0
 10
116.145683
 20
128.182195
 30
0.0
 10
105.734645
 20
128.913137
 30
0.0
 10
94.720144
 20
129.259247
 30
0.0
 10
93.432543
 20
129.270586
 30
0.0
 10
92.144940
 20
129.281924
 30
0.0
 10
90.857339
 20
129.293263
 30
0.0
 10
89.569735
 20
129.304602
 30
0.0
 10
89.999773
 20
128.648296
 30
0.0
 10
90.429809
 20
127.991991
 30
0.0
 10
90.859844
 20
127.335657
 30
0.0
 10
91.289883
 20
126.679351
 30
0.0
 10
91.125190
 20
127.343027
 30
0.0
 10
92.370149
 20
125.753868
 30
0.0
 10
93.772763
 20
124.073320
 30
0.0
 10
95.169988
 20
122.502728
 30
0.0
 10
96.522653
 20
121.014624
 30
0.0
 10
97.803944
 20
119.558608
 30
0.0
 10
102.332038
 20
118.465172
 30
0.0
 10
102.332038
 20
118.465172
 30
0.0
 10
104.701921
 20
117.998476
 30
0.0
 10
107.893497
 20
117.644258
 30
0.0
 10
109.629972
 20
117.498557
 30
0.0
 10
111.366448
 20
117.352857
 30
0.0
 10
113.102923
 20
117.207156
 30
0.0
 10
116.581720
 20
116.843641
 30
0.0
 10
116.385194
 20
113.702769
 30
0.0
 10
116.406454
 20
112.957597
 30
0.0
 10
116.427713
 20
112.212397
 30
0.0
 10
116.448973
 20
111.467197
 30
0.0
 10
116.470800
 20
109.966394
 30
0.0
 10
116.466548
 20
108.083565
 30
0.0
 10
116.438485
 20
106.059260
 30
0.0
 10
116.388765
 20
104.134139
 30
0.0
 10
116.756070
 20
100.717824
 30
0.0
 10
116.518073
 20
97.568759
 30
0.0
 10
119.404619
 20
93.856054
 30
0.0
 10
121.958456
 20
88.966517
 30
0.0
 10
122.874137
 20
88.127518
 30
0.0
 10
123.789821
 20
87.288520
 30
0.0
 10
124.705502
 20
86.449521
 30
0.0
 10
125.621186
 20
85.610523
 30
0.0
 10
125.686100
 20
90.709313
 30
0.0
 10
125.751013
 20
95.808104
 30
0.0
 10
125.815927
 20
100.906866
 30
0.0
 10
125.880840
 20
106.005657
 30
0.0
 10
125.952953
 20
116.230167
 30
0.0
 10
125.823807
 20
122.673685
 30
0.0
 10
125.873186
 20
125.796926
 30
0.0
 10
125.873186
 20
125.796926
 30
0.0
 10
125.873186
 20
125.796926
 30
0.0
  0
LWPOLYLINE
  5
10e
100
AcDbEntity
  8
Layer_1
 62
7
100
AcDbPolyline
 90
12
 70
1
 10
60.082671
 20
108.442743
 30
0.0
 10
62.151945
 20
111.138208
 30
0.0
 10
62.639597
 20
112.828564
 30
0.0
 10
61.495988
 20
113.708239
 30
0.0
 10
58.671482
 20
113.971861
 30
0.0
 10
56.936200
 20
113.811420
 30
0.0
 10
55.886301
 20
113.032431
 30
0.0
 10
55.256312
 20
111.226847
 30
0.0
 10
54.780763
 20
107.986592
 30
0.0
 10
54.746634
 20
105.334951
 30
0.0
 10
55.555914
 20
104.521691
 30
0.0
 10
57.303094
 20
105.554948
 30
0.0
  0
LWPOLYLINE
  5
10f
100
AcDbEntity
  8
Layer_1
 62
7
100
AcDbPolyline
 90
16
 70
1
 10
111.741605
 20
109.186469
 30
0.0
 10
111.741605
 20
110.146479
 30
0.0
 10
111.741605
 20
111.106488
 30
0.0
 10
111.741605
 20
112.066469
 30
0.0
 10
111.741605
 20
113.026479
 30
0.0
 10
110.767436
 20
113.026479
 30
0.0
 10
109.793268
 20
113.026479
 30
0.0
 10
108.819099
 20
113.026479
 30
0.0
 10
107.844931
 20
113.026479
 30
0.0
 10
105.489836
 20
112.940306
 30
0.0
 10
104.647042
 20
112.376835
 30
0.0
 10
105.267101
 20
110.878129
 30
0.0
 10
107.300565
 20
107.986394
 30
0.0
 10
109.015730
 20
105.987600
 30
0.0
 10
110.148608
 20
105.634857
 30
0.0
 10
110.967724
 20
106.757887
 30
0.0
  0
ENDSEC
  0
SECTION
  2
OBJECTS
  0
DICTIONARY
  5
C
330
0
100
AcDbDictionary
  3
ACAD_GROUP
350
D
  3
ACAD_MLINESTYLE
350
17
  0
DICTIONARY
  5
D
330
C
100
AcDbDictionary
  0
DICTIONARY
  5
1A
330
C
100
AcDbDictionary
  0
DICTIONARY
  5
17
330
C
100
AcDbDictionary
  3
STANDARD
350
18
  0
DICTIONARY
  5
19
330
C
100
AcDbDictionary
  0
ENDSEC
  0
EOF
