  0
SECTION
  2
HEADER
  9
$ACADVER
  1
AC1014
  9
$HANDSEED
  5
FFFF
  9
$MEASUREMENT
 70
     1
  0
ENDSEC
  0
SECTION
  2
TABLES
  0
TABLE
  2
VPORT
  5
8
330
0
100
AcDbSymbolTable
 70
     4
  0
VPORT
  5
2E
330
8
100
AcDbSymbolTableRecord
100
AcDbViewportTableRecord
  2
*ACTIVE
 70
     0
 10
0.0
 20
0.0
 11
1.0
 21
1.0
 12
210.0
 22
148.5
 13
0.0
 23
0.0
 14
10.0
 24
10.0
 15
10.0
 25
10.0
 16
0.0
 26
0.0
 36
1.0
 17
0.0
 27
0.0
 37
0.0
 40
341.0
 41
1.24
 42
50.0
 43
0.0
 44
0.0
 50
0.0
 51
0.0
 71
     0
 72
   100
 73
     1
 74
     3
 75
     0
 76
     0
 77
     0
 78
     0
  0
ENDTAB
  0
TABLE
  2
LTYPE
  5
5
330
0
100
AcDbSymbolTable
 70
     1
  0
LTYPE
  5
14
330
5
100
AcDbSymbolTableRecord
100
AcDbLinetypeTableRecord
  2
BYBLOCK
 70
     0
  3

 72
    65
 73
     0
 40
0.0
  0
LTYPE
  5
15
330
5
100
AcDbSymbolTableRecord
100
AcDbLinetypeTableRecord
  2
BYLAYER
 70
     0
  3

 72
    65
 73
     0
 40
0.0
  0
LTYPE
  5
16
330
5
100
AcDbSymbolTableRecord
100
AcDbLinetypeTableRecord
  2
CONTINUOUS
 70
     0
  3
Solid line
 72
    65
 73
     0
 40
0.0
  0
ENDTAB
  0
TABLE
  2
LAYER
  5
2
100
AcDbSymbolTable
 70
2
  0
LAYER
  5
50
100
AcDbSymbolTableRecord
100
AcDbLayerTableRecord
  2
0
 70
0
  6
CONTINUOUS
  0
LAYER
  5
51
100
AcDbSymbolTableRecord
100
AcDbLayerTableRecord
  2
Layer_1
 70
0
  6
CONTINUOUS
  0
ENDTAB
  0
TABLE
  2
STYLE
  5
3
330
0
100
AcDbSymbolTable
 70
     1
  0
STYLE
  5
11
330
3
100
AcDbSymbolTableRecord
100
AcDbTextStyleTableRecord
  2
STANDARD
 70
     0
 40
0.0
 41
1.0
 50
0.0
 71
     0
 42
2.5
  3
txt
  4

  0
ENDTAB
  0
TABLE
  2
VIEW
  5
6
330
0
100
AcDbSymbolTable
 70
     0
  0
ENDTAB
  0
TABLE
  2
UCS
  5
7
330
0
100
AcDbSymbolTable
 70
     0
  0
ENDTAB
  0
TABLE
  2
APPID
  5
9
330
0
100
AcDbSymbolTable
 70
     2
  0
APPID
  5
12
330
9
100
AcDbSymbolTableRecord
100
AcDbRegAppTableRecord
  2
ACAD
 70
     0
  0
ENDTAB
  0
TABLE
  2
DIMSTYLE
  5
A
330
0
100
AcDbSymbolTable
 70
     1
  0
DIMSTYLE
105
27
330
A
100
AcDbSymbolTableRecord
100
AcDbDimStyleTableRecord
  2
ISO-25
 70
     0
  3

  4

  5

  6

  7

 40
1.0
 41
2.5
 42
0.625
 43
3.75
 44
1.25
 45
0.0
 46
0.0
 47
0.0
 48
0.0
140
2.5
141
2.5
142
0.0
143
0.03937007874016
144
1.0
145
0.0
146
1.0
147
0.625
 71
     0
 72
     0
 73
     0
 74
     0
 75
     0
 76
     0
 77
     1
 78
     8
170
     0
171
     3
172
     1
173
     0
174
     0
175
     0
176
     0
177
     0
178
     0
270
     2
271
     2
272
     2
273
     2
274
     3
340
11
275
     0
280
     0
281
     0
282
     0
283
     0
284
     8
285
     0
286
     0
287
     3
288
     0
  0
ENDTAB
  0
TABLE
  2
BLOCK_RECORD
  5
1
330
0
100
AcDbSymbolTable
 70
     1
  0
BLOCK_RECORD
  5
1F
330
1
100
AcDbSymbolTableRecord
100
AcDbBlockTableRecord
  2
*MODEL_SPACE
  0
BLOCK_RECORD
  5
1B
330
1
100
AcDbSymbolTableRecord
100
AcDbBlockTableRecord
  2
*PAPER_SPACE
  0
ENDTAB
  0
ENDSEC
  0
SECTION
  2
BLOCKS
  0
BLOCK
  5
20
330
1F
100
AcDbEntity
  8
0
100
AcDbBlockBegin
  2
*MODEL_SPACE
 70
     0
 10
0.0
 20
0.0
 30
0.0
  3
*MODEL_SPACE
  1

  0
ENDBLK
  5
21
330
1F
100
AcDbEntity
  8
0
100
AcDbBlockEnd
  0
BLOCK
  5
1C
330
1B
100
AcDbEntity
 67
     1
  8
0
100
AcDbBlockBegin
  2
*PAPER_SPACE
  1

  0
ENDBLK
  5
1D
330
1B
100
AcDbEntity
 67
     1
  8
0
100
AcDbBlockEnd
  0
ENDSEC
  0
SECTION
  2
ENTITIES
  0
LWPOLYLINE
  5
100
100
AcDbEntity
  8
Layer_1
 62
7
100
AcDbPolyline
 90
122
 70
1
 10
34.993151
 20
0.562054
 30
0.0
 10
30.389771
 20
0.919502
 30
0.0
 10
26.016939
 20
1.397367
 30
0.0
 10
22.368629
 20
1.933172
 30
0.0
 10
19.938810
 20
2.464526
 30
0.0
 10
16.415771
 20
4.138894
 30
0.0
 10
12.925562
 20
6.936038
 30
0.0
 10
9.588782
 20
10.739339
 30
0.0
 10
6.526029
 20
15.432208
 30
0.0
 10
4.972063
 20
18.457625
 30
0.0
 10
4.162843
 20
21.672255
 30
0.0
 10
3.398436
 20
25.043528
 30
0.0
 10
2.796457
 20
30.065953
 30
0.0
 10
2.360988
 20
33.689339
 30
0.0
 10
1.932961
 20
37.770746
 30
0.0
 10
2.332650
 20
44.083502
 30
0.0
 10
2.935828
 20
47.327443
 30
0.0
 10
4.106628
 20
52.046957
 30
0.0
 10
5.699617
 20
55.992189
 30
0.0
 10
6.497747
 20
57.576387
 30
0.0
 10
7.261538
 20
58.873691
 30
0.0
 10
7.904369
 20
59.750277
 30
0.0
 10
8.339619
 20
60.072208
 30
0.0
 10
8.624436
 20
60.190413
 30
0.0
 10
8.857677
 20
60.511975
 30
0.0
 10
9.914865
 20
62.271468
 30
0.0
 10
11.654151
 20
63.271956
 30
0.0
 10
12.930875
 20
64.637802
 30
0.0
 10
15.170720
 20
65.963962
 30
0.0
 10
18.468202
 20
67.295792
 30
0.0
 10
22.917834
 20
68.678646
 30
0.0
 10
24.376663
 20
69.089272
 30
0.0
 10
25.835492
 20
69.499899
 30
0.0
 10
27.294322
 20
69.910526
 30
0.0
 10
28.753151
 20
70.321153
 30
0.0
 10
28.911466
 20
72.100035
 30
0.0
 10
29.069781
 20
73.878945
 30
0.0
 10
29.228096
 20
75.657827
 30
0.0
 10
29.386411
 20
77.436737
 30
0.0
 10
29.671565
 20
80.464706
 30
0.0
 10
29.979824
 20
83.449106
 30
0.0
 10
30.274085
 20
86.046208
 30
0.0
 10
30.517241
 20
87.912283
 30
0.0
 10
31.574431
 20
91.686784
 30
0.0
 10
33.423382
 20
96.120737
 30
0.0
 10
35.402620
 20
99.810454
 30
0.0
 10
36.850699
 20
101.352302
 30
0.0
 10
37.239740
 20
101.485531
 30
0.0
 10
37.638838
 20
101.848309
 30
0.0
 10
38.001108
 20
102.385219
 30
0.0
 10
38.279669
 20
103.040872
 30
0.0
 10
38.630513
 20
103.771587
 30
0.0
 10
39.189616
 20
104.512904
 30
0.0
 10
39.880022
 20
105.178195
 30
0.0
 10
40.624771
 20
105.680863
 30
0.0
 10
41.569156
 20
106.187499
 30
0.0
 10
42.803103
 20
106.863619
 30
0.0
 10
44.166653
 20
107.620951
 30
0.0
 10
45.499832
 20
108.371225
 30
0.0
 10
52.862651
 20
110.976094
 30
0.0
 10
63.146505
 20
112.656047
 30
0.0
 10
74.536879
 20
113.222976
 30
0.0
 10
85.219258
 20
112.488803
 30
0.0
 10
91.316751
 20
111.147506
 30
0.0
 10
96.314393
 20
109.091027
 30
0.0
 10
100.256611
 20
106.295301
 30
0.0
 10
103.187808
 20
102.736205
 30
0.0
 10
105.208865
 20
98.493222
 30
0.0
 10
106.700025
 20
93.463852
 30
0.0
 10
107.499755
 20
88.362425
 30
0.0
 10
107.446548
 20
83.903216
 30
0.0
 10
107.293024
 20
82.780923
 30
0.0
 10
107.139500
 20
81.658630
 30
0.0
 10
106.985975
 20
80.536337
 30
0.0
 10
106.832451
 20
79.414072
 30
0.0
 10
107.992535
 20
79.263269
 30
0.0
 10
109.152622
 20
79.112466
 30
0.0
 10
110.312707
 20
78.961663
 30
0.0
 10
111.472794
 20
78.810860
 30
0.0
 10
116.115700
 20
78.129439
 30
0.0
 10
119.306439
 20
77.289506
 30
0.0
 10
122.228925
 20
75.849477
 30
0.0
 10
126.067069
 20
73.367830
 30
0.0
 10
130.564946
 20
69.859361
 30
0.0
 10
133.640032
 20
66.011301
 30
0.0
 10
135.756917
 20
61.033975
 30
0.0
 10
137.380180
 20
54.137707
 30
0.0
 10
138.093666
 20
48.235068
 30
0.0
 10
138.050182
 20
42.164220
 30
0.0
 10
137.254123
 20
35.988831
 30
0.0
 10
135.709842
 20
29.772595
 30
0.0
 10
133.545803
 20
25.949792
 30
0.0
 10
129.693780
 20
22.024488
 30
0.0
 10
124.790606
 20
18.535946
 30
0.0
 10
119.473114
 20
16.023458
 30
0.0
 10
112.595988
 20
15.203310
 30
0.0
 10
101.245934
 20
14.917550
 30
0.0
 10
89.968940
 20
15.172384
 30
0.0
 10
83.310989
 20
15.974107
 30
0.0
 10
80.940400
 20
16.501521
 30
0.0
 10
78.662340
 20
16.420167
 30
0.0
 10
76.949148
 20
15.811540
 30
0.0
 10
76.273114
 20
14.757364
 30
0.0
 10
76.110802
 20
13.987729
 30
0.0
 10
75.668850
 20
12.719083
 30
0.0
 10
75.014766
 20
11.127600
 30
0.0
 10
74.216040
 20
9.389395
 30
0.0
 10
73.080379
 20
7.357946
 30
0.0
 10
71.834164
 20
5.781005
 30
0.0
 10
70.398880
 20
4.577131
 30
0.0
 10
68.696041
 20
3.664913
 30
0.0
 10
64.414895
 20
2.429802
 30
0.0
 10
57.986625
 20
1.101770
 30
0.0
 10
51.607331
 20
0.083197
 30
0.0
 10
47.473119
 20
-0.223569
 30
0.0
 10
46.042871
 20
-0.125490
 30
0.0
 10
43.213120
 20
0.055077
 30
0.0
 10
39.393362
 20
0.292904
 30
0.0
 10
34.993119
 20
0.562195
 30
0.0
 10
34.993119
 20
0.562167
 30
0.0
 10
34.993119
 20
0.562139
 30
0.0
 10
34.993119
 20
0.562139
 30
0.0
  0
LWPOLYLINE
  5
101
100
AcDbEntity
  8
Layer_1
 62
7
100
AcDbPolyline
 90
256
 70
1
 10
55.153151
 20
3.049682
 30
0.0
 10
60.088805
 20
3.744198
 30
0.0
 10
64.061527
 20
4.912951
 30
0.0
 10
67.376132
 20
6.678680
 30
0.0
 10
70.337421
 20
9.164154
 30
0.0
 10
71.890464
 20
11.788243
 30
0.0
 10
72.490547
 20
14.528381
 30
0.0
 10
72.247873
 20
17.470885
 30
0.0
 10
71.037737
 20
20.467134
 30
0.0
 10
69.567574
 20
24.969231
 30
0.0
 10
69.002861
 20
28.572406
 30
0.0
 10
68.837374
 20
32.117046
 30
0.0
 10
69.387154
 20
35.973609
 30
0.0
 10
70.164788
 20
39.324728
 30
0.0
 10
71.004793
 20
42.183383
 30
0.0
 10
71.708117
 20
44.480891
 30
0.0
 10
72.663029
 20
46.853291
 30
0.0
 10
73.500905
 20
48.451124
 30
0.0
 10
74.866082
 20
50.244718
 30
0.0
 10
76.420653
 20
51.235824
 30
0.0
 10
78.179085
 20
52.188180
 30
0.0
 10
80.954331
 20
53.425502
 30
0.0
 10
83.836012
 20
54.270765
 30
0.0
 10
86.883554
 20
54.858217
 30
0.0
 10
90.861146
 20
55.204554
 30
0.0
 10
94.827314
 20
54.860031
 30
0.0
 10
97.104900
 20
54.244290
 30
0.0
 10
99.692345
 20
53.162306
 30
0.0
 10
102.121004
 20
51.416986
 30
0.0
 10
104.296703
 20
48.870992
 30
0.0
 10
105.722178
 20
46.505877
 30
0.0
 10
106.501294
 20
44.149521
 30
0.0
 10
106.737902
 20
41.512450
 30
0.0
 10
106.706211
 20
39.654765
 30
0.0
 10
106.619953
 20
38.037742
 30
0.0
 10
106.139900
 20
37.302321
 30
0.0
 10
105.631639
 20
37.032180
 30
0.0
 10
105.346261
 20
36.982573
 30
0.0
 10
104.866036
 20
36.847077
 30
0.0
 10
104.257984
 20
36.646668
 30
0.0
 10
103.589124
 20
36.402321
 30
0.0
 10
102.750523
 20
36.204180
 30
0.0
 10
102.319379
 20
36.542268
 30
0.0
 10
102.230569
 20
37.590378
 30
0.0
 10
102.419016
 20
39.522104
 30
0.0
 10
101.181166
 20
45.896598
 30
0.0
 10
96.468066
 20
49.985745
 30
0.0
 10
89.540155
 20
51.213855
 30
0.0
 10
81.657876
 20
49.005184
 30
0.0
 10
80.622901
 20
48.338929
 30
0.0
 10
79.616367
 20
47.772057
 30
0.0
 10
77.821061
 20
45.882680
 30
0.0
 10
76.559196
 20
44.185436
 30
0.0
 10
74.922928
 20
41.621272
 30
0.0
 10
73.665995
 20
36.722693
 30
0.0
 10
73.498836
 20
28.365279
 30
0.0
 10
75.073139
 20
22.707241
 30
0.0
 10
78.201298
 20
20.482753
 30
0.0
 10
83.584208
 20
18.966926
 30
0.0
 10
91.590885
 20
18.093940
 30
0.0
 10
102.590348
 20
17.797918
 30
0.0
 10
108.975155
 20
17.852910
 30
0.0
 10
113.990176
 20
18.041698
 30
0.0
 10
117.373283
 20
18.348350
 30
0.0
 10
118.862345
 20
18.757106
 30
0.0
 10
119.389419
 20
19.143354
 30
0.0
 10
120.089157
 20
19.459672
 30
0.0
 10
120.870346
 20
19.673405
 30
0.0
 10
121.641795
 20
19.751924
 30
0.0
 10
122.287927
 20
19.827609
 30
0.0
 10
122.727923
 20
20.033972
 30
0.0
 10
122.922692
 20
20.339235
 30
0.0
 10
122.833145
 20
20.711962
 30
0.0
 10
122.705955
 20
21.084690
 30
0.0
 10
122.798194
 20
21.389981
 30
0.0
 10
123.086395
 20
21.596343
 30
0.0
 10
123.547034
 20
21.672028
 30
0.0
 10
125.870845
 20
22.923439
 30
0.0
 10
129.056465
 20
25.883717
 30
0.0
 10
131.974804
 20
29.361883
 30
0.0
 10
133.496790
 20
32.166964
 30
0.0
 10
133.783676
 20
33.335745
 30
0.0
 10
134.171229
 20
34.695808
 30
0.0
 10
134.608640
 20
36.078265
 30
0.0
 10
135.045108
 20
37.314198
 30
0.0
 10
135.595945
 20
41.120334
 30
0.0
 10
135.423740
 20
46.753540
 30
0.0
 10
134.625861
 20
53.019638
 30
0.0
 10
133.299666
 20
58.724391
 30
0.0
 10
131.704404
 20
62.663244
 30
0.0
 10
129.438040
 20
66.109521
 30
0.0
 10
126.318453
 20
69.287159
 30
0.0
 10
122.163506
 20
72.420151
 30
0.0
 10
118.391559
 20
74.445307
 30
0.0
 10
114.285203
 20
75.796271
 30
0.0
 10
110.282428
 20
76.369124
 30
0.0
 10
106.821207
 20
76.059893
 30
0.0
 10
105.827049
 20
75.607540
 30
0.0
 10
104.767245
 20
74.800403
 30
0.0
 10
103.768574
 20
73.752746
 30
0.0
 10
102.957783
 20
72.578750
 30
0.0
 10
102.205667
 20
71.450079
 30
0.0
 10
101.366705
 20
70.525786
 30
0.0
 10
100.543292
 20
69.901285
 30
0.0
 10
99.837785
 20
69.671962
 30
0.0
 10
99.261323
 20
69.611584
 30
0.0
 10
98.789250
 20
69.446608
 30
0.0
 10
98.470281
 20
69.202545
 30
0.0
 10
98.353125
 20
68.904737
 30
0.0
 10
97.210290
 20
67.758831
 30
0.0
 10
94.172156
 20
66.776513
 30
0.0
 10
89.824283
 20
66.090104
 30
0.0
 10
84.752232
 20
65.831868
 30
0.0
 10
80.591556
 20
65.901033
 30
0.0
 10
78.017063
 20
66.308740
 30
0.0
 10
76.099331
 20
67.356595
 30
0.0
 10
73.909137
 20
69.346091
 30
0.0
 10
72.436167
 20
70.944661
 30
0.0
 10
71.100530
 20
72.699250
 30
0.0
 10
70.049231
 20
74.397260
 30
0.0
 10
69.429249
 20
75.826091
 30
0.0
 10
68.995009
 20
79.032302
 30
0.0
 10
69.183541
 20
82.688088
 30
0.0
 10
69.883963
 20
85.932709
 30
0.0
 10
70.985381
 20
87.905395
 30
0.0
 10
72.639584
 20
88.367443
 30
0.0
 10
73.796746
 20
87.439493
 30
0.0
 10
73.834673
 20
85.257921
 30
0.0
 10
73.188366
 20
82.428860
 30
0.0
 10
72.643337
 20
79.808769
 30
0.0
 10
73.064095
 20
77.278847
 30
0.0
 10
74.057465
 20
75.135146
 30
0.0
 10
75.935188
 20
73.321228
 30
0.0
 10
77.672100
 20
72.013011
 30
0.0
 10
79.882226
 20
71.089880
 30
0.0
 10
82.730151
 20
70.583244
 30
0.0
 10
87.085244
 20
70.289490
 30
0.0
 10
90.692226
 20
70.492450
 30
0.0
 10
92.509427
 20
70.930942
 30
0.0
 10
95.002347
 20
71.529676
 30
0.0
 10
97.230127
 20
72.683291
 30
0.0
 10
98.500419
 20
73.864346
 30
0.0
 10
99.771704
 20
75.332296
 30
0.0
 10
100.677929
 20
76.852120
 30
0.0
 10
101.545050
 20
78.969430
 30
0.0
 10
103.055780
 20
82.779534
 30
0.0
 10
104.094814
 20
88.121083
 30
0.0
 10
103.941204
 20
93.346413
 30
0.0
 10
103.153226
 20
95.591764
 30
0.0
 10
102.780479
 20
95.725843
 30
0.0
 10
102.475227
 20
96.091370
 30
0.0
 10
102.268979
 20
96.632334
 30
0.0
 10
102.193209
 20
97.292891
 30
0.0
 10
101.274066
 20
99.835115
 30
0.0
 10
98.884508
 20
102.872948
 30
0.0
 10
95.576340
 20
105.826195
 30
0.0
 10
91.901375
 20
108.114576
 30
0.0
 10
88.982147
 20
109.313972
 30
0.0
 10
85.603836
 20
109.962737
 30
0.0
 10
80.295259
 20
110.213036
 30
0.0
 10
71.585240
 20
110.218706
 30
0.0
 10
64.952070
 20
110.107020
 30
0.0
 10
59.798132
 20
109.872595
 30
0.0
 10
56.349746
 20
109.530879
 30
0.0
 10
54.833241
 20
109.096809
 30
0.0
 10
54.301603
 20
108.699222
 30
0.0
 10
53.610996
 20
108.373578
 30
0.0
 10
52.850818
 20
108.153609
 30
0.0
 10
52.110411
 20
108.072822
 30
0.0
 10
49.835965
 20
107.487666
 30
0.0
 10
46.777626
 20
106.002822
 30
0.0
 10
43.659437
 20
104.024324
 30
0.0
 10
41.205447
 20
101.958123
 30
0.0
 10
37.704730
 20
97.772230
 30
0.0
 10
35.428878
 20
93.533471
 30
0.0
 10
34.061598
 20
88.430825
 30
0.0
 10
33.286584
 20
81.653301
 30
0.0
 10
33.210899
 20
78.061663
 30
0.0
 10
33.257443
 20
75.076611
 30
0.0
 10
33.676934
 20
73.227061
 30
0.0
 10
35.379646
 20
71.204117
 30
0.0
 10
35.021860
 20
71.206894
 30
0.0
 10
35.379646
 20
71.204117
 30
0.0
 10
37.070410
 20
70.775036
 30
0.0
 10
39.080585
 20
70.421443
 30
0.0
 10
43.382605
 20
69.410013
 30
0.0
 10
46.782351
 20
67.572000
 30
0.0
 10
50.010616
 20
64.916561
 30
0.0
 10
52.975967
 20
60.983036
 30
0.0
 10
54.472782
 20
54.748658
 30
0.0
 10
54.430659
 20
47.235317
 30
0.0
 10
52.962843
 20
40.021002
 30
0.0
 10
50.182574
 20
34.683647
 30
0.0
 10
47.694549
 20
32.830809
 30
0.0
 10
43.633100
 20
31.316882
 30
0.0
 10
38.889354
 20
30.888879
 30
0.0
 10
34.706818
 20
31.236661
 30
0.0
 10
32.727254
 20
32.020299
 30
0.0
 10
31.269838
 20
33.101093
 30
0.0
 10
29.906991
 20
34.286003
 30
0.0
 10
28.563520
 20
36.204208
 30
0.0
 10
27.347094
 20
39.384737
 30
0.0
 10
26.864464
 20
41.942296
 30
0.0
 10
27.047315
 20
44.292898
 30
0.0
 10
27.944797
 20
46.382712
 30
0.0
 10
29.527551
 20
47.494630
 30
0.0
 10
30.650114
 20
47.299606
 30
0.0
 10
31.053560
 20
45.926050
 30
0.0
 10
31.183727
 20
43.033011
 30
0.0
 10
31.530869
 20
38.995313
 30
0.0
 10
32.775276
 20
36.583937
 30
0.0
 10
35.321394
 20
35.417112
 30
0.0
 10
39.573692
 20
35.113011
 30
0.0
 10
42.777011
 20
35.195216
 30
0.0
 10
44.843882
 20
35.572450
 30
0.0
 10
46.334679
 20
36.441128
 30
0.0
 10
47.809721
 20
37.997575
 30
0.0
 10
49.752128
 20
41.262803
 30
0.0
 10
50.836686
 20
45.338740
 30
0.0
 10
51.041262
 20
50.074101
 30
0.0
 10
50.343710
 20
55.317685
 30
0.0
 10
48.983822
 20
59.546693
 30
0.0
 10
46.797046
 20
62.716734
 30
0.0
 10
43.541031
 20
65.073940
 30
0.0
 10
38.973402
 20
66.864444
 30
0.0
 10
34.745491
 20
67.417030
 30
0.0
 10
29.443133
 20
67.025735
 30
0.0
 10
23.611089
 20
65.771206
 30
0.0
 10
17.794106
 20
63.733946
 30
0.0
 10
14.813757
 20
62.268690
 30
0.0
 10
12.673414
 20
60.595909
 30
0.0
 10
10.928885
 20
58.256872
 30
0.0
 10
9.135987
 20
54.792935
 30
0.0
 10
7.624949
 20
51.200107
 30
0.0
 10
6.617468
 20
47.669556
 30
0.0
 10
5.963708
 20
43.507389
 30
0.0
 10
5.513828
 20
38.019742
 30
0.0
 10
5.406755
 20
33.206315
 30
0.0
 10
5.861089
 20
28.944567
 30
0.0
 10
7.034813
 20
24.377783
 30
0.0
 10
9.085912
 20
18.649276
 30
0.0
 10
12.468040
 20
12.624151
 30
0.0
 10
17.267185
 20
7.808598
 30
0.0
 10
22.982742
 20
4.585408
 30
0.0
 10
29.114103
 20
3.337228
 30
0.0
 10
31.027087
 20
3.235181
 30
0.0
 10
32.954206
 20
3.027685
 30
0.0
 10
34.671038
 20
2.745071
 30
0.0
 10
35.953188
 20
2.417556
 30
0.0
 10
37.813696
 20
1.997631
 30
0.0
 10
40.809395
 20
1.935836
 30
0.0
 10
46.176987
 20
2.273187
 30
0.0
 10
55.153187
 20
3.050362
 30
0.0
 10
55.153187
 20
3.050362
 30
0.0
 10
55.153184
 20
3.050362
 30
0.0
 10
55.153122
 20
3.050447
 30
0.0
  0
LWPOLYLINE
  5
102
100
AcDbEntity
  8
Layer_1
 62
7
100
AcDbPolyline
 90
16
 70
1
 10
22.095326
 20
12.931597
 30
0.0
 10
21.999858
 20
13.307811
 30
0.0
 10
22.132557
 20
13.696781
 30
0.0
 10
22.464795
 20
14.052699
 30
0.0
 10
22.967926
 20
14.329644
 30
0.0
 10
24.019422
 20
14.459471
 30
0.0
 10
24.793385
 20
14.107181
 30
0.0
 10
25.094434
 20
13.455241
 30
0.0
 10
24.727058
 20
12.686173
 30
0.0
 10
24.037233
 20
12.216813
 30
0.0
 10
23.319101
 20
12.105978
 30
0.0
 10
22.647017
 20
12.346639
 30
0.0
 10
22.095327
 20
12.931795
 30
0.0
 10
22.095327
 20
12.931795
 30
0.0
 10
22.095327
 20
12.931795
 30
0.0
 10
22.095327
 20
12.931767
 30
0.0
  0
LWPOLYLINE
  5
103
100
AcDbEntity
  8
Layer_1
 62
7
100
AcDbPolyline
 90
18
 70
1
 10
41.233156
 20
26.472189
 30
0.0
 10
41.251864
 20
26.811213
 30
0.0
 10
41.270573
 20
27.150208
 30
0.0
 10
41.731946
 20
27.291373
 30
0.0
 10
42.193315
 20
27.432255
 30
0.0
 10
42.654688
 20
27.291373
 30
0.0
 10
43.116058
 20
27.150208
 30
0.0
 10
43.134766
 20
26.811213
 30
0.0
 10
43.153475
 20
26.472189
 30
0.0
 10
43.388467
 20
25.551780
 30
0.0
 10
43.623459
 20
24.631370
 30
0.0
 10
43.623459
 20
24.631370
 30
0.0
 10
43.623459
 20
24.631370
 30
0.0
 10
42.068908
 20
24.797480
 30
0.0
 10
40.514357
 20
24.963591
 30
0.0
 10
40.873927
 20
25.717861
 30
0.0
 10
41.233496
 20
26.472161
 30
0.0
 10
41.233507
 20
26.472161
 30
0.0
  0
LWPOLYLINE
  5
104
100
AcDbEntity
  8
Layer_1
 62
7
100
AcDbPolyline
 90
14
 70
1
 10
10.873403
 20
32.278649
 30
0.0
 10
11.097926
 20
33.118498
 30
0.0
 10
11.322450
 20
33.958375
 30
0.0
 10
11.882395
 20
34.047950
 30
0.0
 10
12.442339
 20
34.137524
 30
0.0
 10
13.035590
 20
34.001745
 30
0.0
 10
13.628841
 20
33.865965
 30
0.0
 10
13.875592
 20
33.529124
 30
0.0
 10
14.122342
 20
33.192283
 30
0.0
 10
13.982038
 20
32.753225
 30
0.0
 10
13.841735
 20
32.314167
 30
0.0
 10
13.105096
 20
31.590397
 30
0.0
 10
12.368458
 20
30.866655
 30
0.0
 10
11.620930
 20
31.572652
 30
0.0
  0
LWPOLYLINE
  5
105
100
AcDbEntity
  8
Layer_1
 62
7
100
AcDbPolyline
 90
16
 70
1
 10
39.793156
 20
42.792208
 30
0.0
 10
39.868897
 20
43.164907
 30
0.0
 10
40.075146
 20
43.470198
 30
0.0
 10
40.380398
 20
43.676561
 30
0.0
 10
40.753145
 20
43.752246
 30
0.0
 10
41.125893
 20
43.676561
 30
0.0
 10
41.431147
 20
43.470198
 30
0.0
 10
41.637396
 20
43.164935
 30
0.0
 10
41.713138
 20
42.792208
 30
0.0
 10
41.637396
 20
42.419480
 30
0.0
 10
41.431147
 20
42.114189
 30
0.0
 10
41.125895
 20
41.907827
 30
0.0
 10
40.753145
 20
41.832142
 30
0.0
 10
40.380401
 20
41.907827
 30
0.0
 10
40.075146
 20
42.114189
 30
0.0
 10
39.868897
 20
42.419452
 30
0.0
  0
LWPOLYLINE
  5
106
100
AcDbEntity
  8
Layer_1
 62
7
100
AcDbPolyline
 90
16
 70
1
 10
88.324316
 20
45.307162
 30
0.0
 10
88.324316
 20
45.307162
 30
0.0
 10
88.324316
 20
45.307162
 30
0.0
 10
89.078610
 20
45.738907
 30
0.0
 10
89.832903
 20
46.170624
 30
0.0
 10
90.171901
 20
45.655852
 30
0.0
 10
90.510902
 20
45.141052
 30
0.0
 10
90.651898
 20
44.802057
 30
0.0
 10
90.792893
 20
44.463033
 30
0.0
 10
90.651898
 20
44.124009
 30
0.0
 10
90.510902
 20
43.785014
 30
0.0
 10
90.171904
 20
43.187159
 30
0.0
 10
89.832903
 20
42.589304
 30
0.0
 10
88.829436
 20
42.896438
 30
0.0
 10
87.825969
 20
43.203600
 30
0.0
 10
88.075134
 20
44.255367
 30
0.0
  0
LWPOLYLINE
  5
107
100
AcDbEntity
  8
Layer_1
 62
7
100
AcDbPolyline
 90
18
 70
1
 10
121.393151
 20
52.448854
 30
0.0
 10
121.534146
 20
52.720696
 30
0.0
 10
121.675141
 20
52.992539
 30
0.0
 10
122.138728
 20
53.389106
 30
0.0
 10
122.602314
 20
53.785701
 30
0.0
 10
123.190492
 20
53.181751
 30
0.0
 10
123.778667
 20
52.577830
 30
0.0
 10
123.778667
 20
52.577830
 30
0.0
 10
123.778667
 20
52.577830
 30
0.0
 10
124.027832
 20
51.817946
 30
0.0
 10
124.276997
 20
51.058091
 30
0.0
 10
123.522707
 20
50.663622
 30
0.0
 10
122.768413
 20
50.269181
 30
0.0
 10
122.080774
 20
51.358904
 30
0.0
 10
121.393131
 20
52.448655
 30
0.0
 10
121.393131
 20
52.448655
 30
0.0
 10
121.393131
 20
52.448655
 30
0.0
 10
121.393131
 20
52.448712
 30
0.0
  0
LWPOLYLINE
  5
108
100
AcDbEntity
  8
Layer_1
 62
7
100
AcDbPolyline
 90
14
 70
1
 10
42.035553
 20
53.896734
 30
0.0
 10
41.913096
 20
55.385830
 30
0.0
 10
42.532826
 20
56.519858
 30
0.0
 10
43.575197
 20
56.990324
 30
0.0
 10
44.720634
 20
56.488677
 30
0.0
 10
45.287807
 20
55.330186
 30
0.0
 10
45.220853
 20
53.979591
 30
0.0
 10
44.631921
 20
52.859424
 30
0.0
 10
43.633159
 20
52.392132
 30
0.0
 10
43.191456
 20
52.510904
 30
0.0
 10
42.743007
 20
52.834139
 30
0.0
 10
42.340235
 20
53.312542
 30
0.0
 10
42.035559
 20
53.896734
 30
0.0
 10
42.035559
 20
53.896762
 30
0.0
  0
LWPOLYLINE
  5
109
100
AcDbEntity
  8
Layer_1
 62
7
100
AcDbPolyline
 90
16
 70
1
 10
64.459253
 20
58.766117
 30
0.0
 10
64.091906
 20
59.535099
 30
0.0
 10
64.392922
 20
60.187096
 30
0.0
 10
65.166888
 20
60.539471
 30
0.0
 10
66.218380
 20
60.409644
 30
0.0
 10
66.721516
 20
60.132699
 30
0.0
 10
67.053750
 20
59.776838
 30
0.0
 10
67.186440
 20
59.387839
 30
0.0
 10
67.090969
 20
59.011654
 30
0.0
 10
66.539279
 20
58.426498
 30
0.0
 10
65.867193
 20
58.185836
 30
0.0
 10
65.149061
 20
58.296671
 30
0.0
 10
64.459239
 20
58.766031
 30
0.0
 10
64.459239
 20
58.766003
 30
0.0
 10
64.459239
 20
58.766003
 30
0.0
 10
64.459247
 20
58.766031
 30
0.0
  0
LWPOLYLINE
  5
10a
100
AcDbEntity
  8
Layer_1
 62
7
100
AcDbPolyline
 90
14
 70
1
 10
88.288234
 20
75.407811
 30
0.0
 10
87.911402
 20
76.506491
 30
0.0
 10
88.178709
 20
77.313260
 30
0.0
 10
89.359291
 20
77.555622
 30
0.0
 10
90.725615
 20
77.293417
 30
0.0
 10
91.173206
 20
76.480894
 30
0.0
 10
91.229984
 20
75.739380
 30
0.0
 10
90.970812
 20
75.441231
 30
0.0
 10
90.304398
 20
75.128088
 30
0.0
 10
89.684422
 20
74.973317
 30
0.0
 10
89.097633
 20
74.974535
 30
0.0
 10
88.610190
 20
75.122504
 30
0.0
 10
88.288245
 20
75.408180
 30
0.0
 10
88.288237
 20
75.408038
 30
0.0
  0
LWPOLYLINE
  5
10b
100
AcDbEntity
  8
Layer_1
 62
7
100
AcDbPolyline
 90
14
 70
1
 10
42.353155
 20
77.992214
 30
0.0
 10
41.801335
 20
78.808224
 30
0.0
 10
41.776673
 20
79.526438
 30
0.0
 10
42.032642
 20
80.743550
 30
0.0
 10
42.737771
 20
81.644202
 30
0.0
 10
43.795247
 20
81.696643
 30
0.0
 10
44.751472
 20
81.553493
 30
0.0
 10
45.310028
 20
80.265005
 30
0.0
 10
45.672823
 20
78.875348
 30
0.0
 10
44.938281
 20
77.921036
 30
0.0
 10
43.887297
 20
77.415902
 30
0.0
 10
43.169063
 20
77.438580
 30
0.0
 10
42.353065
 20
77.990939
 30
0.0
 10
42.353065
 20
77.990882
 30
0.0
  0
LWPOLYLINE
  5
10c
100
AcDbEntity
  8
Layer_1
 62
7
100
AcDbPolyline
 90
12
 70
1
 10
89.377787
 20
97.001461
 30
0.0
 10
89.269787
 20
98.100000
 30
0.0
 10
89.729609
 20
98.908951
 30
0.0
 10
90.566884
 20
99.258321
 30
0.0
 10
91.591231
 20
98.978258
 30
0.0
 10
92.044896
 20
98.183565
 30
0.0
 10
91.960339
 20
97.049169
 30
0.0
 10
91.461719
 20
96.032863
 30
0.0
 10
90.673140
 20
95.592359
 30
0.0
 10
90.337476
 20
95.703477
 30
0.0
 10
89.981365
 20
96.006274
 30
0.0
 10
89.647316
 20
96.454375
 30
0.0
  0
LWPOLYLINE
  5
10d
100
AcDbEntity
  8
Layer_1
 62
7
100
AcDbPolyline
 90
14
 70
1
 10
50.874151
 20
97.445877
 30
0.0
 10
50.475158
 20
98.607713
 30
0.0
 10
50.734329
 20
99.585808
 30
0.0
 10
51.947782
 20
99.950967
 30
0.0
 10
53.248819
 20
99.771817
 30
0.0
 10
53.738184
 20
98.702816
 30
0.0
 10
53.667771
 20
97.497241
 30
0.0
 10
53.143781
 20
96.831071
 30
0.0
 10
52.273157
 20
96.551008
 30
0.0
 10
51.900823
 20
96.621591
 30
0.0
 10
51.512941
 20
96.813496
 30
0.0
 10
51.155419
 20
97.097613
 30
0.0
 10
50.874165
 20
97.444658
 30
0.0
 10
50.874168
 20
97.445339
 30
0.0
  0
LWPOLYLINE
  5
10e
100
AcDbEntity
  8
Layer_1
 62
7
100
AcDbPolyline
 90
16
 70
1
 10
78.433152
 20
97.241783
 30
0.0
 10
77.538441
 20
97.828554
 30
0.0
 10
77.273005
 20
98.949855
 30
0.0
 10
77.208715
 20
100.181254
 30
0.0
 10
77.748007
 20
101.118387
 30
0.0
 10
78.912264
 20
101.318513
 30
0.0
 10
80.017696
 20
101.227521
 30
0.0
 10
80.574372
 20
100.545194
 30
0.0
 10
81.239051
 20
99.449858
 30
0.0
 10
80.998135
 20
98.120353
 30
0.0
 10
80.307349
 20
97.290595
 30
0.0
 10
79.588587
 20
97.009115
 30
0.0
 10
78.433191
 20
97.241839
 30
0.0
 10
78.433186
 20
97.241839
 30
0.0
 10
78.433183
 20
97.241839
 30
0.0
 10
78.433174
 20
97.241811
 30
0.0
  0
LWPOLYLINE
  5
10f
100
AcDbEntity
  8
Layer_1
 62
7
100
AcDbPolyline
 90
16
 70
1
 10
66.673154
 20
104.232246
 30
0.0
 10
66.748895
 20
104.604945
 30
0.0
 10
66.955144
 20
104.910236
 30
0.0
 10
67.260396
 20
105.116598
 30
0.0
 10
67.633143
 20
105.192283
 30
0.0
 10
68.005891
 20
105.116598
 30
0.0
 10
68.311145
 20
104.910236
 30
0.0
 10
68.517394
 20
104.604973
 30
0.0
 10
68.593136
 20
104.232246
 30
0.0
 10
68.517394
 20
103.859518
 30
0.0
 10
68.311145
 20
103.554227
 30
0.0
 10
68.005896
 20
103.347865
 30
0.0
 10
67.633143
 20
103.272180
 30
0.0
 10
67.260396
 20
103.347865
 30
0.0
 10
66.955144
 20
103.554227
 30
0.0
 10
66.748895
 20
103.859490
 30
0.0
  0
ENDSEC
  0
SECTION
  2
OBJECTS
  0
DICTIONARY
  5
C
330
0
100
AcDbDictionary
  3
ACAD_GROUP
350
D
  3
ACAD_MLINESTYLE
350
17
  0
DICTIONARY
  5
D
330
C
100
AcDbDictionary
  0
DICTIONARY
  5
1A
330
C
100
AcDbDictionary
  0
DICTIONARY
  5
17
330
C
100
AcDbDictionary
  3
STANDARD
350
18
  0
DICTIONARY
  5
19
330
C
100
AcDbDictionary
  0
ENDSEC
  0
EOF
