  0
SECTION
  2
HEADER
  9
$ACADVER
  1
AC1014
  9
$HANDSEED
  5
FFFF
  9
$MEASUREMENT
 70
     1
  0
ENDSEC
  0
SECTION
  2
TABLES
  0
TABLE
  2
VPORT
  5
8
330
0
100
AcDbSymbolTable
 70
     4
  0
VPORT
  5
2E
330
8
100
AcDbSymbolTableRecord
100
AcDbViewportTableRecord
  2
*ACTIVE
 70
     0
 10
0.0
 20
0.0
 11
1.0
 21
1.0
 12
210.0
 22
148.5
 13
0.0
 23
0.0
 14
10.0
 24
10.0
 15
10.0
 25
10.0
 16
0.0
 26
0.0
 36
1.0
 17
0.0
 27
0.0
 37
0.0
 40
341.0
 41
1.24
 42
50.0
 43
0.0
 44
0.0
 50
0.0
 51
0.0
 71
     0
 72
   100
 73
     1
 74
     3
 75
     0
 76
     0
 77
     0
 78
     0
  0
ENDTAB
  0
TABLE
  2
LTYPE
  5
5
330
0
100
AcDbSymbolTable
 70
     1
  0
LTYPE
  5
14
330
5
100
AcDbSymbolTableRecord
100
AcDbLinetypeTableRecord
  2
BYBLOCK
 70
     0
  3

 72
    65
 73
     0
 40
0.0
  0
LTYPE
  5
15
330
5
100
AcDbSymbolTableRecord
100
AcDbLinetypeTableRecord
  2
BYLAYER
 70
     0
  3

 72
    65
 73
     0
 40
0.0
  0
LTYPE
  5
16
330
5
100
AcDbSymbolTableRecord
100
AcDbLinetypeTableRecord
  2
CONTINUOUS
 70
     0
  3
Solid line
 72
    65
 73
     0
 40
0.0
  0
ENDTAB
  0
TABLE
  2
LAYER
  5
2
100
AcDbSymbolTable
 70
2
  0
LAYER
  5
50
100
AcDbSymbolTableRecord
100
AcDbLayerTableRecord
  2
0
 70
0
  6
CONTINUOUS
  0
LAYER
  5
51
100
AcDbSymbolTableRecord
100
AcDbLayerTableRecord
  2
Layer_1
 70
0
  6
CONTINUOUS
  0
ENDTAB
  0
TABLE
  2
STYLE
  5
3
330
0
100
AcDbSymbolTable
 70
     1
  0
STYLE
  5
11
330
3
100
AcDbSymbolTableRecord
100
AcDbTextStyleTableRecord
  2
STANDARD
 70
     0
 40
0.0
 41
1.0
 50
0.0
 71
     0
 42
2.5
  3
txt
  4

  0
ENDTAB
  0
TABLE
  2
VIEW
  5
6
330
0
100
AcDbSymbolTable
 70
     0
  0
ENDTAB
  0
TABLE
  2
UCS
  5
7
330
0
100
AcDbSymbolTable
 70
     0
  0
ENDTAB
  0
TABLE
  2
APPID
  5
9
330
0
100
AcDbSymbolTable
 70
     2
  0
APPID
  5
12
330
9
100
AcDbSymbolTableRecord
100
AcDbRegAppTableRecord
  2
ACAD
 70
     0
  0
ENDTAB
  0
TABLE
  2
DIMSTYLE
  5
A
330
0
100
AcDbSymbolTable
 70
     1
  0
DIMSTYLE
105
27
330
A
100
AcDbSymbolTableRecord
100
AcDbDimStyleTableRecord
  2
ISO-25
 70
     0
  3

  4

  5

  6

  7

 40
1.0
 41
2.5
 42
0.625
 43
3.75
 44
1.25
 45
0.0
 46
0.0
 47
0.0
 48
0.0
140
2.5
141
2.5
142
0.0
143
0.03937007874016
144
1.0
145
0.0
146
1.0
147
0.625
 71
     0
 72
     0
 73
     0
 74
     0
 75
     0
 76
     0
 77
     1
 78
     8
170
     0
171
     3
172
     1
173
     0
174
     0
175
     0
176
     0
177
     0
178
     0
270
     2
271
     2
272
     2
273
     2
274
     3
340
11
275
     0
280
     0
281
     0
282
     0
283
     0
284
     8
285
     0
286
     0
287
     3
288
     0
  0
ENDTAB
  0
TABLE
  2
BLOCK_RECORD
  5
1
330
0
100
AcDbSymbolTable
 70
     1
  0
BLOCK_RECORD
  5
1F
330
1
100
AcDbSymbolTableRecord
100
AcDbBlockTableRecord
  2
*MODEL_SPACE
  0
BLOCK_RECORD
  5
1B
330
1
100
AcDbSymbolTableRecord
100
AcDbBlockTableRecord
  2
*PAPER_SPACE
  0
ENDTAB
  0
ENDSEC
  0
SECTION
  2
BLOCKS
  0
BLOCK
  5
20
330
1F
100
AcDbEntity
  8
0
100
AcDbBlockBegin
  2
*MODEL_SPACE
 70
     0
 10
0.0
 20
0.0
 30
0.0
  3
*MODEL_SPACE
  1

  0
ENDBLK
  5
21
330
1F
100
AcDbEntity
  8
0
100
AcDbBlockEnd
  0
BLOCK
  5
1C
330
1B
100
AcDbEntity
 67
     1
  8
0
100
AcDbBlockBegin
  2
*PAPER_SPACE
  1

  0
ENDBLK
  5
1D
330
1B
100
AcDbEntity
 67
     1
  8
0
100
AcDbBlockEnd
  0
ENDSEC
  0
SECTION
  2
ENTITIES
  0
LWPOLYLINE
  5
100
100
AcDbEntity
  8
Layer_1
 62
7
100
AcDbPolyline
 90
47
 70
0
 10
20.634684
 20
98.947474
 30
0.0
 10
31.703822
 20
103.081691
 30
0.0
 10
50.049128
 20
107.312740
 30
0.0
 10
58.883797
 20
108.115285
 30
0.0
 10
71.448120
 20
108.268639
 30
0.0
 10
82.572919
 20
107.574548
 30
0.0
 10
87.089014
 20
107.441603
 30
0.0
 10
88.375694
 20
107.409855
 30
0.0
 10
91.939374
 20
107.195272
 30
0.0
 10
100.471757
 20
105.804085
 30
0.0
 10
105.965444
 20
103.954535
 30
0.0
 10
108.008246
 20
102.858548
 30
0.0
 10
110.317527
 20
101.883317
 30
0.0
 10
117.779525
 20
96.641631
 30
0.0
 10
124.532507
 20
83.568359
 30
0.0
 10
127.255635
 20
65.810665
 30
0.0
 10
126.444144
 20
46.793452
 30
0.0
 10
125.461069
 20
42.201723
 30
0.0
 10
124.484026
 20
37.488359
 30
0.0
 10
120.248271
 20
22.602756
 30
0.0
 10
112.406488
 20
12.632513
 30
0.0
 10
106.106910
 20
7.205046
 30
0.0
 10
99.980969
 20
4.409660
 30
0.0
 10
95.709963
 20
2.756636
 30
0.0
 10
93.214208
 20
1.912649
 30
0.0
 10
90.961574
 20
1.389090
 30
0.0
 10
89.061729
 20
0.506438
 30
0.0
 10
76.213454
 20
-1.774715
 30
0.0
 10
65.015209
 20
-1.763376
 30
0.0
 10
63.006282
 20
-1.763320
 30
0.0
 10
60.997354
 20
-1.762356
 30
0.0
 10
58.001533
 20
-1.287014
 30
0.0
 10
53.322712
 20
-1.111550
 30
0.0
 10
50.979387
 20
-1.065061
 30
0.0
 10
47.512355
 20
-0.993345
 30
0.0
 10
39.408599
 20
1.317203
 30
0.0
 10
35.617521
 20
1.801332
 30
0.0
 10
33.325489
 20
2.790283
 30
0.0
 10
31.491989
 20
3.698816
 30
0.0
 10
22.359188
 20
7.936214
 30
0.0
 10
12.425692
 20
14.307874
 30
0.0
 10
7.697910
 20
20.104498
 30
0.0
 10
5.132166
 20
25.422860
 30
0.0
 10
4.702870
 20
27.416636
 30
0.0
 10
4.273574
 20
29.410441
 30
0.0
 10
2.648381
 20
54.970328
 30
0.0
 10
5.608607
 20
80.805402
 30
0.0
  0
LWPOLYLINE
  5
101
100
AcDbEntity
  8
Layer_1
 62
7
100
AcDbPolyline
 90
39
 70
1
 10
7.641451
 20
81.552132
 30
0.0
 10
5.603729
 20
70.751764
 30
0.0
 10
3.960944
 20
57.104986
 30
0.0
 10
4.470618
 20
41.938243
 30
0.0
 10
5.424284
 20
31.654176
 30
0.0
 10
7.124219
 20
25.395987
 30
0.0
 10
8.210122
 20
22.769802
 30
0.0
 10
10.918737
 20
17.913543
 30
0.0
 10
17.814400
 20
11.849357
 30
0.0
 10
24.575029
 20
8.371672
 30
0.0
 10
29.019146
 20
6.163767
 30
0.0
 10
37.238794
 20
2.811883
 30
0.0
 10
43.736219
 20
1.427131
 30
0.0
 10
56.019314
 20
-0.280658
 30
0.0
 10
77.997206
 20
-0.231052
 30
0.0
 10
86.906140
 20
1.224057
 30
0.0
 10
93.284351
 20
3.827849
 30
0.0
 10
97.671557
 20
4.904929
 30
0.0
 10
101.812555
 20
6.958857
 30
0.0
 10
106.518960
 20
9.717619
 30
0.0
 10
114.690217
 20
17.073468
 30
0.0
 10
120.010000
 20
24.500069
 30
0.0
 10
121.375647
 20
29.707002
 30
0.0
 10
123.077914
 20
35.693490
 30
0.0
 10
125.710245
 20
54.657666
 30
0.0
 10
125.313789
 20
71.550652
 30
0.0
 10
121.446329
 20
87.198775
 30
0.0
 10
114.921700
 20
96.834444
 30
0.0
 10
108.616184
 20
101.088454
 30
0.0
 10
101.966494
 20
103.805291
 30
0.0
 10
96.330830
 20
104.786816
 30
0.0
 10
93.566256
 20
105.547748
 30
0.0
 10
78.729313
 20
106.796183
 30
0.0
 10
56.439737
 20
106.773506
 30
0.0
 10
42.870733
 20
104.589921
 30
0.0
 10
28.938095
 20
101.226614
 30
0.0
 10
23.142310
 20
98.856113
 30
0.0
 10
18.050032
 20
94.867795
 30
0.0
 10
12.010661
 20
88.034173
 30
0.0
  0
LWPOLYLINE
  5
102
100
AcDbEntity
  8
Layer_1
 62
7
100
AcDbPolyline
 90
40
 70
0
 10
116.168304
 20
49.010031
 30
0.0
 10
116.979639
 20
52.692548
 30
0.0
 10
116.735547
 20
60.541909
 30
0.0
 10
116.871469
 20
69.530939
 30
0.0
 10
116.444684
 20
72.503575
 30
0.0
 10
115.418585
 20
75.770929
 30
0.0
 10
113.700246
 20
78.595483
 30
0.0
 10
111.098585
 20
79.248161
 30
0.0
 10
109.073684
 20
78.966113
 30
0.0
 10
108.231469
 20
78.288094
 30
0.0
 10
107.684113
 20
77.610104
 30
0.0
 10
106.368129
 20
77.328057
 30
0.0
 10
104.877856
 20
77.046009
 30
0.0
 10
103.911469
 20
76.367991
 30
0.0
 10
102.907321
 20
75.856110
 30
0.0
 10
101.454812
 20
75.407981
 30
0.0
 10
100.523143
 20
74.961354
 30
0.0
 10
99.591471
 20
74.514756
 30
0.0
 10
98.790846
 20
73.898419
 30
0.0
 10
97.431471
 20
73.314765
 30
0.0
 10
95.715485
 20
72.457058
 30
0.0
 10
95.572052
 20
69.647981
 30
0.0
 10
96.097122
 20
55.413071
 30
0.0
 10
95.353132
 20
44.480835
 30
0.0
 10
94.852412
 20
42.036435
 30
0.0
 10
94.351689
 20
39.592063
 30
0.0
 10
97.679398
 20
36.546038
 30
0.0
 10
101.007111
 20
33.500013
 30
0.0
 10
106.093210
 20
29.197531
 30
0.0
 10
108.975569
 20
27.407991
 30
0.0
 10
111.589413
 20
28.748891
 30
0.0
 10
113.031465
 20
31.179402
 30
0.0
 10
113.045638
 20
32.039773
 30
0.0
 10
113.455783
 20
32.475827
 30
0.0
 10
113.865928
 20
32.990513
 30
0.0
 10
113.880101
 20
34.416000
 30
0.0
 10
114.083544
 20
34.500472
 30
0.0
 10
115.173428
 20
38.071814
 30
0.0
 10
115.132496
 20
40.720167
 30
0.0
 10
115.254442
 20
44.754520
 30
0.0
  0
LWPOLYLINE
  5
103
100
AcDbEntity
  8
Layer_1
 62
7
100
AcDbPolyline
 90
77
 70
0
 10
117.677891
 20
41.123650
 30
0.0
 10
116.101729
 20
32.875569
 30
0.0
 10
112.770034
 20
26.064312
 30
0.0
 10
106.992119
 20
25.213606
 30
0.0
 10
97.412224
 20
33.570850
 30
0.0
 10
94.188960
 20
36.492265
 30
0.0
 10
92.189364
 20
36.442375
 30
0.0
 10
90.294103
 20
34.323676
 30
0.0
 10
91.196223
 20
32.079458
 30
0.0
 10
96.465478
 20
24.188825
 30
0.0
 10
99.591531
 20
16.737902
 30
0.0
 10
96.220760
 20
11.844482
 30
0.0
 10
83.464279
 20
8.239323
 30
0.0
 10
71.561758
 20
7.403556
 30
0.0
 10
57.351532
 20
8.325496
 30
0.0
 10
57.351526
 20
8.325383
 30
0.0
 10
57.351450
 20
8.325411
 30
0.0
 10
36.766137
 20
12.294482
 30
0.0
 10
30.471452
 20
17.131833
 30
0.0
 10
32.066580
 20
20.557587
 30
0.0
 10
35.901683
 20
26.123301
 30
0.0
 10
40.332569
 20
32.510409
 30
0.0
 10
40.059451
 20
35.590564
 30
0.0
 10
37.446642
 20
37.853575
 30
0.0
 10
33.805046
 20
36.644343
 30
0.0
 10
23.524278
 20
30.628885
 30
0.0
 10
15.786604
 20
27.408161
 30
0.0
 10
12.288087
 20
30.451691
 30
0.0
 10
10.254135
 20
41.545162
 30
0.0
 10
10.452830
 20
63.914627
 30
0.0
 10
15.172669
 20
81.282557
 30
0.0
 10
16.791379
 20
82.673376
 30
0.0
 10
19.945217
 20
83.088170
 30
0.0
 10
22.633362
 20
82.853745
 30
0.0
 10
23.751441
 20
82.290302
 30
0.0
 10
24.526940
 20
81.332050
 30
0.0
 10
26.391440
 20
80.148472
 30
0.0
 10
29.412984
 20
78.277408
 30
0.0
 10
32.970311
 20
75.666246
 30
0.0
 10
36.005097
 20
73.459304
 30
0.0
 10
37.770313
 20
72.560013
 30
0.0
 10
41.108462
 20
74.675622
 30
0.0
 10
42.231438
 20
77.067298
 30
0.0
 10
41.383953
 20
77.766406
 30
0.0
 10
41.031439
 20
78.856384
 30
0.0
 10
40.185439
 20
80.990617
 30
0.0
 10
38.151439
 20
84.200428
 30
0.0
 10
35.912602
 20
88.204139
 30
0.0
 10
35.271439
 20
92.277666
 30
0.0
 10
35.784017
 20
95.948079
 30
0.0
 10
38.773800
 20
97.535055
 30
0.0
 10
59.271843
 20
100.734123
 30
0.0
 10
82.791437
 20
99.986258
 30
0.0
 10
97.507213
 20
97.568192
 30
0.0
 10
99.570087
 20
94.739131
 30
0.0
 10
99.003597
 20
92.246570
 30
0.0
 10
97.671436
 20
89.808066
 30
0.0
 10
96.339319
 20
87.914381
 30
0.0
 10
95.772787
 20
86.731710
 30
0.0
 10
95.123208
 20
85.563071
 30
0.0
 10
93.591437
 20
83.703118
 30
0.0
 10
89.227233
 20
78.095594
 30
0.0
 10
90.970781
 20
74.910557
 30
0.0
 10
93.710120
 20
73.917950
 30
0.0
 10
100.810780
 20
77.081953
 30
0.0
 10
109.103238
 20
80.629398
 30
0.0
 10
114.760423
 20
81.274337
 30
0.0
 10
118.071488
 20
78.471156
 30
0.0
 10
119.359593
 20
72.769720
 30
0.0
 10
119.706800
 20
69.072576
 30
0.0
 10
119.627855
 20
65.446441
 30
0.0
 10
119.618785
 20
63.021657
 30
0.0
 10
119.556054
 20
59.864740
 30
0.0
 10
118.890147
 20
52.318602
 30
0.0
 10
118.224241
 20
44.772463
 30
0.0
 10
118.224241
 20
44.772463
 30
0.0
 10
118.224241
 20
44.772463
 30
0.0
  0
LWPOLYLINE
  5
104
100
AcDbEntity
  8
Layer_1
 62
7
100
AcDbPolyline
 90
25
 70
1
 10
89.463447
 20
12.168652
 30
0.0
 10
90.721619
 20
12.761546
 30
0.0
 10
92.465906
 20
13.008161
 30
0.0
 10
96.416997
 20
16.913565
 30
0.0
 10
91.762483
 20
26.407276
 30
0.0
 10
88.176416
 20
30.207487
 30
0.0
 10
85.301782
 20
31.248170
 30
0.0
 10
83.179877
 20
30.966973
 30
0.0
 10
81.738232
 20
30.290939
 30
0.0
 10
70.190521
 20
28.747389
 30
0.0
 10
54.951449
 20
29.294107
 30
0.0
 10
43.909682
 20
30.735666
 30
0.0
 10
38.290224
 20
24.856526
 30
0.0
 10
34.232176
 20
18.925512
 30
0.0
 10
35.297569
 20
16.669984
 30
0.0
 10
38.290173
 20
15.210510
 30
0.0
 10
42.741437
 20
13.973839
 30
0.0
 10
47.323757
 20
12.990557
 30
0.0
 10
50.631449
 20
12.140277
 30
0.0
 10
54.439078
 20
11.541940
 30
0.0
 10
60.223382
 20
11.164479
 30
0.0
 10
65.428058
 20
10.883565
 30
0.0
 10
67.842128
 20
10.517414
 30
0.0
 10
78.575814
 20
10.734831
 30
0.0
 10
89.463447
 20
12.168624
 30
0.0
  0
LWPOLYLINE
  5
105
100
AcDbEntity
  8
Layer_1
 62
7
100
AcDbPolyline
 90
26
 70
1
 10
82.311449
 20
33.467669
 30
0.0
 10
91.988453
 20
41.979572
 30
0.0
 10
94.791447
 20
57.528000
 30
0.0
 10
94.270586
 20
61.468923
 30
0.0
 10
93.749726
 20
65.409874
 30
0.0
 10
92.066105
 20
67.956491
 30
0.0
 10
90.382484
 20
70.503109
 30
0.0
 10
86.946449
 20
74.089587
 30
0.0
 10
84.334484
 20
75.406932
 30
0.0
 10
82.835294
 20
75.748564
 30
0.0
 10
81.532485
 20
76.569902
 30
0.0
 10
77.233830
 20
77.461002
 30
0.0
 10
66.220486
 20
77.769893
 30
0.0
 10
53.750792
 20
77.475175
 30
0.0
 10
49.043254
 20
75.646942
 30
0.0
 10
46.644775
 20
74.121449
 30
0.0
 10
45.130598
 20
73.486942
 30
0.0
 10
41.952674
 20
70.912176
 30
0.0
 10
38.658481
 20
65.326932
 30
0.0
 10
37.464194
 20
60.399496
 30
0.0
 10
37.114520
 20
53.191332
 30
0.0
 10
37.588516
 20
45.654463
 30
0.0
 10
39.687625
 20
41.046661
 30
0.0
 10
45.131179
 20
35.953370
 30
0.0
 10
53.991451
 20
32.317965
 30
0.0
 10
68.847880
 20
30.928167
 30
0.0
  0
LWPOLYLINE
  5
106
100
AcDbEntity
  8
Layer_1
 62
7
100
AcDbPolyline
 90
18
 70
1
 10
58.791450
 20
41.475685
 30
0.0
 10
56.857890
 20
41.883562
 30
0.0
 10
54.905289
 20
42.293962
 30
0.0
 10
50.652887
 20
46.824123
 30
0.0
 10
48.711450
 20
55.200756
 30
0.0
 10
51.181739
 20
63.522255
 30
0.0
 10
62.556979
 20
66.627609
 30
0.0
 10
72.674538
 20
66.592176
 30
0.0
 10
79.184730
 20
63.910630
 30
0.0
 10
81.644284
 20
58.168998
 30
0.0
 10
81.797071
 20
50.787893
 30
0.0
 10
79.248169
 20
43.473203
 30
0.0
 10
75.038888
 20
42.652006
 30
0.0
 10
77.303282
 20
42.222841
 30
0.0
 10
73.317283
 20
41.341436
 30
0.0
 10
66.292228
 20
40.662142
 30
0.0
 10
58.791441
 20
41.475515
 30
0.0
 10
58.791441
 20
41.475515
 30
0.0
  0
LWPOLYLINE
  5
107
100
AcDbEntity
  8
Layer_1
 62
7
100
AcDbPolyline
 90
11
 70
1
 10
77.271449
 20
46.268306
 30
0.0
 10
78.998794
 20
49.289443
 30
0.0
 10
79.431449
 20
54.271899
 30
0.0
 10
76.647580
 20
62.630504
 30
0.0
 10
66.168952
 20
64.841584
 30
0.0
 10
53.785108
 20
62.260866
 30
0.0
 10
50.864528
 20
53.843754
 30
0.0
 10
54.305631
 20
46.699313
 30
0.0
 10
63.018890
 20
43.631263
 30
0.0
 10
72.117768
 20
43.617090
 30
0.0
 10
77.271449
 20
46.268192
 30
0.0
  0
LWPOLYLINE
  5
108
100
AcDbEntity
  8
Layer_1
 62
7
100
AcDbPolyline
 90
21
 70
1
 10
26.656282
 20
35.659106
 30
0.0
 10
34.746418
 20
41.402438
 30
0.0
 10
34.708377
 20
45.468737
 30
0.0
 10
33.382732
 20
54.512759
 30
0.0
 10
34.210312
 20
62.494951
 30
0.0
 10
35.004472
 20
64.030365
 30
0.0
 10
35.707776
 20
66.441288
 30
0.0
 10
35.548129
 20
69.487058
 30
0.0
 10
31.728923
 20
72.585298
 30
0.0
 10
27.862710
 20
75.324784
 30
0.0
 10
25.051442
 20
77.544369
 30
0.0
 10
22.810925
 20
78.817890
 30
0.0
 10
20.253518
 20
79.080378
 30
0.0
 10
17.589472
 20
77.759036
 30
0.0
 10
15.212024
 20
72.526961
 30
0.0
 10
13.293547
 20
65.029521
 30
0.0
 10
12.809948
 20
52.846980
 30
0.0
 10
13.802083
 20
36.260334
 30
0.0
 10
17.449948
 20
31.246980
 30
0.0
 10
20.992169
 20
32.543036
 30
0.0
 10
26.656291
 20
35.659134
 30
0.0
  0
LWPOLYLINE
  5
109
100
AcDbEntity
  8
Layer_1
 62
7
100
AcDbPolyline
 90
19
 70
1
 10
50.768742
 20
79.797940
 30
0.0
 10
55.645951
 20
80.921027
 30
0.0
 10
66.801064
 20
80.798570
 30
0.0
 10
77.154004
 20
80.355685
 30
0.0
 10
83.634789
 20
80.007562
 30
0.0
 10
86.806556
 20
80.182743
 30
0.0
 10
88.434788
 20
81.633373
 30
0.0
 10
89.845203
 20
83.570060
 30
0.0
 10
91.724275
 20
85.549323
 30
0.0
 10
95.095508
 20
89.883468
 30
0.0
 10
96.711449
 20
94.005808
 30
0.0
 10
92.308623
 20
96.578391
 30
0.0
 10
72.711448
 20
97.011836
 30
0.0
 10
47.981370
 20
96.201241
 30
0.0
 10
39.047919
 20
94.050454
 30
0.0
 10
39.015292
 20
89.635691
 30
0.0
 10
42.708433
 20
82.284520
 30
0.0
 10
46.207712
 20
78.555146
 30
0.0
 10
50.768756
 20
79.797997
 30
0.0
  0
LWPOLYLINE
  5
10a
100
AcDbEntity
  8
Layer_1
 62
7
100
AcDbPolyline
 90
7
 70
0
 10
5.608607
 20
80.805175
 30
0.0
 10
7.741360
 20
84.900926
 30
0.0
 10
11.754660
 20
90.570813
 30
0.0
 10
13.647043
 20
92.642428
 30
0.0
 10
15.480760
 20
94.591247
 30
0.0
 10
18.263322
 20
97.002737
 30
0.0
 10
20.634684
 20
98.947219
 30
0.0
  0
ENDSEC
  0
SECTION
  2
OBJECTS
  0
DICTIONARY
  5
C
330
0
100
AcDbDictionary
  3
ACAD_GROUP
350
D
  3
ACAD_MLINESTYLE
350
17
  0
DICTIONARY
  5
D
330
C
100
AcDbDictionary
  0
DICTIONARY
  5
1A
330
C
100
AcDbDictionary
  0
DICTIONARY
  5
17
330
C
100
AcDbDictionary
  3
STANDARD
350
18
  0
DICTIONARY
  5
19
330
C
100
AcDbDictionary
  0
ENDSEC
  0
EOF
