<?xml version="1.0" encoding="UTF-8" standalone="no"?>
<!-- Created with Inkscape (http://www.inkscape.org/) -->

<svg
   xmlns:dc="http://purl.org/dc/elements/1.1/"
   xmlns:cc="http://creativecommons.org/ns#"
   xmlns:rdf="http://www.w3.org/1999/02/22-rdf-syntax-ns#"
   xmlns:svg="http://www.w3.org/2000/svg"
   xmlns="http://www.w3.org/2000/svg"
   xmlns:sodipodi="http://sodipodi.sourceforge.net/DTD/sodipodi-0.dtd"
   xmlns:inkscape="http://www.inkscape.org/namespaces/inkscape"
   width="210mm"
   height="297mm"
   viewBox="0 0 210 297"
   version="1.1"
   id="svg8"
   inkscape:version="0.92.3 (2405546, 2018-03-11)"
   sodipodi:docname="Tech3-Shell.svg">
  <defs
     id="defs2" />
  <sodipodi:namedview
     id="base"
     pagecolor="#ffffff"
     bordercolor="#666666"
     borderopacity="1.0"
     inkscape:pageopacity="0.0"
     inkscape:pageshadow="2"
     inkscape:zoom="2.0592474"
     inkscape:cx="18.120335"
     inkscape:cy="101.46962"
     inkscape:document-units="mm"
     inkscape:current-layer="layer1"
     showgrid="false"
     inkscape:window-width="1325"
     inkscape:window-height="703"
     inkscape:window-x="48"
     inkscape:window-y="72"
     inkscape:window-maximized="0" />
  <metadata
     id="metadata5">
    <rdf:RDF>
      <cc:Work
         rdf:about="">
        <dc:format>image/svg+xml</dc:format>
        <dc:type
           rdf:resource="http://purl.org/dc/dcmitype/StillImage" />
        <dc:title />
      </cc:Work>
    </rdf:RDF>
  </metadata>
  <g
     inkscape:label="Layer 1"
     inkscape:groupmode="layer"
     id="layer1">
    <path
       style="fill:#000000;stroke-width:0.33866668"
       d="M 18.299598,296.44626 13.12894,295.18767 8.3089378,293.27906 7.087029,292.595 l -1.2732612,-0.6988 -3.3733163,-2.91439 -2.0686837,-3.2192 -0.002077,-3.35641 0.52802677,-2.2271 0.21132373,-0.13541 0.087896,-0.32557 3.0242312,-3.7485 4.1124288,-3.75286 0.7541238,-0.49181 0.5895362,-0.53697 0.2214439,-0.61928 -0.7541039,-0.8143 -0.8503855,-1.0796 -0.1546145,-2.04768 0.397325,-2.92576 1.281875,-1.88739 1.5165167,-0.48101 4.443153,-0.11166 4.701847,0.10999 1.713953,0.72914 1.462796,0.80116 0.806374,-0.37782 1.623783,-1.00517 3.891787,-0.26483 2.712775,0.0924 1.017145,0.24631 0.194286,0.23919 0.467114,0.0995 1.538414,0.39817 1.356186,0.78322 1.079552,2.64477 -0.384672,3.48831 0.298861,1.06041 1.984089,2.15693 2.957811,3.53347 0.895358,1.7176 0.634371,1.88857 0.227098,1.45204 0.0311,1.55136 -0.102388,1.36513 -0.173356,0.89333 -0.07727,0.21587 -0.100499,0.25315 -0.117782,0.26994 -0.129114,0.26626 -0.184793,0.36693 -0.273137,0.50774 -0.805892,1.14208 -1.059405,1.24276 -0.885375,1.15202 -0.787223,0.89606 -0.823437,0.6274 -0.649503,0.37308 -0.369047,0.2846 -2.922755,1.60907 -4.019915,1.78018 -5.952606,0.73565 -7.255394,-0.10094 h -2e-6 z m 5.120499,-1.08446 0.25903,-2.02508 0.20506,-4.45166 0.04575,-5.29164 -0.492608,-1.33663 -1.824581,-0.3042 -1.111818,1.34684 -0.08727,0.60652 -0.20982,0.59575 -0.328091,0.81326 -0.371629,1.12948 -0.36756,1.1557 -0.31833,0.8763 -0.427408,1.07526 -0.629832,1.63407 -0.640875,1.49904 -0.453975,0.75061 -0.164392,0.40166 0.05536,0.66007 0.52591,0.75456 1.6366,0.43795 3.059259,0.19386 z m 5.898551,0.14384 1.691928,-0.45014 0.224258,-1.26169 -0.527501,-2.58182 -0.406049,-0.68018 -0.212039,-0.24042 -0.08819,-0.57803 -0.07461,-0.61118 -0.179388,-0.32015 -0.850782,-1.72626 -0.850458,-2.61996 -1.292734,-2.13904 -1.443082,-0.018 -0.415211,6.8135 0.262151,6.80588 1.112192,0.10427 z m -13.952034,-1.31572 0.316985,-0.67314 0.270875,-1.02394 0.256313,-0.95409 0.281987,-0.50522 0.212071,-0.30548 0.08821,-0.47384 0.198966,-0.83114 0.478364,-1.16451 0.478373,-1.14549 0.198967,-0.78539 0.08727,-0.54632 0.20982,-0.5707 0.976873,-3.255 -0.287823,-2.09286 -0.222992,-0.58507 0.0042,-1.14282 -0.0018,-1.25704 -0.25261,-0.40562 -0.326429,0.14109 -0.826877,1.01072 -0.625541,1.10649 -0.260179,0.7808 -1.348844,2.29178 -1.559764,2.43996 -0.296752,0.46935 -0.446588,0.89069 -0.645849,1.21684 -0.775841,1.25353 -0.613307,0.98007 -0.255093,0.55936 -0.199502,0.3976 -0.479658,0.59117 -0.5039981,0.7282 -0.2580021,0.72707 0.2623088,0.83121 1.6868514,0.83757 0.866775,0.37673 0.657225,0.31994 1.314437,0.15824 z m 17.625244,-13.33351 0.473719,0.52229 0.719171,1.25571 1.73307,3.22642 0.592621,1.12396 0.246489,0.66834 0.105384,0.36301 0.253366,0.3899 0.447366,0.61614 0.571814,0.90697 0.673546,0.88702 0.745704,-0.36248 0.862616,-0.78525 1.008364,-1.06006 0.363357,-0.43515 0.556085,-0.62789 -0.33877,-0.60315 -0.169385,-0.30158 -0.169385,-0.30158 -1.55904,-2.55423 -1.427061,-1.86584 -2.552279,-1.7717 -1.865674,-1.35145 -1.085396,-1.86502 -0.704419,-0.7854 -0.898233,-0.0637 -0.131725,0.68258 0.675602,1.92759 0.603165,1.62951 z m -2.99817,-0.68631 -0.892368,0.72389 -0.533342,0.30108 -0.242475,0.67465 0.642135,1.77599 0.478364,1.07199 0.198966,0.60868 0.189305,0.61858 0.455135,1.09581 1.199518,3.17466 0.526712,2.31758 0.356901,1.0434 0.763079,0.488 0.852941,-0.30353 1.619329,-0.72977 h -2e-5 -2e-5 l 1.370022,-0.57015 0.60233,-0.66505 -0.571776,-1.53967 -0.867554,-1.23284 -0.179387,-0.26212 -0.07461,-0.47166 -0.07461,-0.47166 -0.179388,-0.26212 -1.388765,-2.45886 -1.356946,-2.71447 -0.377664,-0.5158 -0.162953,-0.31824 -0.603594,-0.83177 -0.51668,-0.91338 -0.580804,-0.0199 z m -20.8053357,9.59377 0.9824477,-1.82298 0.932993,-1.64836 1.075457,-1.8458 1.472683,-2.59151 0.495567,-0.73034 0.552283,-0.62579 0.418574,-0.50207 0.141974,-0.3044 0.131607,-0.39941 0.158874,-0.18496 0.231156,-0.3676 0.115546,-0.30972 0.273497,-0.60733 0.483786,-0.68275 0.602844,-0.28146 -0.456424,-0.61024 -0.46203,0.40961 -0.687175,0.63787 -2.129991,1.79077 -2.288279,0.753 -1.167235,0.2742 -1.2101652,1.08144 -0.8649738,1.0421 -0.3597662,0.60178 -0.2705175,0.49167 -0.6503925,0.77736 -2.11771,2.54852 -1.02538,1.69747 0.3276488,0.94692 0.7254339,0.34305 0.8222968,0.44935 0.6240624,0.66125 0.6882453,0.85019 0.9368673,0.10549 0.6369087,-0.57203 z m -4.2207054,-5.88513 2.3318275,-2.8582 0.9538525,-1.94125 -0.3697166,-0.76633 -0.5906725,-0.84322 -0.2261738,-0.31263 -0.3060262,-0.51388 -1.2609438,-0.60533 -2.4959462,2.66811 -1.933,4.76856 0.8055591,3.39728 0.6064287,0.0648 0.9226213,-1.08085 0.8787637,-1.16899 z m 39.1719211,0.93296 0.157912,-0.53048 0.129318,-0.61295 0.08738,-0.61952 0.03209,-0.55019 -0.231363,-1.36924 -0.552703,-1.71395 -0.661965,-1.49788 -0.559149,-0.72103 -0.251454,0.043 -0.401099,0.21153 -0.495526,0.34575 -0.534741,0.44566 -0.553457,0.48317 -0.546492,0.44787 -0.476528,0.36265 -0.343563,0.22752 -0.366468,0.42789 0.781288,0.79097 0.440588,0.41258 0.434043,0.47917 0.377518,0.4863 0.271011,0.43398 1.163394,2.03111 0.876837,0.97933 0.672562,-0.0216 z m -16.78886,-4.08373 2.319274,-1.44166 0.652286,-2.43495 0.166134,-1.12927 0.696466,-0.56866 1.634519,-0.34097 0.943831,0.96395 0.392816,0.71755 0.312904,0.29845 0.184105,0.12435 0.08316,0.29898 0.194617,0.52281 -0.01329,0.17419 2.38401,0.74006 2.966921,-1.45372 0.692863,-0.87121 -0.121114,-1.00137 -2.791118,-3.0612 -0.499784,-0.373 -0.289759,-0.26871 -0.27616,-0.11947 -0.19405,-0.28724 -0.733719,-0.28802 -1.778879,-0.0583 -2.689337,-0.0198 -1.116222,-0.7804 -0.659558,-1.00505 -0.100252,-1.21736 0.781548,-1.61014 0.389631,1.22876 0.761904,1.90191 2.017336,0.63629 2.50067,-0.70677 1.47797,-1.84941 -0.173661,-1.44364 -0.0325,-0.75259 -0.898698,-1.49314 -1.576622,-0.85184 -0.371205,-0.0998 -0.03214,-0.23931 -4.229845,-0.36483 -4.937035,0.50866 -0.820915,1.40679 -0.351835,1.77343 -0.06797,0.67741 -0.346516,-0.44546 -0.401958,-0.78832 -0.147332,-0.82034 -0.253907,-0.55627 -0.550433,-0.74295 -1.036059,-0.73826 -2.096191,-0.20676 -1.998851,-0.10585 -1.476739,-0.15742 -2.798462,0.0768 -2.439152,0.93232 -1.1120815,1.767 -0.4572583,2.17819 2.4712258,2.4916 3.831988,-0.31657 0.606662,-0.69165 0.23704,-1.96542 0.03061,-0.33456 v 0 0 l 0.524949,0.0233 v 0 l 0.571128,0.60677 0.01186,0.57946 -0.258035,1.04717 -1.085932,1.5834 -1.507187,0.29837 -0.219107,-0.0301 -0.09113,0.19696 -0.443002,0.11702 -0.769331,0.12806 -0.984895,0.17964 -0.793105,0.43191 -0.78723,0.57509 -0.9707702,0.52394 -0.9470113,0.6716 -0.7001487,0.96582 1.2205693,3.46962 3.0296899,0.91584 1.21862,-0.81712 1.59479,-1.38157 2.390791,-1.68935 2.08374,0.98059 0.721569,0.99302 0.257071,1.72251 0.758879,2.41848 2.926701,0.48934 1.93441,-0.13295 z"
       id="path3724"
       inkscape:connector-curvature="0"
       sodipodi:nodetypes="cccccccccccccccccccccccccccccccccccccccccccccccccccccccccccccccccccccccccccccccccccccccccccccccccccccccccccccccccccccccccccccccccccccccccccccccccccccccccccccccccccccccccccccccccccccccccccccccccccccccccccccccccccccccccccccccccccccccccccccccccccccccccccccccccccccccccccccccccccccccccccccccccccccccccccccccccccccccccccccccccccccccccccccccccccccccccccccccccccccccccccccccccccccccccccccc" />
  </g>
</svg>
