  0
SECTION
  2
HEADER
  9
$ACADVER
  1
AC1014
  9
$HANDSEED
  5
FFFF
  9
$MEASUREMENT
 70
     1
  0
ENDSEC
  0
SECTION
  2
TABLES
  0
TABLE
  2
VPORT
  5
8
330
0
100
AcDbSymbolTable
 70
     4
  0
VPORT
  5
2E
330
8
100
AcDbSymbolTableRecord
100
AcDbViewportTableRecord
  2
*ACTIVE
 70
     0
 10
0.0
 20
0.0
 11
1.0
 21
1.0
 12
210.0
 22
148.5
 13
0.0
 23
0.0
 14
10.0
 24
10.0
 15
10.0
 25
10.0
 16
0.0
 26
0.0
 36
1.0
 17
0.0
 27
0.0
 37
0.0
 40
341.0
 41
1.24
 42
50.0
 43
0.0
 44
0.0
 50
0.0
 51
0.0
 71
     0
 72
   100
 73
     1
 74
     3
 75
     0
 76
     0
 77
     0
 78
     0
  0
ENDTAB
  0
TABLE
  2
LTYPE
  5
5
330
0
100
AcDbSymbolTable
 70
     1
  0
LTYPE
  5
14
330
5
100
AcDbSymbolTableRecord
100
AcDbLinetypeTableRecord
  2
BYBLOCK
 70
     0
  3

 72
    65
 73
     0
 40
0.0
  0
LTYPE
  5
15
330
5
100
AcDbSymbolTableRecord
100
AcDbLinetypeTableRecord
  2
BYLAYER
 70
     0
  3

 72
    65
 73
     0
 40
0.0
  0
LTYPE
  5
16
330
5
100
AcDbSymbolTableRecord
100
AcDbLinetypeTableRecord
  2
CONTINUOUS
 70
     0
  3
Solid line
 72
    65
 73
     0
 40
0.0
  0
ENDTAB
  0
TABLE
  2
LAYER
  5
2
100
AcDbSymbolTable
 70
2
  0
LAYER
  5
50
100
AcDbSymbolTableRecord
100
AcDbLayerTableRecord
  2
0
 70
0
  6
CONTINUOUS
  0
LAYER
  5
51
100
AcDbSymbolTableRecord
100
AcDbLayerTableRecord
  2
Layer_1
 70
0
  6
CONTINUOUS
  0
ENDTAB
  0
TABLE
  2
STYLE
  5
3
330
0
100
AcDbSymbolTable
 70
     1
  0
STYLE
  5
11
330
3
100
AcDbSymbolTableRecord
100
AcDbTextStyleTableRecord
  2
STANDARD
 70
     0
 40
0.0
 41
1.0
 50
0.0
 71
     0
 42
2.5
  3
txt
  4

  0
ENDTAB
  0
TABLE
  2
VIEW
  5
6
330
0
100
AcDbSymbolTable
 70
     0
  0
ENDTAB
  0
TABLE
  2
UCS
  5
7
330
0
100
AcDbSymbolTable
 70
     0
  0
ENDTAB
  0
TABLE
  2
APPID
  5
9
330
0
100
AcDbSymbolTable
 70
     2
  0
APPID
  5
12
330
9
100
AcDbSymbolTableRecord
100
AcDbRegAppTableRecord
  2
ACAD
 70
     0
  0
ENDTAB
  0
TABLE
  2
DIMSTYLE
  5
A
330
0
100
AcDbSymbolTable
 70
     1
  0
DIMSTYLE
105
27
330
A
100
AcDbSymbolTableRecord
100
AcDbDimStyleTableRecord
  2
ISO-25
 70
     0
  3

  4

  5

  6

  7

 40
1.0
 41
2.5
 42
0.625
 43
3.75
 44
1.25
 45
0.0
 46
0.0
 47
0.0
 48
0.0
140
2.5
141
2.5
142
0.0
143
0.03937007874016
144
1.0
145
0.0
146
1.0
147
0.625
 71
     0
 72
     0
 73
     0
 74
     0
 75
     0
 76
     0
 77
     1
 78
     8
170
     0
171
     3
172
     1
173
     0
174
     0
175
     0
176
     0
177
     0
178
     0
270
     2
271
     2
272
     2
273
     2
274
     3
340
11
275
     0
280
     0
281
     0
282
     0
283
     0
284
     8
285
     0
286
     0
287
     3
288
     0
  0
ENDTAB
  0
TABLE
  2
BLOCK_RECORD
  5
1
330
0
100
AcDbSymbolTable
 70
     1
  0
BLOCK_RECORD
  5
1F
330
1
100
AcDbSymbolTableRecord
100
AcDbBlockTableRecord
  2
*MODEL_SPACE
  0
BLOCK_RECORD
  5
1B
330
1
100
AcDbSymbolTableRecord
100
AcDbBlockTableRecord
  2
*PAPER_SPACE
  0
ENDTAB
  0
ENDSEC
  0
SECTION
  2
BLOCKS
  0
BLOCK
  5
20
330
1F
100
AcDbEntity
  8
0
100
AcDbBlockBegin
  2
*MODEL_SPACE
 70
     0
 10
0.0
 20
0.0
 30
0.0
  3
*MODEL_SPACE
  1

  0
ENDBLK
  5
21
330
1F
100
AcDbEntity
  8
0
100
AcDbBlockEnd
  0
BLOCK
  5
1C
330
1B
100
AcDbEntity
 67
     1
  8
0
100
AcDbBlockBegin
  2
*PAPER_SPACE
  1

  0
ENDBLK
  5
1D
330
1B
100
AcDbEntity
 67
     1
  8
0
100
AcDbBlockEnd
  0
ENDSEC
  0
SECTION
  2
ENTITIES
  0
LWPOLYLINE
  5
100
100
AcDbEntity
  8
Layer_1
 62
7
100
AcDbPolyline
 90
64
 70
1
 10
51.872876
 20
1.569657
 30
0.0
 10
37.215893
 20
5.137313
 30
0.0
 10
23.552895
 20
10.547546
 30
0.0
 10
20.089216
 20
12.486614
 30
0.0
 10
16.479972
 20
14.467465
 30
0.0
 10
6.917815
 20
22.728728
 30
0.0
 10
1.053830
 20
31.854019
 30
0.0
 10
1.047942
 20
41.368252
 30
0.0
 10
2.544711
 20
47.681291
 30
0.0
 10
3.143739
 20
48.065131
 30
0.0
 10
3.392893
 20
48.988006
 30
0.0
 10
11.965517
 20
59.613676
 30
0.0
 10
23.622795
 20
70.251704
 30
0.0
 10
25.760469
 20
71.645811
 30
0.0
 10
27.431595
 20
73.167931
 30
0.0
 10
28.059310
 20
74.923370
 30
0.0
 10
25.921693
 20
77.231622
 30
0.0
 10
23.511152
 20
80.291906
 30
0.0
 10
23.072874
 20
86.096353
 30
0.0
 10
24.199150
 20
94.389846
 30
0.0
 10
27.832811
 20
99.739928
 30
0.0
 10
32.131599
 20
101.103420
 30
0.0
 10
44.726363
 20
101.419937
 30
0.0
 10
58.054433
 20
101.108154
 30
0.0
 10
62.912883
 20
99.041301
 30
0.0
 10
67.059391
 20
96.770296
 30
0.0
 10
69.345176
 20
97.841282
 30
0.0
 10
73.948025
 20
100.690583
 30
0.0
 10
84.979862
 20
101.441282
 30
0.0
 10
92.669618
 20
101.179361
 30
0.0
 10
95.552864
 20
100.481159
 30
0.0
 10
96.103596
 20
99.803140
 30
0.0
 10
97.427699
 20
99.521093
 30
0.0
 10
101.788557
 20
98.392422
 30
0.0
 10
105.632864
 20
96.172271
 30
0.0
 10
108.693011
 20
88.675285
 30
0.0
 10
107.602603
 20
78.787162
 30
0.0
 10
108.449768
 20
75.781276
 30
0.0
 10
114.073957
 20
69.667143
 30
0.0
 10
122.458303
 20
59.651008
 30
0.0
 10
124.996326
 20
54.782220
 30
0.0
 10
126.794543
 20
49.428794
 30
0.0
 10
127.438285
 20
45.312775
 30
0.0
 10
127.526443
 20
40.915219
 30
0.0
 10
127.236209
 20
37.045559
 30
0.0
 10
126.744806
 20
34.513285
 30
0.0
 10
126.525773
 20
33.901370
 30
0.0
 10
126.240894
 20
33.183780
 30
0.0
 10
125.907024
 20
32.418595
 30
0.0
 10
125.541031
 20
31.663843
 30
0.0
 10
125.017209
 20
30.623726
 30
0.0
 10
124.242962
 20
29.184463
 30
0.0
 10
121.958544
 20
25.947071
 30
0.0
 10
118.955506
 20
22.424287
 30
0.0
 10
116.445781
 20
19.158718
 30
0.0
 10
114.214283
 20
16.618706
 30
0.0
 10
111.880131
 20
14.840249
 30
0.0
 10
110.039020
 20
13.782699
 30
0.0
 10
108.992903
 20
12.975959
 30
0.0
 10
100.707928
 20
8.414816
 30
0.0
 10
89.312893
 20
3.368636
 30
0.0
 10
72.439364
 20
1.283329
 30
0.0
 10
51.872893
 20
1.569458
 30
0.0
 10
51.872888
 20
1.569458
 30
0.0
  0
LWPOLYLINE
  5
101
100
AcDbEntity
  8
Layer_1
 62
7
100
AcDbPolyline
 90
22
 70
1
 10
66.387677
 20
4.643717
 30
0.0
 10
67.121935
 20
10.384101
 30
0.0
 10
67.703207
 20
23.002980
 30
0.0
 10
67.832892
 20
38.002904
 30
0.0
 10
66.436523
 20
41.791776
 30
0.0
 10
61.264483
 20
42.654076
 30
0.0
 10
58.112872
 20
38.836261
 30
0.0
 10
57.865493
 20
37.116992
 30
0.0
 10
57.270728
 20
35.428252
 30
0.0
 10
56.340706
 20
33.122948
 30
0.0
 10
55.287269
 20
29.921272
 30
0.0
 10
54.245367
 20
26.645272
 30
0.0
 10
53.343014
 20
24.161272
 30
0.0
 10
52.131464
 20
21.113291
 30
0.0
 10
50.346113
 20
16.481282
 30
0.0
 10
48.529460
 20
12.232035
 30
0.0
 10
47.242602
 20
10.104321
 30
0.0
 10
46.776609
 20
8.965757
 30
0.0
 10
46.933534
 20
7.094693
 30
0.0
 10
48.424303
 20
4.955783
 30
0.0
 10
53.063484
 20
3.714350
 30
0.0
 10
61.735399
 20
3.164825
 30
0.0
  0
LWPOLYLINE
  5
102
100
AcDbEntity
  8
Layer_1
 62
7
100
AcDbPolyline
 90
16
 70
1
 10
83.107979
 20
4.235981
 30
0.0
 10
87.903995
 20
5.511969
 30
0.0
 10
88.539687
 20
9.088413
 30
0.0
 10
87.044409
 20
16.406957
 30
0.0
 10
85.893403
 20
18.335027
 30
0.0
 10
85.292348
 20
19.016532
 30
0.0
 10
85.042361
 20
20.655043
 30
0.0
 10
84.830868
 20
22.387521
 30
0.0
 10
84.322366
 20
23.295033
 30
0.0
 10
81.910701
 20
28.188369
 30
0.0
 10
79.499954
 20
35.615027
 30
0.0
 10
75.835511
 20
41.678447
 30
0.0
 10
71.744885
 20
41.729471
 30
0.0
 10
70.567909
 20
22.415613
 30
0.0
 10
71.311014
 20
3.123354
 30
0.0
 10
74.463684
 20
2.827786
 30
0.0
  0
LWPOLYLINE
  5
103
100
AcDbEntity
  8
Layer_1
 62
7
100
AcDbPolyline
 90
40
 70
1
 10
43.558906
 20
7.965581
 30
0.0
 10
44.457446
 20
9.873694
 30
0.0
 10
45.225281
 20
12.776202
 30
0.0
 10
45.951837
 20
15.480709
 30
0.0
 10
46.751170
 20
16.912828
 30
0.0
 10
47.352317
 20
17.778756
 30
0.0
 10
47.602361
 20
19.121924
 30
0.0
 10
48.166359
 20
21.477912
 30
0.0
 10
49.522351
 20
24.778885
 30
0.0
 10
50.878369
 20
28.025943
 30
0.0
 10
51.442370
 20
30.252246
 30
0.0
 10
51.689750
 20
31.800869
 30
0.0
 10
52.284515
 20
33.418602
 30
0.0
 10
55.053604
 20
42.645373
 30
0.0
 10
54.237728
 20
48.577890
 30
0.0
 10
53.605624
 20
50.236356
 30
0.0
 10
53.617530
 20
53.475846
 30
0.0
 10
53.612427
 20
57.039109
 30
0.0
 10
52.896368
 20
58.188898
 30
0.0
 10
51.971057
 20
57.788957
 30
0.0
 10
49.627154
 20
54.923924
 30
0.0
 10
47.853967
 20
51.787417
 30
0.0
 10
47.116451
 20
49.574126
 30
0.0
 10
43.292957
 20
43.077742
 30
0.0
 10
38.871578
 20
36.161320
 30
0.0
 10
38.030391
 20
34.830879
 30
0.0
 10
36.764473
 20
32.306088
 30
0.0
 10
34.933720
 20
28.856778
 30
0.0
 10
32.734485
 20
25.303465
 30
0.0
 10
30.995977
 20
22.525313
 30
0.0
 10
30.272879
 20
20.939726
 30
0.0
 10
29.707362
 20
19.812671
 30
0.0
 10
28.347701
 20
18.136913
 30
0.0
 10
26.919045
 20
16.072724
 30
0.0
 10
26.187701
 20
14.011739
 30
0.0
 10
26.931253
 20
11.655553
 30
0.0
 10
31.712879
 20
9.281339
 30
0.0
 10
34.169879
 20
8.213443
 30
0.0
 10
36.032879
 20
7.306526
 30
0.0
 10
39.758842
 20
6.857972
 30
0.0
  0
LWPOLYLINE
  5
104
100
AcDbEntity
  8
Layer_1
 62
7
100
AcDbPolyline
 90
29
 70
1
 10
93.520227
 20
45.761357
 30
0.0
 10
94.863053
 20
44.280850
 30
0.0
 10
96.901648
 20
40.721357
 30
0.0
 10
101.814287
 20
31.575600
 30
0.0
 10
103.494158
 20
28.389572
 30
0.0
 10
104.192867
 20
26.495065
 30
0.0
 10
104.491593
 20
25.466060
 30
0.0
 10
105.209796
 20
24.360831
 30
0.0
 10
106.477920
 20
22.614293
 30
0.0
 10
108.098810
 20
20.043354
 30
0.0
 10
110.008074
 20
17.528967
 30
0.0
 10
112.121881
 20
18.556469
 30
0.0
 10
114.567092
 20
20.782375
 30
0.0
 10
117.425446
 20
23.787269
 30
0.0
 10
118.455435
 20
25.020765
 30
0.0
 10
120.031739
 20
26.800611
 30
0.0
 10
119.071446
 20
28.510328
 30
0.0
 10
118.591299
 20
29.365200
 30
0.0
 10
118.111153
 20
30.220072
 30
0.0
 10
113.691827
 20
37.460409
 30
0.0
 10
109.646614
 20
42.749405
 30
0.0
 10
102.411808
 20
47.771546
 30
0.0
 10
97.123283
 20
51.602428
 30
0.0
 10
94.046570
 20
56.889099
 30
0.0
 10
92.049792
 20
59.115430
 30
0.0
 10
89.503620
 20
59.295997
 30
0.0
 10
89.130226
 20
57.361124
 30
0.0
 10
91.045318
 20
51.897090
 30
0.0
 10
92.755077
 20
47.278006
 30
0.0
  0
LWPOLYLINE
  5
105
100
AcDbEntity
  8
Layer_1
 62
7
100
AcDbPolyline
 90
32
 70
1
 10
85.021478
 20
47.706803
 30
0.0
 10
82.491931
 20
45.654831
 30
0.0
 10
80.980095
 20
44.801376
 30
0.0
 10
80.292764
 20
42.888983
 30
0.0
 10
82.112990
 20
37.854680
 30
0.0
 10
83.468982
 20
34.815969
 30
0.0
 10
84.032980
 20
33.090576
 30
0.0
 10
84.569593
 20
31.337121
 30
0.0
 10
85.859739
 20
28.230888
 30
0.0
 10
89.259948
 20
19.231852
 30
0.0
 10
90.752990
 20
12.662334
 30
0.0
 10
91.764677
 20
9.704665
 30
0.0
 10
93.927736
 20
8.321357
 30
0.0
 10
96.345522
 20
9.181757
 30
0.0
 10
100.935746
 20
11.250397
 30
0.0
 10
100.935689
 20
11.250397
 30
0.0
 10
100.935632
 20
11.250397
 30
0.0
 10
104.819159
 20
12.866570
 30
0.0
 10
106.526551
 20
14.751751
 30
0.0
 10
104.905769
 20
19.116170
 30
0.0
 10
102.446561
 20
22.610835
 30
0.0
 10
101.938062
 20
23.353852
 30
0.0
 10
101.726569
 20
24.690841
 30
0.0
 10
101.515076
 20
26.027830
 30
0.0
 10
101.006575
 20
26.770847
 30
0.0
 10
97.069918
 20
33.740844
 30
0.0
 10
93.223457
 20
41.435405
 30
0.0
 10
92.152913
 20
42.897515
 30
0.0
 10
91.690999
 20
43.799613
 30
0.0
 10
89.980024
 20
46.157386
 30
0.0
 10
88.515420
 20
48.746494
 30
0.0
 10
86.869046
 20
48.802904
 30
0.0
  0
LWPOLYLINE
  5
106
100
AcDbEntity
  8
Layer_1
 62
7
100
AcDbPolyline
 90
36
 70
1
 10
26.045723
 20
20.511865
 30
0.0
 10
28.830614
 20
25.679367
 30
0.0
 10
31.475319
 20
30.351883
 30
0.0
 10
34.523858
 20
35.584072
 30
0.0
 10
38.698393
 20
42.930085
 30
0.0
 10
40.103150
 20
45.000340
 30
0.0
 10
41.668676
 20
46.774233
 30
0.0
 10
42.855185
 20
48.197424
 30
0.0
 10
43.257631
 20
49.060290
 30
0.0
 10
43.630690
 20
50.192476
 30
0.0
 10
44.081042
 20
50.716772
 30
0.0
 10
44.736287
 20
51.758787
 30
0.0
 10
45.063819
 20
52.636734
 30
0.0
 10
45.839086
 20
54.358299
 30
0.0
 10
47.210448
 20
56.293654
 30
0.0
 10
48.919297
 20
57.091493
 30
0.0
 10
47.625497
 20
58.821307
 30
0.0
 10
46.315806
 20
57.660208
 30
0.0
 10
44.367908
 20
55.852072
 30
0.0
 10
38.330138
 20
50.775874
 30
0.0
 10
31.843678
 20
48.641386
 30
0.0
 10
28.534980
 20
47.864126
 30
0.0
 10
25.104591
 20
44.798627
 30
0.0
 10
22.652697
 20
41.844643
 30
0.0
 10
21.632887
 20
40.138809
 30
0.0
 10
20.866066
 20
38.745099
 30
0.0
 10
19.022433
 20
36.541559
 30
0.0
 10
13.019476
 20
29.317408
 30
0.0
 10
10.112887
 20
24.505682
 30
0.0
 10
11.041655
 20
21.821499
 30
0.0
 10
13.098003
 20
20.849074
 30
0.0
 10
15.428923
 20
19.575326
 30
0.0
 10
17.197919
 20
17.700917
 30
0.0
 10
19.148851
 20
15.290929
 30
0.0
 10
21.804538
 20
14.991902
 30
0.0
 10
23.609948
 20
16.613405
 30
0.0
  0
LWPOLYLINE
  5
107
100
AcDbEntity
  8
Layer_1
 62
7
100
AcDbPolyline
 90
14
 70
1
 10
14.081519
 20
37.194123
 30
0.0
 10
20.691423
 20
45.296107
 30
0.0
 10
23.395257
 20
50.798863
 30
0.0
 10
22.347242
 20
52.971137
 30
0.0
 10
20.672895
 20
55.361367
 30
0.0
 10
20.031772
 20
56.247562
 30
0.0
 10
19.164296
 20
57.704230
 30
0.0
 10
15.589967
 20
59.420126
 30
0.0
 10
8.514844
 20
51.856980
 30
0.0
 10
3.035474
 20
38.339802
 30
0.0
 10
5.318949
 20
28.709717
 30
0.0
 10
7.037959
 20
28.526031
 30
0.0
 10
9.653264
 20
31.589858
 30
0.0
 10
12.144247
 20
34.903531
 30
0.0
  0
LWPOLYLINE
  5
108
100
AcDbEntity
  8
Layer_1
 62
7
100
AcDbPolyline
 90
26
 70
1
 10
125.120035
 20
34.549512
 30
0.0
 10
125.567660
 20
36.053235
 30
0.0
 10
125.934231
 20
37.790731
 30
0.0
 10
126.181922
 20
39.546850
 30
0.0
 10
126.272886
 20
41.106444
 30
0.0
 10
125.617054
 20
44.987754
 30
0.0
 10
124.050336
 20
49.846195
 30
0.0
 10
122.173900
 20
54.092154
 30
0.0
 10
120.588911
 20
56.136019
 30
0.0
 10
119.876128
 20
56.014129
 30
0.0
 10
118.739154
 20
55.414517
 30
0.0
 10
117.334514
 20
54.434438
 30
0.0
 10
115.818712
 20
53.171150
 30
0.0
 10
114.249858
 20
51.801534
 30
0.0
 10
112.700747
 20
50.531981
 30
0.0
 10
111.349959
 20
49.503997
 30
0.0
 10
110.376079
 20
48.859058
 30
0.0
 10
109.337272
 20
47.646142
 30
0.0
 10
111.551947
 20
45.404022
 30
0.0
 10
112.800858
 20
44.234504
 30
0.0
 10
114.031216
 20
42.876227
 30
0.0
 10
115.101346
 20
41.497739
 30
0.0
 10
115.869566
 20
40.267559
 30
0.0
 10
119.167376
 20
34.510082
 30
0.0
 10
121.652898
 20
31.734028
 30
0.0
 10
123.559373
 20
31.795257
 30
0.0
  0
LWPOLYLINE
  5
109
100
AcDbEntity
  8
Layer_1
 62
7
100
AcDbPolyline
 90
93
 70
1
 10
77.529566
 20
46.125439
 30
0.0
 10
84.103886
 20
50.212035
 30
0.0
 10
85.952886
 20
57.114255
 30
0.0
 10
86.423817
 20
60.315335
 30
0.0
 10
88.398051
 20
61.927285
 30
0.0
 10
93.031333
 20
62.893814
 30
0.0
 10
95.706760
 20
60.161357
 30
0.0
 10
96.820254
 20
58.127357
 30
0.0
 10
97.707226
 20
57.281357
 30
0.0
 10
98.229098
 20
56.928869
 30
0.0
 10
98.464827
 20
56.081367
 30
0.0
 10
99.016498
 20
54.599386
 30
0.0
 10
98.978825
 20
54.105619
 30
0.0
 10
105.736649
 20
52.007811
 30
0.0
 10
114.146819
 20
56.128592
 30
0.0
 10
116.110840
 20
58.598164
 30
0.0
 10
115.767524
 20
61.436693
 30
0.0
 10
107.855694
 20
70.114110
 30
0.0
 10
106.438983
 20
71.171433
 30
0.0
 10
105.617619
 20
71.933131
 30
0.0
 10
104.834803
 20
72.271786
 30
0.0
 10
104.284740
 20
73.086009
 30
0.0
 10
102.204907
 20
73.902444
 30
0.0
 10
97.162415
 20
74.067704
 30
0.0
 10
89.539098
 20
74.123830
 30
0.0
 10
86.375004
 20
76.335987
 30
0.0
 10
84.505391
 20
79.184948
 30
0.0
 10
84.221212
 20
82.635732
 30
0.0
 10
86.436624
 20
87.199909
 30
0.0
 10
87.541089
 20
83.716809
 30
0.0
 10
89.700817
 20
78.325569
 30
0.0
 10
95.419250
 20
76.521912
 30
0.0
 10
102.507763
 20
78.525354
 30
0.0
 10
106.697285
 20
83.767776
 30
0.0
 10
106.205017
 20
87.859984
 30
0.0
 10
106.112891
 20
89.993310
 30
0.0
 10
103.565401
 20
94.225833
 30
0.0
 10
99.096236
 20
96.640498
 30
0.0
 10
98.044002
 20
96.923395
 30
0.0
 10
97.952896
 20
97.601754
 30
0.0
 10
85.962784
 20
98.635918
 30
0.0
 10
71.968039
 20
97.194047
 30
0.0
 10
69.641036
 20
93.206296
 30
0.0
 10
68.643709
 20
88.179250
 30
0.0
 10
68.451038
 20
86.259033
 30
0.0
 10
67.468788
 20
87.521754
 30
0.0
 10
66.329379
 20
89.756362
 30
0.0
 10
65.911745
 20
92.081735
 30
0.0
 10
65.192009
 20
93.658564
 30
0.0
 10
63.631726
 20
95.764564
 30
0.0
 10
60.694866
 20
97.857269
 30
0.0
 10
54.752907
 20
98.443361
 30
0.0
 10
49.086873
 20
98.743408
 30
0.0
 10
44.900841
 20
99.189638
 30
0.0
 10
36.968193
 20
98.971937
 30
0.0
 10
30.054061
 20
96.329140
 30
0.0
 10
26.901704
 20
91.320321
 30
0.0
 10
25.605539
 20
85.145924
 30
0.0
 10
32.610589
 20
78.083121
 30
0.0
 10
43.472917
 20
78.980485
 30
0.0
 10
45.192589
 20
80.941068
 30
0.0
 10
45.864513
 20
86.512337
 30
0.0
 10
45.951282
 20
87.460696
 30
0.0
 10
45.951282
 20
87.460696
 30
0.0
 10
45.951282
 20
87.460696
 30
0.0
 10
47.439326
 20
87.394649
 30
0.0
 10
47.439326
 20
87.394649
 30
0.0
 10
49.058271
 20
85.674671
 30
0.0
 10
49.091890
 20
84.032107
 30
0.0
 10
48.360453
 20
81.063751
 30
0.0
 10
45.282220
 20
76.575373
 30
0.0
 10
41.009879
 20
75.729600
 30
0.0
 10
40.388788
 20
75.814923
 30
0.0
 10
40.130467
 20
75.256611
 30
0.0
 10
38.874713
 20
74.924901
 30
0.0
 10
36.693933
 20
74.561896
 30
0.0
 10
33.902104
 20
74.052680
 30
0.0
 10
31.653933
 20
72.828369
 30
0.0
 10
29.422414
 20
71.198192
 30
0.0
 10
26.670625
 20
69.713008
 30
0.0
 10
23.986183
 20
67.809260
 30
0.0
 10
22.001510
 20
65.071502
 30
0.0
 10
25.461391
 20
55.236359
 30
0.0
 10
34.049489
 20
52.640277
 30
0.0
 10
37.503845
 20
54.956523
 30
0.0
 10
42.024509
 20
58.872784
 30
0.0
 10
48.801555
 20
63.661493
 30
0.0
 10
54.708219
 20
60.881868
 30
0.0
 10
56.753612
 20
58.067008
 30
0.0
 10
57.482317
 20
53.184302
 30
0.0
 10
59.633470
 20
46.328769
 30
0.0
 10
67.929630
 20
44.941663
 30
0.0
 10
73.412997
 20
45.318529
 30
0.0
  0
ENDSEC
  0
SECTION
  2
OBJECTS
  0
DICTIONARY
  5
C
330
0
100
AcDbDictionary
  3
ACAD_GROUP
350
D
  3
ACAD_MLINESTYLE
350
17
  0
DICTIONARY
  5
D
330
C
100
AcDbDictionary
  0
DICTIONARY
  5
1A
330
C
100
AcDbDictionary
  0
DICTIONARY
  5
17
330
C
100
AcDbDictionary
  3
STANDARD
350
18
  0
DICTIONARY
  5
19
330
C
100
AcDbDictionary
  0
ENDSEC
  0
EOF
